;Layer: Drill PTH
;EasyEDA v6.3.43, 2020-06-01T19:13:48+08:00
;e22e4845dbe6470894a8ffcda582c5b6,45e1048b23574a55a66a4e5d38cdb7dd,10
;Gerber Generator version 0.2
M48
METRIC,LZ,000.000
;Holesize 1 = 0.901 METRIC
T01C0.901
;Holesize 2 = 1.000 METRIC
T02C1.000
;Holesize 3 = 1.101 METRIC
T03C1.101
;Holesize 4 = 1.200 METRIC
T04C1.200
;Holesize 5 = 1.701 METRIC
T05C1.701
;Holesize 6 = 3.000 METRIC
T06C3.000
%
G05
G90
T01
X+024446Y+084800
X+016447Y+084800
X+023811Y+059654
X+015812Y+059654
X+023811Y+011492
X+015812Y+011492
X+024446Y+036638
X+016447Y+036638
T02
X+015842Y+063972
X+024543Y+063972
X+016477Y+081117
X+025178Y+081117
X+016477Y+032955
X+025178Y+032955
X+015842Y+015810
X+024543Y+015810
T03
X+036830Y+093280
X+036830Y+073780
X+036830Y+051555
X+036830Y+071055
X+036830Y+003393
X+036830Y+022893
X+036830Y+045118
X+036830Y+025618
T04
X+049592Y+072354
X+041593Y+072354
X+058039Y+057495
X+058039Y+088483
X+030831Y+075275
X+011332Y+075275
X+011332Y+069433
X+030831Y+069433
X+011332Y+021271
X+030831Y+021271
X+030831Y+027113
X+011332Y+027113
X+058039Y+009333
X+058039Y+040321
X+049592Y+024192
X+041593Y+024192
T05
X+027294Y+089245
X+016352Y+089245G85X+016437Y+089245
X+021844Y+089245
X+026151Y+053685
X+015209Y+053685G85X+015294Y+053685
X+020701Y+053685
X+026151Y+005523
X+015209Y+005523G85X+015294Y+005523
X+020701Y+005523
X+027294Y+041083
X+016352Y+041083G85X+016437Y+041083
X+021844Y+041083
T06
X+003683Y+077942
X+003937Y+089118
X+071755Y+091277
X+070993Y+073751
X+071374Y+053685
X+071374Y+005523
X+070993Y+025589
X+071755Y+043115
X+003937Y+040956
X+003683Y+029780
M30
