G04 Layer: TopLayer*
G04 EasyEDA v6.3.43, 2020-06-01T19:13:48+08:00*
G04 e22e4845dbe6470894a8ffcda582c5b6,45e1048b23574a55a66a4e5d38cdb7dd,10*
G04 Gerber Generator version 0.2*
G04 Scale: 100 percent, Rotated: No, Reflected: No *
G04 Dimensions in millimeters *
G04 leading zeros omitted , absolute positions ,3 integer and 3 decimal *
%FSLAX33Y33*%
%MOMM*%
G90*
G71D02*

%ADD12C,2.540000*%
%ADD13C,1.905000*%
%ADD14C,2.299995*%
%ADD15C,5.999988*%
%ADD16C,2.899994*%
%ADD17R,2.899994X2.899994*%
%ADD18C,1.799996*%
%ADD19C,1.999996*%
%ADD20C,1.699997*%

%LPD*%
G36*
G01X75968Y95719D02*
G01X358Y95719D01*
G01X343Y95718D01*
G01X329Y95715D01*
G01X315Y95710D01*
G01X303Y95703D01*
G01X291Y95695D01*
G01X281Y95684D01*
G01X272Y95673D01*
G01X265Y95660D01*
G01X260Y95646D01*
G01X257Y95632D01*
G01X256Y95618D01*
G01X256Y79333D01*
G01X257Y79319D01*
G01X260Y79305D01*
G01X265Y79291D01*
G01X272Y79278D01*
G01X281Y79267D01*
G01X291Y79257D01*
G01X303Y79248D01*
G01X315Y79241D01*
G01X329Y79236D01*
G01X343Y79233D01*
G01X358Y79232D01*
G01X372Y79233D01*
G01X387Y79236D01*
G01X401Y79241D01*
G01X414Y79249D01*
G01X426Y79258D01*
G01X436Y79269D01*
G01X445Y79281D01*
G01X451Y79294D01*
G01X486Y79373D01*
G01X521Y79451D01*
G01X559Y79527D01*
G01X599Y79604D01*
G01X641Y79678D01*
G01X684Y79752D01*
G01X729Y79825D01*
G01X776Y79897D01*
G01X825Y79967D01*
G01X875Y80036D01*
G01X927Y80104D01*
G01X981Y80172D01*
G01X1036Y80237D01*
G01X1093Y80301D01*
G01X1152Y80364D01*
G01X1212Y80425D01*
G01X1273Y80484D01*
G01X1336Y80542D01*
G01X1401Y80599D01*
G01X1466Y80654D01*
G01X1533Y80707D01*
G01X1602Y80759D01*
G01X1671Y80810D01*
G01X1742Y80858D01*
G01X1814Y80905D01*
G01X1887Y80949D01*
G01X1961Y80992D01*
G01X2036Y81034D01*
G01X2112Y81073D01*
G01X2189Y81110D01*
G01X2267Y81146D01*
G01X2346Y81179D01*
G01X2426Y81211D01*
G01X2506Y81241D01*
G01X2587Y81269D01*
G01X2669Y81295D01*
G01X2751Y81319D01*
G01X2834Y81340D01*
G01X2917Y81360D01*
G01X3001Y81378D01*
G01X3086Y81393D01*
G01X3170Y81407D01*
G01X3255Y81418D01*
G01X3340Y81428D01*
G01X3425Y81435D01*
G01X3511Y81441D01*
G01X3597Y81444D01*
G01X3683Y81445D01*
G01X3767Y81444D01*
G01X3852Y81441D01*
G01X3936Y81435D01*
G01X4020Y81428D01*
G01X4105Y81419D01*
G01X4188Y81408D01*
G01X4272Y81395D01*
G01X4356Y81380D01*
G01X4438Y81362D01*
G01X4521Y81343D01*
G01X4602Y81322D01*
G01X4684Y81298D01*
G01X4765Y81273D01*
G01X4845Y81246D01*
G01X4925Y81217D01*
G01X5003Y81186D01*
G01X5082Y81153D01*
G01X5159Y81118D01*
G01X5235Y81082D01*
G01X5310Y81043D01*
G01X5385Y81003D01*
G01X5458Y80961D01*
G01X5531Y80917D01*
G01X5602Y80872D01*
G01X5672Y80824D01*
G01X5741Y80776D01*
G01X5809Y80725D01*
G01X5876Y80673D01*
G01X5941Y80619D01*
G01X6005Y80564D01*
G01X6068Y80507D01*
G01X6129Y80448D01*
G01X6189Y80388D01*
G01X6247Y80328D01*
G01X6304Y80265D01*
G01X6360Y80201D01*
G01X6414Y80135D01*
G01X6466Y80068D01*
G01X6516Y80001D01*
G01X6565Y79932D01*
G01X6612Y79862D01*
G01X6658Y79790D01*
G01X6702Y79717D01*
G01X6744Y79644D01*
G01X6784Y79570D01*
G01X6822Y79494D01*
G01X6859Y79418D01*
G01X6894Y79341D01*
G01X6927Y79263D01*
G01X6958Y79184D01*
G01X6987Y79105D01*
G01X7014Y79024D01*
G01X7039Y78944D01*
G01X7062Y78862D01*
G01X7084Y78780D01*
G01X7103Y78698D01*
G01X7120Y78615D01*
G01X7135Y78532D01*
G01X7149Y78448D01*
G01X7160Y78364D01*
G01X7169Y78280D01*
G01X7176Y78195D01*
G01X7181Y78111D01*
G01X7184Y78027D01*
G01X7185Y77942D01*
G01X7184Y77857D01*
G01X7181Y77773D01*
G01X7176Y77688D01*
G01X7169Y77604D01*
G01X7160Y77520D01*
G01X7149Y77436D01*
G01X7135Y77352D01*
G01X7120Y77269D01*
G01X7103Y77186D01*
G01X7084Y77104D01*
G01X7062Y77022D01*
G01X7039Y76940D01*
G01X7014Y76859D01*
G01X6987Y76779D01*
G01X6958Y76700D01*
G01X6927Y76621D01*
G01X6894Y76543D01*
G01X6859Y76466D01*
G01X6822Y76389D01*
G01X6784Y76314D01*
G01X6744Y76240D01*
G01X6702Y76166D01*
G01X6658Y76094D01*
G01X6612Y76022D01*
G01X6565Y75952D01*
G01X6516Y75883D01*
G01X6466Y75815D01*
G01X6414Y75748D01*
G01X6360Y75683D01*
G01X6304Y75619D01*
G01X6247Y75556D01*
G01X6189Y75495D01*
G01X6129Y75435D01*
G01X6068Y75377D01*
G01X6005Y75320D01*
G01X5941Y75265D01*
G01X5876Y75211D01*
G01X5809Y75159D01*
G01X5741Y75108D01*
G01X5672Y75060D01*
G01X5602Y75012D01*
G01X5531Y74967D01*
G01X5458Y74923D01*
G01X5385Y74881D01*
G01X5310Y74841D01*
G01X5235Y74802D01*
G01X5159Y74765D01*
G01X5082Y74731D01*
G01X5003Y74698D01*
G01X4925Y74667D01*
G01X4845Y74638D01*
G01X4765Y74610D01*
G01X4684Y74586D01*
G01X4602Y74562D01*
G01X4521Y74541D01*
G01X4438Y74522D01*
G01X4356Y74504D01*
G01X4272Y74489D01*
G01X4188Y74476D01*
G01X4105Y74465D01*
G01X4020Y74456D01*
G01X3936Y74448D01*
G01X3852Y74443D01*
G01X3767Y74440D01*
G01X3683Y74439D01*
G01X3597Y74440D01*
G01X3511Y74443D01*
G01X3425Y74449D01*
G01X3340Y74456D01*
G01X3255Y74466D01*
G01X3170Y74477D01*
G01X3086Y74491D01*
G01X3001Y74506D01*
G01X2917Y74524D01*
G01X2834Y74543D01*
G01X2751Y74565D01*
G01X2669Y74589D01*
G01X2587Y74615D01*
G01X2506Y74643D01*
G01X2426Y74672D01*
G01X2346Y74704D01*
G01X2267Y74738D01*
G01X2189Y74774D01*
G01X2112Y74811D01*
G01X2036Y74850D01*
G01X1961Y74891D01*
G01X1887Y74935D01*
G01X1814Y74979D01*
G01X1742Y75026D01*
G01X1671Y75074D01*
G01X1533Y75176D01*
G01X1466Y75230D01*
G01X1401Y75285D01*
G01X1336Y75341D01*
G01X1273Y75399D01*
G01X1212Y75459D01*
G01X1152Y75520D01*
G01X1093Y75583D01*
G01X1036Y75647D01*
G01X981Y75712D01*
G01X927Y75779D01*
G01X875Y75847D01*
G01X825Y75917D01*
G01X776Y75987D01*
G01X729Y76059D01*
G01X684Y76131D01*
G01X641Y76206D01*
G01X599Y76280D01*
G01X559Y76356D01*
G01X521Y76433D01*
G01X486Y76511D01*
G01X451Y76590D01*
G01X445Y76603D01*
G01X436Y76615D01*
G01X426Y76626D01*
G01X414Y76635D01*
G01X401Y76642D01*
G01X387Y76648D01*
G01X372Y76651D01*
G01X358Y76652D01*
G01X343Y76651D01*
G01X329Y76648D01*
G01X315Y76643D01*
G01X303Y76636D01*
G01X291Y76627D01*
G01X281Y76617D01*
G01X272Y76605D01*
G01X265Y76593D01*
G01X260Y76579D01*
G01X257Y76565D01*
G01X256Y76551D01*
G01X256Y48582D01*
G01X257Y48568D01*
G01X260Y48554D01*
G01X265Y48540D01*
G01X272Y48527D01*
G01X281Y48516D01*
G01X291Y48505D01*
G01X303Y48497D01*
G01X315Y48490D01*
G01X329Y48485D01*
G01X343Y48481D01*
G01X358Y48480D01*
G01X5207Y48480D01*
G01X17856Y48470D01*
G01X17870Y48471D01*
G01X17884Y48474D01*
G01X17898Y48479D01*
G01X17911Y48487D01*
G01X17922Y48495D01*
G01X17932Y48505D01*
G01X17941Y48517D01*
G01X17948Y48530D01*
G01X17953Y48543D01*
G01X17956Y48558D01*
G01X17957Y48572D01*
G01X17956Y48588D01*
G01X17952Y48604D01*
G01X17946Y48619D01*
G01X17937Y48632D01*
G01X17927Y48645D01*
G01X17914Y48655D01*
G01X17900Y48663D01*
G01X17842Y48693D01*
G01X17786Y48725D01*
G01X17730Y48759D01*
G01X17675Y48794D01*
G01X17571Y48872D01*
G01X17520Y48914D01*
G01X17472Y48957D01*
G01X17425Y49003D01*
G01X14725Y51703D01*
G01X14713Y51713D01*
G01X14699Y51721D01*
G01X14685Y51727D01*
G01X14669Y51731D01*
G01X14653Y51732D01*
G01X13803Y51732D01*
G01X13770Y51733D01*
G01X13737Y51737D01*
G01X13705Y51742D01*
G01X13673Y51749D01*
G01X13641Y51759D01*
G01X13610Y51770D01*
G01X13580Y51784D01*
G01X13551Y51800D01*
G01X13523Y51817D01*
G01X13497Y51836D01*
G01X13471Y51857D01*
G01X13447Y51880D01*
G01X13425Y51903D01*
G01X13404Y51929D01*
G01X13385Y51956D01*
G01X13368Y51984D01*
G01X13352Y52013D01*
G01X13339Y52043D01*
G01X13327Y52074D01*
G01X13317Y52105D01*
G01X13310Y52137D01*
G01X13305Y52169D01*
G01X13301Y52202D01*
G01X13300Y52235D01*
G01X13300Y55135D01*
G01X13301Y55168D01*
G01X13305Y55201D01*
G01X13310Y55233D01*
G01X13317Y55265D01*
G01X13327Y55296D01*
G01X13339Y55327D01*
G01X13352Y55357D01*
G01X13368Y55386D01*
G01X13385Y55414D01*
G01X13404Y55441D01*
G01X13425Y55466D01*
G01X13447Y55490D01*
G01X13471Y55513D01*
G01X13497Y55534D01*
G01X13523Y55553D01*
G01X13551Y55570D01*
G01X13580Y55586D01*
G01X13610Y55600D01*
G01X13641Y55611D01*
G01X13673Y55620D01*
G01X13705Y55628D01*
G01X13737Y55633D01*
G01X13770Y55637D01*
G01X13803Y55638D01*
G01X13937Y55638D01*
G01X13951Y55639D01*
G01X13965Y55642D01*
G01X13979Y55647D01*
G01X13992Y55654D01*
G01X14003Y55663D01*
G01X14014Y55673D01*
G01X14022Y55684D01*
G01X14029Y55697D01*
G01X14034Y55711D01*
G01X14037Y55725D01*
G01X14038Y55739D01*
G01X14039Y59654D01*
G01X14039Y62097D01*
G01X14038Y62112D01*
G01X14035Y62126D01*
G01X14029Y62140D01*
G01X14023Y62153D01*
G01X14014Y62164D01*
G01X14004Y62175D01*
G01X13992Y62183D01*
G01X13980Y62190D01*
G01X13966Y62195D01*
G01X13952Y62198D01*
G01X13937Y62199D01*
G01X10033Y62200D01*
G01X9972Y62201D01*
G01X9912Y62204D01*
G01X9851Y62209D01*
G01X9791Y62216D01*
G01X9731Y62225D01*
G01X9672Y62236D01*
G01X9613Y62250D01*
G01X9554Y62265D01*
G01X9496Y62282D01*
G01X9439Y62302D01*
G01X9382Y62323D01*
G01X9326Y62346D01*
G01X9271Y62371D01*
G01X9217Y62398D01*
G01X9164Y62427D01*
G01X9111Y62458D01*
G01X9060Y62490D01*
G01X9010Y62524D01*
G01X8962Y62560D01*
G01X8914Y62597D01*
G01X8868Y62636D01*
G01X8822Y62677D01*
G01X8779Y62719D01*
G01X8271Y63227D01*
G01X8229Y63270D01*
G01X8188Y63315D01*
G01X8149Y63361D01*
G01X8112Y63409D01*
G01X8076Y63458D01*
G01X8042Y63508D01*
G01X8010Y63559D01*
G01X7979Y63611D01*
G01X7951Y63665D01*
G01X7924Y63718D01*
G01X7898Y63774D01*
G01X7854Y63886D01*
G01X7835Y63943D01*
G01X7818Y64002D01*
G01X7802Y64060D01*
G01X7789Y64119D01*
G01X7777Y64179D01*
G01X7768Y64239D01*
G01X7761Y64299D01*
G01X7756Y64359D01*
G01X7753Y64419D01*
G01X7752Y64480D01*
G01X7752Y67627D01*
G01X7753Y67687D01*
G01X7756Y67748D01*
G01X7761Y67808D01*
G01X7768Y67868D01*
G01X7777Y67928D01*
G01X7789Y67988D01*
G01X7802Y68047D01*
G01X7818Y68105D01*
G01X7835Y68163D01*
G01X7854Y68221D01*
G01X7898Y68333D01*
G01X7924Y68388D01*
G01X7951Y68442D01*
G01X7979Y68496D01*
G01X8010Y68548D01*
G01X8042Y68599D01*
G01X8076Y68649D01*
G01X8112Y68698D01*
G01X8149Y68746D01*
G01X8188Y68792D01*
G01X8229Y68837D01*
G01X8271Y68880D01*
G01X10077Y70686D01*
G01X10120Y70728D01*
G01X10166Y70769D01*
G01X10212Y70808D01*
G01X10260Y70845D01*
G01X10308Y70881D01*
G01X10358Y70915D01*
G01X10409Y70947D01*
G01X10462Y70978D01*
G01X10515Y71007D01*
G01X10569Y71034D01*
G01X10624Y71059D01*
G01X10680Y71082D01*
G01X10737Y71103D01*
G01X10794Y71123D01*
G01X10852Y71140D01*
G01X10911Y71155D01*
G01X10970Y71169D01*
G01X11029Y71180D01*
G01X11089Y71189D01*
G01X11149Y71196D01*
G01X11210Y71201D01*
G01X11270Y71204D01*
G01X11330Y71205D01*
G01X11391Y71204D01*
G01X11451Y71201D01*
G01X11512Y71196D01*
G01X11572Y71189D01*
G01X11632Y71180D01*
G01X11691Y71169D01*
G01X11750Y71155D01*
G01X11808Y71140D01*
G01X11867Y71123D01*
G01X11924Y71103D01*
G01X11981Y71082D01*
G01X12037Y71059D01*
G01X12092Y71034D01*
G01X12146Y71007D01*
G01X12199Y70978D01*
G01X12251Y70947D01*
G01X12303Y70915D01*
G01X12353Y70881D01*
G01X12401Y70845D01*
G01X12449Y70808D01*
G01X12495Y70769D01*
G01X12540Y70728D01*
G01X12584Y70686D01*
G01X12626Y70643D01*
G01X12666Y70598D01*
G01X12706Y70552D01*
G01X12743Y70504D01*
G01X12779Y70455D01*
G01X12813Y70405D01*
G01X12845Y70354D01*
G01X12876Y70302D01*
G01X12904Y70248D01*
G01X12931Y70194D01*
G01X12957Y70139D01*
G01X13001Y70027D01*
G01X13020Y69969D01*
G01X13037Y69911D01*
G01X13053Y69853D01*
G01X13066Y69794D01*
G01X13077Y69734D01*
G01X13087Y69674D01*
G01X13094Y69614D01*
G01X13099Y69554D01*
G01X13102Y69493D01*
G01X13103Y69433D01*
G01X13102Y69372D01*
G01X13099Y69312D01*
G01X13094Y69252D01*
G01X13087Y69192D01*
G01X13077Y69132D01*
G01X13066Y69072D01*
G01X13053Y69013D01*
G01X13037Y68955D01*
G01X13020Y68896D01*
G01X13001Y68839D01*
G01X12957Y68727D01*
G01X12931Y68671D01*
G01X12904Y68618D01*
G01X12876Y68564D01*
G01X12845Y68512D01*
G01X12813Y68461D01*
G01X12779Y68411D01*
G01X12743Y68362D01*
G01X12706Y68314D01*
G01X12666Y68268D01*
G01X12626Y68223D01*
G01X12584Y68180D01*
G01X11327Y66922D01*
G01X11317Y66910D01*
G01X11308Y66897D01*
G01X11302Y66882D01*
G01X11298Y66867D01*
G01X11297Y66851D01*
G01X11297Y65846D01*
G01X11298Y65832D01*
G01X11301Y65818D01*
G01X11307Y65804D01*
G01X11313Y65791D01*
G01X11322Y65780D01*
G01X11332Y65769D01*
G01X11344Y65761D01*
G01X11356Y65754D01*
G01X11370Y65749D01*
G01X11384Y65746D01*
G01X11399Y65744D01*
G01X15842Y65744D01*
G01X15903Y65743D01*
G01X15963Y65740D01*
G01X16024Y65735D01*
G01X16084Y65728D01*
G01X16144Y65719D01*
G01X16203Y65708D01*
G01X16262Y65694D01*
G01X16321Y65679D01*
G01X16379Y65662D01*
G01X16436Y65642D01*
G01X16493Y65621D01*
G01X16549Y65598D01*
G01X16604Y65573D01*
G01X16658Y65546D01*
G01X16711Y65517D01*
G01X16764Y65486D01*
G01X16815Y65454D01*
G01X16865Y65420D01*
G01X16913Y65384D01*
G01X16961Y65347D01*
G01X17007Y65308D01*
G01X17053Y65267D01*
G01X17096Y65225D01*
G01X17138Y65182D01*
G01X17179Y65137D01*
G01X17218Y65091D01*
G01X17255Y65043D01*
G01X17291Y64994D01*
G01X17325Y64944D01*
G01X17357Y64893D01*
G01X17388Y64841D01*
G01X17416Y64787D01*
G01X17443Y64733D01*
G01X17469Y64678D01*
G01X17513Y64566D01*
G01X17532Y64508D01*
G01X17549Y64450D01*
G01X17565Y64392D01*
G01X17578Y64333D01*
G01X17590Y64273D01*
G01X17599Y64213D01*
G01X17606Y64153D01*
G01X17611Y64093D01*
G01X17614Y64032D01*
G01X17615Y63972D01*
G01X17614Y63907D01*
G01X17610Y63843D01*
G01X17605Y63779D01*
G01X17597Y63714D01*
G01X17586Y63651D01*
G01X17584Y63633D01*
G01X17584Y53900D01*
G01X17585Y53884D01*
G01X17588Y53868D01*
G01X17595Y53854D01*
G01X17603Y53840D01*
G01X17613Y53828D01*
G01X18842Y52600D01*
G01X18854Y52590D01*
G01X18867Y52581D01*
G01X18882Y52575D01*
G01X18898Y52571D01*
G01X18913Y52570D01*
G01X18928Y52571D01*
G01X18942Y52574D01*
G01X18956Y52580D01*
G01X18968Y52586D01*
G01X18980Y52595D01*
G01X18990Y52605D01*
G01X18999Y52617D01*
G01X19006Y52629D01*
G01X19011Y52643D01*
G01X19014Y52657D01*
G01X19015Y52671D01*
G01X19013Y52689D01*
G01X19009Y52706D01*
G01X19002Y52722D01*
G01X18970Y52781D01*
G01X18940Y52841D01*
G01X18912Y52902D01*
G01X18886Y52964D01*
G01X18862Y53027D01*
G01X18841Y53090D01*
G01X18821Y53155D01*
G01X18804Y53220D01*
G01X18789Y53285D01*
G01X18777Y53351D01*
G01X18766Y53417D01*
G01X18758Y53484D01*
G01X18752Y53551D01*
G01X18749Y53618D01*
G01X18748Y53685D01*
G01X18749Y53749D01*
G01X18752Y53812D01*
G01X18757Y53876D01*
G01X18765Y53940D01*
G01X18774Y54003D01*
G01X18785Y54066D01*
G01X18799Y54128D01*
G01X18814Y54190D01*
G01X18832Y54252D01*
G01X18851Y54313D01*
G01X18873Y54373D01*
G01X18897Y54432D01*
G01X18922Y54491D01*
G01X18949Y54549D01*
G01X18978Y54605D01*
G01X19009Y54661D01*
G01X19042Y54716D01*
G01X19077Y54770D01*
G01X19151Y54874D01*
G01X19191Y54923D01*
G01X19232Y54972D01*
G01X19276Y55020D01*
G01X19320Y55066D01*
G01X19365Y55110D01*
G01X19413Y55153D01*
G01X19462Y55194D01*
G01X19512Y55234D01*
G01X19563Y55272D01*
G01X19615Y55309D01*
G01X19669Y55343D01*
G01X19724Y55376D01*
G01X19780Y55407D01*
G01X19837Y55436D01*
G01X19895Y55463D01*
G01X19953Y55489D01*
G01X20013Y55512D01*
G01X20073Y55534D01*
G01X20134Y55553D01*
G01X20195Y55571D01*
G01X20257Y55586D01*
G01X20320Y55600D01*
G01X20382Y55611D01*
G01X20445Y55621D01*
G01X20509Y55628D01*
G01X20573Y55634D01*
G01X20636Y55637D01*
G01X20701Y55638D01*
G01X20765Y55637D01*
G01X20828Y55634D01*
G01X20892Y55628D01*
G01X20956Y55621D01*
G01X21019Y55611D01*
G01X21082Y55600D01*
G01X21144Y55586D01*
G01X21206Y55571D01*
G01X21267Y55553D01*
G01X21328Y55534D01*
G01X21388Y55512D01*
G01X21448Y55489D01*
G01X21506Y55463D01*
G01X21564Y55436D01*
G01X21621Y55407D01*
G01X21677Y55376D01*
G01X21732Y55343D01*
G01X21786Y55309D01*
G01X21838Y55272D01*
G01X21889Y55234D01*
G01X21939Y55194D01*
G01X21988Y55153D01*
G01X22036Y55110D01*
G01X22081Y55066D01*
G01X22125Y55020D01*
G01X22169Y54972D01*
G01X22210Y54923D01*
G01X22250Y54874D01*
G01X22324Y54770D01*
G01X22359Y54716D01*
G01X22392Y54661D01*
G01X22423Y54605D01*
G01X22452Y54549D01*
G01X22479Y54491D01*
G01X22504Y54432D01*
G01X22528Y54373D01*
G01X22550Y54313D01*
G01X22569Y54252D01*
G01X22587Y54190D01*
G01X22602Y54128D01*
G01X22616Y54066D01*
G01X22627Y54003D01*
G01X22636Y53940D01*
G01X22644Y53876D01*
G01X22649Y53812D01*
G01X22652Y53749D01*
G01X22653Y53685D01*
G01X22652Y53620D01*
G01X22649Y53556D01*
G01X22644Y53492D01*
G01X22636Y53428D01*
G01X22627Y53364D01*
G01X22615Y53300D01*
G01X22601Y53237D01*
G01X22586Y53175D01*
G01X22567Y53113D01*
G01X22548Y53052D01*
G01X22526Y52991D01*
G01X22502Y52932D01*
G01X22476Y52872D01*
G01X22448Y52814D01*
G01X22419Y52757D01*
G01X22387Y52701D01*
G01X22354Y52646D01*
G01X22318Y52592D01*
G01X22281Y52539D01*
G01X22243Y52487D01*
G01X22202Y52437D01*
G01X22160Y52388D01*
G01X22117Y52341D01*
G01X22072Y52295D01*
G01X22025Y52250D01*
G01X21977Y52207D01*
G01X21966Y52197D01*
G01X21958Y52185D01*
G01X21951Y52173D01*
G01X21946Y52159D01*
G01X21943Y52145D01*
G01X21942Y52130D01*
G01X21943Y52116D01*
G01X21946Y52102D01*
G01X21951Y52088D01*
G01X21958Y52075D01*
G01X21966Y52064D01*
G01X21977Y52053D01*
G01X21988Y52045D01*
G01X22001Y52038D01*
G01X22015Y52033D01*
G01X22029Y52030D01*
G01X22043Y52028D01*
G01X35046Y52028D01*
G01X35062Y52030D01*
G01X35077Y52033D01*
G01X35092Y52040D01*
G01X35106Y52048D01*
G01X35118Y52058D01*
G01X35128Y52071D01*
G01X35137Y52084D01*
G01X35143Y52099D01*
G01X35162Y52156D01*
G01X35184Y52212D01*
G01X35207Y52268D01*
G01X35232Y52322D01*
G01X35259Y52376D01*
G01X35288Y52430D01*
G01X35319Y52481D01*
G01X35351Y52532D01*
G01X35385Y52582D01*
G01X35421Y52630D01*
G01X35458Y52678D01*
G01X35498Y52724D01*
G01X35538Y52768D01*
G01X35580Y52811D01*
G01X35624Y52853D01*
G01X35669Y52893D01*
G01X35714Y52932D01*
G01X35762Y52969D01*
G01X35811Y53005D01*
G01X35861Y53038D01*
G01X35912Y53071D01*
G01X35964Y53101D01*
G01X36017Y53129D01*
G01X36071Y53156D01*
G01X36126Y53181D01*
G01X36182Y53204D01*
G01X36238Y53225D01*
G01X36296Y53244D01*
G01X36353Y53261D01*
G01X36411Y53277D01*
G01X36470Y53290D01*
G01X36530Y53301D01*
G01X36589Y53310D01*
G01X36649Y53317D01*
G01X36709Y53322D01*
G01X36769Y53325D01*
G01X36830Y53326D01*
G01X36890Y53325D01*
G01X36950Y53322D01*
G01X37011Y53317D01*
G01X37071Y53310D01*
G01X37131Y53301D01*
G01X37190Y53290D01*
G01X37249Y53276D01*
G01X37308Y53261D01*
G01X37366Y53243D01*
G01X37423Y53224D01*
G01X37480Y53203D01*
G01X37536Y53180D01*
G01X37591Y53155D01*
G01X37645Y53128D01*
G01X37698Y53099D01*
G01X37751Y53068D01*
G01X37802Y53036D01*
G01X37852Y53002D01*
G01X37900Y52966D01*
G01X37948Y52929D01*
G01X37994Y52890D01*
G01X38040Y52849D01*
G01X38083Y52807D01*
G01X38125Y52764D01*
G01X38166Y52719D01*
G01X38205Y52672D01*
G01X38242Y52625D01*
G01X38278Y52576D01*
G01X38312Y52526D01*
G01X38344Y52475D01*
G01X38375Y52423D01*
G01X38403Y52369D01*
G01X38430Y52315D01*
G01X38456Y52260D01*
G01X38500Y52148D01*
G01X38519Y52090D01*
G01X38536Y52032D01*
G01X38552Y51973D01*
G01X38565Y51915D01*
G01X38577Y51855D01*
G01X38586Y51795D01*
G01X38593Y51735D01*
G01X38598Y51675D01*
G01X38601Y51614D01*
G01X38602Y51554D01*
G01X38602Y50256D01*
G01X38601Y50195D01*
G01X38598Y50134D01*
G01X38593Y50073D01*
G01X38585Y50013D01*
G01X38576Y49952D01*
G01X38564Y49893D01*
G01X38551Y49833D01*
G01X38535Y49774D01*
G01X38518Y49715D01*
G01X38498Y49658D01*
G01X38476Y49601D01*
G01X38453Y49545D01*
G01X38428Y49489D01*
G01X38400Y49435D01*
G01X38371Y49381D01*
G01X38340Y49328D01*
G01X38307Y49277D01*
G01X38273Y49227D01*
G01X38237Y49177D01*
G01X38199Y49130D01*
G01X38159Y49083D01*
G01X38118Y49038D01*
G01X38075Y48995D01*
G01X38031Y48953D01*
G01X37986Y48912D01*
G01X37938Y48873D01*
G01X37890Y48836D01*
G01X37841Y48800D01*
G01X37790Y48766D01*
G01X37738Y48734D01*
G01X37685Y48703D01*
G01X37632Y48675D01*
G01X37577Y48649D01*
G01X37564Y48642D01*
G01X37552Y48633D01*
G01X37542Y48623D01*
G01X37534Y48611D01*
G01X37527Y48598D01*
G01X37522Y48585D01*
G01X37519Y48571D01*
G01X37518Y48556D01*
G01X37519Y48542D01*
G01X37522Y48528D01*
G01X37527Y48514D01*
G01X37534Y48501D01*
G01X37543Y48490D01*
G01X37553Y48479D01*
G01X37565Y48471D01*
G01X37577Y48464D01*
G01X37591Y48459D01*
G01X37605Y48456D01*
G01X37619Y48455D01*
G01X60328Y48437D01*
G01X60343Y48438D01*
G01X60358Y48441D01*
G01X60371Y48446D01*
G01X60384Y48453D01*
G01X60396Y48462D01*
G01X60406Y48473D01*
G01X60414Y48485D01*
G01X60422Y48498D01*
G01X60441Y48540D01*
G01X60463Y48581D01*
G01X60486Y48621D01*
G01X60511Y48660D01*
G01X60538Y48698D01*
G01X60567Y48734D01*
G01X60597Y48770D01*
G01X60629Y48804D01*
G01X60663Y48836D01*
G01X60698Y48867D01*
G01X60734Y48896D01*
G01X60772Y48923D01*
G01X60811Y48948D01*
G01X60851Y48972D01*
G01X60892Y48994D01*
G01X60934Y49013D01*
G01X60977Y49031D01*
G01X61020Y49047D01*
G01X61065Y49061D01*
G01X61110Y49073D01*
G01X61156Y49082D01*
G01X61201Y49090D01*
G01X61248Y49095D01*
G01X61294Y49099D01*
G01X61341Y49100D01*
G01X61386Y49099D01*
G01X61431Y49096D01*
G01X61476Y49091D01*
G01X61521Y49083D01*
G01X61566Y49074D01*
G01X61609Y49063D01*
G01X61653Y49050D01*
G01X61696Y49035D01*
G01X61737Y49017D01*
G01X61779Y48999D01*
G01X61819Y48978D01*
G01X61858Y48955D01*
G01X61897Y48931D01*
G01X61934Y48905D01*
G01X61970Y48878D01*
G01X62004Y48848D01*
G01X62037Y48817D01*
G01X62069Y48785D01*
G01X62100Y48752D01*
G01X62129Y48717D01*
G01X62156Y48680D01*
G01X62182Y48643D01*
G01X62205Y48604D01*
G01X62214Y48592D01*
G01X62224Y48581D01*
G01X62236Y48571D01*
G01X62249Y48564D01*
G01X62263Y48559D01*
G01X62278Y48555D01*
G01X62293Y48554D01*
G01X62308Y48555D01*
G01X62323Y48559D01*
G01X62337Y48564D01*
G01X62350Y48571D01*
G01X62362Y48581D01*
G01X62372Y48592D01*
G01X62381Y48604D01*
G01X62404Y48643D01*
G01X62430Y48680D01*
G01X62457Y48717D01*
G01X62486Y48752D01*
G01X62517Y48785D01*
G01X62549Y48817D01*
G01X62582Y48848D01*
G01X62616Y48878D01*
G01X62652Y48905D01*
G01X62689Y48931D01*
G01X62728Y48955D01*
G01X62767Y48978D01*
G01X62807Y48999D01*
G01X62849Y49017D01*
G01X62890Y49035D01*
G01X62933Y49050D01*
G01X62977Y49063D01*
G01X63020Y49074D01*
G01X63065Y49083D01*
G01X63110Y49091D01*
G01X63155Y49096D01*
G01X63200Y49099D01*
G01X63246Y49100D01*
G01X63291Y49099D01*
G01X63336Y49096D01*
G01X63381Y49091D01*
G01X63426Y49083D01*
G01X63471Y49074D01*
G01X63514Y49063D01*
G01X63558Y49050D01*
G01X63601Y49035D01*
G01X63642Y49017D01*
G01X63684Y48999D01*
G01X63724Y48978D01*
G01X63763Y48955D01*
G01X63802Y48931D01*
G01X63839Y48905D01*
G01X63875Y48878D01*
G01X63909Y48848D01*
G01X63942Y48817D01*
G01X63974Y48785D01*
G01X64005Y48752D01*
G01X64034Y48717D01*
G01X64061Y48680D01*
G01X64087Y48643D01*
G01X64110Y48604D01*
G01X64119Y48592D01*
G01X64129Y48581D01*
G01X64141Y48571D01*
G01X64154Y48564D01*
G01X64168Y48559D01*
G01X64183Y48555D01*
G01X64198Y48554D01*
G01X64213Y48555D01*
G01X64228Y48559D01*
G01X64242Y48564D01*
G01X64255Y48571D01*
G01X64267Y48581D01*
G01X64277Y48592D01*
G01X64286Y48604D01*
G01X64309Y48643D01*
G01X64335Y48680D01*
G01X64362Y48717D01*
G01X64391Y48752D01*
G01X64422Y48785D01*
G01X64454Y48817D01*
G01X64487Y48848D01*
G01X64521Y48878D01*
G01X64557Y48905D01*
G01X64594Y48931D01*
G01X64633Y48955D01*
G01X64672Y48978D01*
G01X64712Y48999D01*
G01X64754Y49017D01*
G01X64795Y49035D01*
G01X64838Y49050D01*
G01X64882Y49063D01*
G01X64925Y49074D01*
G01X64970Y49083D01*
G01X65015Y49091D01*
G01X65060Y49096D01*
G01X65105Y49099D01*
G01X65151Y49100D01*
G01X65197Y49099D01*
G01X65244Y49095D01*
G01X65291Y49090D01*
G01X65337Y49082D01*
G01X65383Y49072D01*
G01X65428Y49061D01*
G01X65473Y49046D01*
G01X65517Y49030D01*
G01X65560Y49012D01*
G01X65602Y48992D01*
G01X65643Y48970D01*
G01X65684Y48946D01*
G01X65723Y48920D01*
G01X65761Y48892D01*
G01X65797Y48863D01*
G01X65832Y48832D01*
G01X65866Y48800D01*
G01X65898Y48765D01*
G01X65928Y48730D01*
G01X65957Y48693D01*
G01X65984Y48654D01*
G01X66009Y48615D01*
G01X66032Y48574D01*
G01X66054Y48532D01*
G01X66073Y48490D01*
G01X66080Y48476D01*
G01X66088Y48465D01*
G01X66099Y48454D01*
G01X66111Y48445D01*
G01X66123Y48437D01*
G01X66137Y48432D01*
G01X66152Y48429D01*
G01X66167Y48428D01*
G01X66181Y48429D01*
G01X66196Y48432D01*
G01X66210Y48437D01*
G01X66222Y48445D01*
G01X66234Y48454D01*
G01X66245Y48465D01*
G01X66253Y48476D01*
G01X66260Y48490D01*
G01X66279Y48532D01*
G01X66301Y48574D01*
G01X66324Y48615D01*
G01X66349Y48654D01*
G01X66376Y48693D01*
G01X66405Y48730D01*
G01X66435Y48765D01*
G01X66467Y48800D01*
G01X66501Y48832D01*
G01X66536Y48863D01*
G01X66572Y48892D01*
G01X66610Y48920D01*
G01X66649Y48946D01*
G01X66690Y48970D01*
G01X66731Y48992D01*
G01X66773Y49012D01*
G01X66816Y49030D01*
G01X66860Y49046D01*
G01X66905Y49061D01*
G01X66950Y49072D01*
G01X66996Y49082D01*
G01X67042Y49090D01*
G01X67089Y49095D01*
G01X67136Y49099D01*
G01X67183Y49100D01*
G01X67228Y49099D01*
G01X67273Y49096D01*
G01X67318Y49091D01*
G01X67363Y49083D01*
G01X67408Y49074D01*
G01X67451Y49063D01*
G01X67495Y49050D01*
G01X67538Y49035D01*
G01X67579Y49017D01*
G01X67621Y48999D01*
G01X67661Y48978D01*
G01X67700Y48955D01*
G01X67739Y48931D01*
G01X67776Y48905D01*
G01X67812Y48878D01*
G01X67846Y48848D01*
G01X67879Y48817D01*
G01X67911Y48785D01*
G01X67942Y48752D01*
G01X67971Y48717D01*
G01X67998Y48680D01*
G01X68024Y48643D01*
G01X68047Y48604D01*
G01X68056Y48592D01*
G01X68066Y48581D01*
G01X68078Y48571D01*
G01X68091Y48564D01*
G01X68105Y48559D01*
G01X68120Y48555D01*
G01X68135Y48554D01*
G01X68150Y48555D01*
G01X68165Y48559D01*
G01X68179Y48564D01*
G01X68192Y48571D01*
G01X68204Y48581D01*
G01X68214Y48592D01*
G01X68223Y48604D01*
G01X68246Y48643D01*
G01X68272Y48680D01*
G01X68299Y48717D01*
G01X68328Y48752D01*
G01X68359Y48785D01*
G01X68391Y48817D01*
G01X68424Y48848D01*
G01X68458Y48878D01*
G01X68494Y48905D01*
G01X68531Y48931D01*
G01X68570Y48955D01*
G01X68609Y48978D01*
G01X68649Y48999D01*
G01X68691Y49017D01*
G01X68732Y49035D01*
G01X68775Y49050D01*
G01X68819Y49063D01*
G01X68862Y49074D01*
G01X68907Y49083D01*
G01X68952Y49091D01*
G01X68997Y49096D01*
G01X69042Y49099D01*
G01X69088Y49100D01*
G01X69134Y49099D01*
G01X69181Y49095D01*
G01X69228Y49090D01*
G01X69274Y49082D01*
G01X69320Y49072D01*
G01X69365Y49061D01*
G01X69410Y49046D01*
G01X69454Y49030D01*
G01X69497Y49012D01*
G01X69539Y48992D01*
G01X69580Y48970D01*
G01X69621Y48946D01*
G01X69660Y48920D01*
G01X69698Y48892D01*
G01X69734Y48863D01*
G01X69769Y48832D01*
G01X69803Y48800D01*
G01X69835Y48765D01*
G01X69865Y48730D01*
G01X69894Y48693D01*
G01X69921Y48654D01*
G01X69946Y48615D01*
G01X69969Y48574D01*
G01X69991Y48532D01*
G01X70010Y48490D01*
G01X70017Y48476D01*
G01X70025Y48465D01*
G01X70036Y48454D01*
G01X70048Y48445D01*
G01X70060Y48437D01*
G01X70074Y48432D01*
G01X70089Y48429D01*
G01X70104Y48428D01*
G01X70118Y48429D01*
G01X70133Y48432D01*
G01X70147Y48437D01*
G01X70159Y48445D01*
G01X70171Y48454D01*
G01X70182Y48465D01*
G01X70190Y48476D01*
G01X70197Y48490D01*
G01X70216Y48532D01*
G01X70238Y48574D01*
G01X70261Y48615D01*
G01X70286Y48654D01*
G01X70313Y48693D01*
G01X70342Y48730D01*
G01X70372Y48765D01*
G01X70404Y48800D01*
G01X70438Y48832D01*
G01X70473Y48863D01*
G01X70509Y48892D01*
G01X70547Y48920D01*
G01X70586Y48946D01*
G01X70627Y48970D01*
G01X70668Y48992D01*
G01X70710Y49012D01*
G01X70753Y49030D01*
G01X70797Y49046D01*
G01X70842Y49061D01*
G01X70887Y49072D01*
G01X70933Y49082D01*
G01X70979Y49090D01*
G01X71026Y49095D01*
G01X71073Y49099D01*
G01X71120Y49100D01*
G01X71165Y49099D01*
G01X71211Y49095D01*
G01X71257Y49090D01*
G01X71302Y49083D01*
G01X71347Y49073D01*
G01X71391Y49062D01*
G01X71435Y49048D01*
G01X71478Y49033D01*
G01X71521Y49016D01*
G01X71562Y48997D01*
G01X71603Y48975D01*
G01X71643Y48952D01*
G01X71681Y48928D01*
G01X71718Y48901D01*
G01X71755Y48873D01*
G01X71790Y48843D01*
G01X71823Y48811D01*
G01X71855Y48779D01*
G01X71886Y48744D01*
G01X71914Y48709D01*
G01X71941Y48671D01*
G01X71967Y48633D01*
G01X71990Y48594D01*
G01X72012Y48554D01*
G01X72032Y48512D01*
G01X72039Y48500D01*
G01X72048Y48488D01*
G01X72058Y48478D01*
G01X72069Y48469D01*
G01X72082Y48462D01*
G01X72096Y48457D01*
G01X72110Y48454D01*
G01X72124Y48453D01*
G01X72145Y48455D01*
G01X72187Y48469D01*
G01X72212Y48475D01*
G01X72237Y48479D01*
G01X72263Y48480D01*
G01X72290Y48479D01*
G01X72318Y48474D01*
G01X72344Y48467D01*
G01X72370Y48457D01*
G01X72384Y48452D01*
G01X72398Y48448D01*
G01X72413Y48447D01*
G01X72414Y48447D01*
G01X75969Y48477D01*
G01X75984Y48478D01*
G01X75998Y48482D01*
G01X76011Y48487D01*
G01X76024Y48494D01*
G01X76035Y48503D01*
G01X76046Y48513D01*
G01X76054Y48524D01*
G01X76061Y48537D01*
G01X76066Y48551D01*
G01X76069Y48565D01*
G01X76070Y48579D01*
G01X76070Y95618D01*
G01X76069Y95632D01*
G01X76066Y95646D01*
G01X76061Y95660D01*
G01X76054Y95673D01*
G01X76045Y95684D01*
G01X76035Y95695D01*
G01X76023Y95703D01*
G01X76011Y95710D01*
G01X75997Y95715D01*
G01X75983Y95718D01*
G01X75968Y95719D01*
G37*

%LPC*%
G36*
G01X71458Y57187D02*
G01X71374Y57188D01*
G01X71289Y57187D01*
G01X71204Y57184D01*
G01X71120Y57178D01*
G01X71036Y57171D01*
G01X70951Y57162D01*
G01X70868Y57151D01*
G01X70784Y57138D01*
G01X70700Y57123D01*
G01X70618Y57105D01*
G01X70535Y57086D01*
G01X70454Y57065D01*
G01X70372Y57041D01*
G01X70291Y57016D01*
G01X70211Y56989D01*
G01X70131Y56960D01*
G01X70053Y56929D01*
G01X69974Y56896D01*
G01X69897Y56861D01*
G01X69821Y56825D01*
G01X69746Y56786D01*
G01X69671Y56746D01*
G01X69598Y56704D01*
G01X69525Y56660D01*
G01X69454Y56615D01*
G01X69384Y56567D01*
G01X69315Y56519D01*
G01X69247Y56468D01*
G01X69180Y56416D01*
G01X69115Y56362D01*
G01X69051Y56307D01*
G01X68988Y56250D01*
G01X68927Y56191D01*
G01X68867Y56131D01*
G01X68809Y56071D01*
G01X68752Y56008D01*
G01X68696Y55944D01*
G01X68642Y55878D01*
G01X68590Y55811D01*
G01X68540Y55744D01*
G01X68491Y55675D01*
G01X68444Y55605D01*
G01X68398Y55533D01*
G01X68354Y55460D01*
G01X68312Y55387D01*
G01X68272Y55313D01*
G01X68234Y55237D01*
G01X68197Y55161D01*
G01X68162Y55084D01*
G01X68129Y55006D01*
G01X68098Y54927D01*
G01X68069Y54848D01*
G01X68042Y54767D01*
G01X68017Y54687D01*
G01X67994Y54605D01*
G01X67972Y54523D01*
G01X67953Y54441D01*
G01X67936Y54358D01*
G01X67921Y54275D01*
G01X67907Y54191D01*
G01X67896Y54107D01*
G01X67887Y54023D01*
G01X67880Y53938D01*
G01X67875Y53854D01*
G01X67872Y53770D01*
G01X67871Y53685D01*
G01X67872Y53600D01*
G01X67875Y53516D01*
G01X67880Y53431D01*
G01X67887Y53347D01*
G01X67896Y53263D01*
G01X67907Y53179D01*
G01X67921Y53095D01*
G01X67936Y53012D01*
G01X67953Y52929D01*
G01X67972Y52847D01*
G01X67994Y52765D01*
G01X68017Y52683D01*
G01X68042Y52602D01*
G01X68069Y52522D01*
G01X68098Y52443D01*
G01X68129Y52364D01*
G01X68162Y52286D01*
G01X68197Y52209D01*
G01X68234Y52132D01*
G01X68272Y52057D01*
G01X68312Y51983D01*
G01X68354Y51909D01*
G01X68398Y51837D01*
G01X68444Y51765D01*
G01X68491Y51695D01*
G01X68540Y51626D01*
G01X68590Y51558D01*
G01X68642Y51491D01*
G01X68696Y51426D01*
G01X68752Y51362D01*
G01X68809Y51299D01*
G01X68867Y51238D01*
G01X68927Y51178D01*
G01X68988Y51120D01*
G01X69051Y51063D01*
G01X69115Y51008D01*
G01X69180Y50954D01*
G01X69247Y50902D01*
G01X69315Y50851D01*
G01X69384Y50803D01*
G01X69454Y50755D01*
G01X69525Y50710D01*
G01X69598Y50666D01*
G01X69671Y50624D01*
G01X69746Y50584D01*
G01X69821Y50545D01*
G01X69897Y50508D01*
G01X69974Y50474D01*
G01X70053Y50441D01*
G01X70131Y50410D01*
G01X70211Y50381D01*
G01X70291Y50353D01*
G01X70372Y50329D01*
G01X70454Y50305D01*
G01X70535Y50284D01*
G01X70618Y50265D01*
G01X70700Y50247D01*
G01X70784Y50232D01*
G01X70868Y50219D01*
G01X70951Y50208D01*
G01X71036Y50199D01*
G01X71120Y50191D01*
G01X71204Y50186D01*
G01X71289Y50183D01*
G01X71374Y50182D01*
G01X71458Y50183D01*
G01X71543Y50186D01*
G01X71627Y50191D01*
G01X71711Y50199D01*
G01X71796Y50208D01*
G01X71879Y50219D01*
G01X71963Y50232D01*
G01X72047Y50247D01*
G01X72129Y50265D01*
G01X72212Y50284D01*
G01X72293Y50305D01*
G01X72375Y50329D01*
G01X72456Y50353D01*
G01X72536Y50381D01*
G01X72616Y50410D01*
G01X72694Y50441D01*
G01X72773Y50474D01*
G01X72850Y50508D01*
G01X72926Y50545D01*
G01X73001Y50584D01*
G01X73076Y50624D01*
G01X73149Y50666D01*
G01X73222Y50710D01*
G01X73293Y50755D01*
G01X73363Y50803D01*
G01X73432Y50851D01*
G01X73500Y50902D01*
G01X73567Y50954D01*
G01X73632Y51008D01*
G01X73696Y51063D01*
G01X73759Y51120D01*
G01X73820Y51178D01*
G01X73880Y51238D01*
G01X73938Y51299D01*
G01X73995Y51362D01*
G01X74051Y51426D01*
G01X74105Y51491D01*
G01X74157Y51558D01*
G01X74207Y51626D01*
G01X74256Y51695D01*
G01X74303Y51765D01*
G01X74349Y51837D01*
G01X74393Y51909D01*
G01X74435Y51983D01*
G01X74475Y52057D01*
G01X74513Y52132D01*
G01X74550Y52209D01*
G01X74585Y52286D01*
G01X74618Y52364D01*
G01X74649Y52443D01*
G01X74678Y52522D01*
G01X74705Y52602D01*
G01X74730Y52683D01*
G01X74753Y52765D01*
G01X74775Y52847D01*
G01X74794Y52929D01*
G01X74811Y53012D01*
G01X74826Y53095D01*
G01X74840Y53179D01*
G01X74851Y53263D01*
G01X74860Y53347D01*
G01X74867Y53431D01*
G01X74872Y53516D01*
G01X74875Y53600D01*
G01X74876Y53685D01*
G01X74875Y53770D01*
G01X74872Y53854D01*
G01X74867Y53938D01*
G01X74860Y54023D01*
G01X74851Y54107D01*
G01X74840Y54191D01*
G01X74826Y54275D01*
G01X74811Y54358D01*
G01X74794Y54441D01*
G01X74775Y54523D01*
G01X74753Y54605D01*
G01X74730Y54687D01*
G01X74705Y54767D01*
G01X74678Y54848D01*
G01X74649Y54927D01*
G01X74618Y55006D01*
G01X74585Y55084D01*
G01X74550Y55161D01*
G01X74513Y55237D01*
G01X74475Y55313D01*
G01X74435Y55387D01*
G01X74393Y55460D01*
G01X74349Y55533D01*
G01X74303Y55605D01*
G01X74256Y55675D01*
G01X74207Y55744D01*
G01X74157Y55811D01*
G01X74105Y55878D01*
G01X74051Y55944D01*
G01X73995Y56008D01*
G01X73938Y56071D01*
G01X73880Y56131D01*
G01X73820Y56191D01*
G01X73759Y56250D01*
G01X73696Y56307D01*
G01X73632Y56362D01*
G01X73567Y56416D01*
G01X73500Y56468D01*
G01X73432Y56519D01*
G01X73363Y56567D01*
G01X73293Y56615D01*
G01X73222Y56660D01*
G01X73149Y56704D01*
G01X73076Y56746D01*
G01X73001Y56786D01*
G01X72926Y56825D01*
G01X72850Y56861D01*
G01X72773Y56896D01*
G01X72694Y56929D01*
G01X72616Y56960D01*
G01X72536Y56989D01*
G01X72456Y57016D01*
G01X72375Y57041D01*
G01X72293Y57065D01*
G01X72212Y57086D01*
G01X72129Y57105D01*
G01X72047Y57123D01*
G01X71963Y57138D01*
G01X71879Y57151D01*
G01X71796Y57162D01*
G01X71711Y57171D01*
G01X71627Y57178D01*
G01X71543Y57184D01*
G01X71458Y57187D01*
G37*
G36*
G01X58095Y58997D02*
G01X58039Y58998D01*
G01X57982Y58997D01*
G01X57926Y58993D01*
G01X57870Y58988D01*
G01X57814Y58981D01*
G01X57759Y58971D01*
G01X57704Y58960D01*
G01X57649Y58946D01*
G01X57596Y58931D01*
G01X57542Y58913D01*
G01X57489Y58893D01*
G01X57438Y58872D01*
G01X57387Y58849D01*
G01X57336Y58823D01*
G01X57287Y58796D01*
G01X57239Y58767D01*
G01X57192Y58736D01*
G01X57146Y58704D01*
G01X57102Y58669D01*
G01X57059Y58634D01*
G01X57016Y58596D01*
G01X56976Y58557D01*
G01X56937Y58517D01*
G01X56900Y58475D01*
G01X56863Y58432D01*
G01X56829Y58387D01*
G01X56797Y58341D01*
G01X56766Y58295D01*
G01X56737Y58246D01*
G01X56710Y58197D01*
G01X56685Y58147D01*
G01X56661Y58096D01*
G01X56640Y58044D01*
G01X56620Y57991D01*
G01X56602Y57938D01*
G01X56587Y57884D01*
G01X56573Y57829D01*
G01X56562Y57774D01*
G01X56553Y57719D01*
G01X56545Y57663D01*
G01X56540Y57607D01*
G01X56537Y57551D01*
G01X56536Y57495D01*
G01X56537Y57439D01*
G01X56540Y57383D01*
G01X56545Y57327D01*
G01X56553Y57271D01*
G01X56562Y57216D01*
G01X56573Y57161D01*
G01X56587Y57106D01*
G01X56602Y57052D01*
G01X56620Y56999D01*
G01X56640Y56946D01*
G01X56661Y56894D01*
G01X56685Y56843D01*
G01X56710Y56793D01*
G01X56737Y56744D01*
G01X56766Y56695D01*
G01X56797Y56648D01*
G01X56829Y56602D01*
G01X56863Y56558D01*
G01X56900Y56515D01*
G01X56937Y56473D01*
G01X56976Y56432D01*
G01X57016Y56393D01*
G01X57059Y56356D01*
G01X57102Y56320D01*
G01X57146Y56286D01*
G01X57192Y56253D01*
G01X57239Y56222D01*
G01X57287Y56193D01*
G01X57336Y56167D01*
G01X57387Y56141D01*
G01X57438Y56118D01*
G01X57489Y56096D01*
G01X57542Y56077D01*
G01X57596Y56059D01*
G01X57649Y56044D01*
G01X57704Y56030D01*
G01X57759Y56018D01*
G01X57814Y56009D01*
G01X57870Y56001D01*
G01X57926Y55996D01*
G01X57982Y55993D01*
G01X58039Y55992D01*
G01X58095Y55993D01*
G01X58151Y55996D01*
G01X58207Y56001D01*
G01X58263Y56009D01*
G01X58318Y56018D01*
G01X58373Y56030D01*
G01X58428Y56044D01*
G01X58481Y56059D01*
G01X58535Y56077D01*
G01X58588Y56096D01*
G01X58639Y56118D01*
G01X58690Y56141D01*
G01X58741Y56167D01*
G01X58790Y56193D01*
G01X58838Y56222D01*
G01X58885Y56253D01*
G01X58931Y56286D01*
G01X58975Y56320D01*
G01X59019Y56356D01*
G01X59061Y56393D01*
G01X59101Y56432D01*
G01X59140Y56473D01*
G01X59177Y56515D01*
G01X59214Y56558D01*
G01X59248Y56602D01*
G01X59280Y56648D01*
G01X59311Y56695D01*
G01X59340Y56744D01*
G01X59367Y56793D01*
G01X59392Y56843D01*
G01X59416Y56894D01*
G01X59438Y56946D01*
G01X59457Y56999D01*
G01X59475Y57052D01*
G01X59490Y57106D01*
G01X59504Y57161D01*
G01X59515Y57216D01*
G01X59524Y57271D01*
G01X59532Y57327D01*
G01X59537Y57383D01*
G01X59540Y57439D01*
G01X59541Y57495D01*
G01X59540Y57551D01*
G01X59537Y57607D01*
G01X59532Y57663D01*
G01X59524Y57719D01*
G01X59515Y57774D01*
G01X59504Y57829D01*
G01X59490Y57884D01*
G01X59475Y57938D01*
G01X59457Y57991D01*
G01X59438Y58044D01*
G01X59416Y58096D01*
G01X59392Y58147D01*
G01X59367Y58197D01*
G01X59340Y58246D01*
G01X59311Y58295D01*
G01X59280Y58341D01*
G01X59248Y58387D01*
G01X59214Y58432D01*
G01X59177Y58475D01*
G01X59140Y58517D01*
G01X59101Y58557D01*
G01X59061Y58596D01*
G01X59019Y58634D01*
G01X58931Y58704D01*
G01X58885Y58736D01*
G01X58838Y58767D01*
G01X58790Y58796D01*
G01X58741Y58823D01*
G01X58690Y58849D01*
G01X58639Y58872D01*
G01X58588Y58893D01*
G01X58535Y58913D01*
G01X58481Y58931D01*
G01X58428Y58946D01*
G01X58373Y58960D01*
G01X58318Y58971D01*
G01X58263Y58981D01*
G01X58207Y58988D01*
G01X58151Y58993D01*
G01X58095Y58997D01*
G37*
G36*
G01X24596Y65374D02*
G01X24543Y65375D01*
G01X24489Y65374D01*
G01X24435Y65370D01*
G01X24381Y65365D01*
G01X24329Y65358D01*
G01X24275Y65349D01*
G01X24223Y65338D01*
G01X24171Y65324D01*
G01X24119Y65309D01*
G01X24069Y65292D01*
G01X24018Y65273D01*
G01X23969Y65252D01*
G01X23920Y65229D01*
G01X23872Y65204D01*
G01X23826Y65177D01*
G01X23780Y65149D01*
G01X23736Y65119D01*
G01X23692Y65088D01*
G01X23650Y65054D01*
G01X23609Y65019D01*
G01X23570Y64982D01*
G01X23532Y64945D01*
G01X23496Y64905D01*
G01X23460Y64864D01*
G01X23427Y64822D01*
G01X23395Y64779D01*
G01X23365Y64734D01*
G01X23337Y64689D01*
G01X23310Y64642D01*
G01X23286Y64594D01*
G01X23263Y64545D01*
G01X23242Y64496D01*
G01X23222Y64446D01*
G01X23205Y64395D01*
G01X23190Y64344D01*
G01X23177Y64291D01*
G01X23165Y64239D01*
G01X23156Y64186D01*
G01X23149Y64133D01*
G01X23144Y64079D01*
G01X23141Y64026D01*
G01X23140Y63972D01*
G01X23141Y63918D01*
G01X23144Y63865D01*
G01X23149Y63811D01*
G01X23156Y63758D01*
G01X23165Y63705D01*
G01X23177Y63652D01*
G01X23190Y63600D01*
G01X23205Y63549D01*
G01X23222Y63498D01*
G01X23242Y63448D01*
G01X23263Y63398D01*
G01X23286Y63350D01*
G01X23310Y63302D01*
G01X23337Y63255D01*
G01X23365Y63209D01*
G01X23395Y63165D01*
G01X23427Y63122D01*
G01X23460Y63079D01*
G01X23532Y62999D01*
G01X23570Y62962D01*
G01X23609Y62925D01*
G01X23650Y62890D01*
G01X23692Y62856D01*
G01X23780Y62794D01*
G01X23826Y62766D01*
G01X23872Y62740D01*
G01X23920Y62715D01*
G01X23969Y62692D01*
G01X24018Y62671D01*
G01X24069Y62652D01*
G01X24119Y62635D01*
G01X24171Y62620D01*
G01X24223Y62606D01*
G01X24275Y62595D01*
G01X24329Y62586D01*
G01X24381Y62578D01*
G01X24435Y62573D01*
G01X24489Y62570D01*
G01X24543Y62569D01*
G01X24596Y62570D01*
G01X24650Y62573D01*
G01X24704Y62578D01*
G01X24757Y62586D01*
G01X24810Y62595D01*
G01X24862Y62606D01*
G01X24914Y62620D01*
G01X24966Y62635D01*
G01X25016Y62652D01*
G01X25067Y62671D01*
G01X25117Y62692D01*
G01X25165Y62715D01*
G01X25213Y62740D01*
G01X25259Y62766D01*
G01X25305Y62794D01*
G01X25350Y62825D01*
G01X25393Y62856D01*
G01X25435Y62890D01*
G01X25476Y62925D01*
G01X25515Y62962D01*
G01X25553Y62999D01*
G01X25625Y63079D01*
G01X25658Y63122D01*
G01X25690Y63165D01*
G01X25720Y63209D01*
G01X25748Y63255D01*
G01X25775Y63302D01*
G01X25800Y63350D01*
G01X25823Y63398D01*
G01X25863Y63498D01*
G01X25880Y63549D01*
G01X25895Y63600D01*
G01X25909Y63652D01*
G01X25920Y63705D01*
G01X25929Y63758D01*
G01X25936Y63811D01*
G01X25941Y63865D01*
G01X25944Y63918D01*
G01X25945Y63972D01*
G01X25944Y64026D01*
G01X25941Y64079D01*
G01X25936Y64133D01*
G01X25929Y64186D01*
G01X25920Y64239D01*
G01X25909Y64291D01*
G01X25895Y64344D01*
G01X25880Y64395D01*
G01X25863Y64446D01*
G01X25843Y64496D01*
G01X25823Y64545D01*
G01X25800Y64594D01*
G01X25775Y64642D01*
G01X25748Y64689D01*
G01X25720Y64734D01*
G01X25690Y64779D01*
G01X25658Y64822D01*
G01X25625Y64864D01*
G01X25589Y64905D01*
G01X25553Y64945D01*
G01X25515Y64982D01*
G01X25476Y65019D01*
G01X25435Y65054D01*
G01X25393Y65088D01*
G01X25350Y65119D01*
G01X25305Y65149D01*
G01X25259Y65177D01*
G01X25213Y65204D01*
G01X25165Y65229D01*
G01X25117Y65252D01*
G01X25067Y65273D01*
G01X25016Y65292D01*
G01X24966Y65309D01*
G01X24914Y65324D01*
G01X24862Y65338D01*
G01X24810Y65349D01*
G01X24757Y65358D01*
G01X24704Y65365D01*
G01X24650Y65370D01*
G01X24596Y65374D01*
G37*
G36*
G01X36888Y75431D02*
G01X36830Y75432D01*
G01X36771Y75431D01*
G01X36712Y75428D01*
G01X36653Y75423D01*
G01X36594Y75416D01*
G01X36536Y75407D01*
G01X36478Y75395D01*
G01X36421Y75381D01*
G01X36364Y75366D01*
G01X36308Y75348D01*
G01X36252Y75328D01*
G01X36197Y75307D01*
G01X36143Y75283D01*
G01X36090Y75258D01*
G01X36038Y75230D01*
G01X35986Y75201D01*
G01X35936Y75170D01*
G01X35887Y75137D01*
G01X35839Y75103D01*
G01X35793Y75067D01*
G01X35747Y75029D01*
G01X35703Y74989D01*
G01X35661Y74949D01*
G01X35620Y74906D01*
G01X35580Y74862D01*
G01X35543Y74817D01*
G01X35507Y74770D01*
G01X35472Y74723D01*
G01X35439Y74673D01*
G01X35408Y74623D01*
G01X35379Y74572D01*
G01X35352Y74520D01*
G01X35326Y74467D01*
G01X35302Y74412D01*
G01X35281Y74357D01*
G01X35261Y74302D01*
G01X35244Y74246D01*
G01X35228Y74189D01*
G01X35215Y74131D01*
G01X35203Y74074D01*
G01X35194Y74015D01*
G01X35186Y73957D01*
G01X35181Y73898D01*
G01X35178Y73839D01*
G01X35177Y73780D01*
G01X35178Y73721D01*
G01X35181Y73663D01*
G01X35186Y73604D01*
G01X35194Y73546D01*
G01X35203Y73487D01*
G01X35215Y73430D01*
G01X35228Y73372D01*
G01X35244Y73316D01*
G01X35261Y73260D01*
G01X35280Y73204D01*
G01X35302Y73149D01*
G01X35325Y73096D01*
G01X35350Y73043D01*
G01X35378Y72990D01*
G01X35407Y72939D01*
G01X35438Y72889D01*
G01X35470Y72840D01*
G01X35504Y72792D01*
G01X35540Y72746D01*
G01X35578Y72701D01*
G01X35617Y72657D01*
G01X35658Y72615D01*
G01X35700Y72573D01*
G01X35743Y72534D01*
G01X35789Y72496D01*
G01X35799Y72486D01*
G01X35809Y72474D01*
G01X35816Y72461D01*
G01X35822Y72447D01*
G01X35825Y72433D01*
G01X35826Y72417D01*
G01X35825Y72402D01*
G01X35822Y72388D01*
G01X35816Y72374D01*
G01X35809Y72361D01*
G01X35799Y72349D01*
G01X35789Y72339D01*
G01X35743Y72301D01*
G01X35700Y72261D01*
G01X35658Y72220D01*
G01X35617Y72178D01*
G01X35578Y72134D01*
G01X35540Y72089D01*
G01X35504Y72043D01*
G01X35470Y71995D01*
G01X35438Y71946D01*
G01X35407Y71896D01*
G01X35378Y71844D01*
G01X35350Y71792D01*
G01X35325Y71739D01*
G01X35302Y71685D01*
G01X35280Y71631D01*
G01X35261Y71575D01*
G01X35244Y71519D01*
G01X35228Y71462D01*
G01X35215Y71405D01*
G01X35203Y71348D01*
G01X35194Y71289D01*
G01X35186Y71231D01*
G01X35181Y71172D01*
G01X35178Y71114D01*
G01X35177Y71055D01*
G01X35178Y70996D01*
G01X35181Y70937D01*
G01X35186Y70878D01*
G01X35194Y70820D01*
G01X35203Y70761D01*
G01X35215Y70703D01*
G01X35228Y70646D01*
G01X35244Y70589D01*
G01X35261Y70533D01*
G01X35281Y70477D01*
G01X35302Y70423D01*
G01X35326Y70368D01*
G01X35352Y70315D01*
G01X35379Y70263D01*
G01X35408Y70212D01*
G01X35439Y70161D01*
G01X35472Y70112D01*
G01X35507Y70064D01*
G01X35543Y70018D01*
G01X35580Y69972D01*
G01X35620Y69929D01*
G01X35661Y69886D01*
G01X35703Y69845D01*
G01X35747Y69806D01*
G01X35793Y69768D01*
G01X35839Y69732D01*
G01X35887Y69698D01*
G01X35936Y69665D01*
G01X35986Y69634D01*
G01X36038Y69605D01*
G01X36090Y69577D01*
G01X36143Y69552D01*
G01X36197Y69528D01*
G01X36252Y69507D01*
G01X36308Y69487D01*
G01X36364Y69469D01*
G01X36421Y69454D01*
G01X36478Y69440D01*
G01X36536Y69428D01*
G01X36594Y69419D01*
G01X36653Y69412D01*
G01X36712Y69407D01*
G01X36771Y69403D01*
G01X36830Y69402D01*
G01X36888Y69403D01*
G01X36947Y69407D01*
G01X37006Y69412D01*
G01X37065Y69419D01*
G01X37123Y69428D01*
G01X37181Y69440D01*
G01X37238Y69454D01*
G01X37295Y69469D01*
G01X37351Y69487D01*
G01X37407Y69507D01*
G01X37462Y69528D01*
G01X37516Y69552D01*
G01X37569Y69577D01*
G01X37621Y69605D01*
G01X37673Y69634D01*
G01X37723Y69665D01*
G01X37772Y69698D01*
G01X37820Y69732D01*
G01X37866Y69768D01*
G01X37912Y69806D01*
G01X37956Y69845D01*
G01X37998Y69886D01*
G01X38039Y69929D01*
G01X38079Y69972D01*
G01X38116Y70018D01*
G01X38152Y70064D01*
G01X38187Y70112D01*
G01X38220Y70161D01*
G01X38251Y70212D01*
G01X38280Y70263D01*
G01X38307Y70315D01*
G01X38333Y70368D01*
G01X38357Y70423D01*
G01X38378Y70477D01*
G01X38398Y70533D01*
G01X38415Y70589D01*
G01X38431Y70646D01*
G01X38444Y70703D01*
G01X38456Y70761D01*
G01X38465Y70820D01*
G01X38473Y70878D01*
G01X38478Y70937D01*
G01X38481Y70996D01*
G01X38482Y71055D01*
G01X38481Y71114D01*
G01X38478Y71172D01*
G01X38473Y71231D01*
G01X38465Y71289D01*
G01X38456Y71348D01*
G01X38444Y71405D01*
G01X38431Y71462D01*
G01X38415Y71519D01*
G01X38398Y71575D01*
G01X38379Y71631D01*
G01X38357Y71685D01*
G01X38334Y71739D01*
G01X38309Y71792D01*
G01X38281Y71844D01*
G01X38252Y71896D01*
G01X38221Y71946D01*
G01X38189Y71995D01*
G01X38155Y72043D01*
G01X38119Y72089D01*
G01X38081Y72134D01*
G01X38042Y72178D01*
G01X38001Y72220D01*
G01X37959Y72261D01*
G01X37916Y72301D01*
G01X37870Y72339D01*
G01X37860Y72349D01*
G01X37850Y72361D01*
G01X37843Y72374D01*
G01X37837Y72388D01*
G01X37834Y72402D01*
G01X37833Y72417D01*
G01X37834Y72433D01*
G01X37837Y72447D01*
G01X37843Y72461D01*
G01X37850Y72474D01*
G01X37860Y72486D01*
G01X37870Y72496D01*
G01X37916Y72534D01*
G01X37959Y72573D01*
G01X38001Y72615D01*
G01X38042Y72657D01*
G01X38081Y72701D01*
G01X38119Y72746D01*
G01X38155Y72792D01*
G01X38189Y72840D01*
G01X38221Y72889D01*
G01X38252Y72939D01*
G01X38281Y72990D01*
G01X38309Y73043D01*
G01X38334Y73096D01*
G01X38357Y73149D01*
G01X38379Y73204D01*
G01X38398Y73260D01*
G01X38415Y73316D01*
G01X38431Y73372D01*
G01X38444Y73430D01*
G01X38456Y73487D01*
G01X38465Y73546D01*
G01X38473Y73604D01*
G01X38478Y73663D01*
G01X38481Y73721D01*
G01X38482Y73780D01*
G01X38481Y73839D01*
G01X38478Y73898D01*
G01X38473Y73957D01*
G01X38465Y74015D01*
G01X38456Y74074D01*
G01X38444Y74131D01*
G01X38431Y74189D01*
G01X38415Y74246D01*
G01X38398Y74302D01*
G01X38378Y74357D01*
G01X38357Y74412D01*
G01X38333Y74467D01*
G01X38307Y74520D01*
G01X38280Y74572D01*
G01X38251Y74623D01*
G01X38220Y74673D01*
G01X38187Y74723D01*
G01X38152Y74770D01*
G01X38116Y74817D01*
G01X38079Y74862D01*
G01X38039Y74906D01*
G01X37998Y74949D01*
G01X37956Y74989D01*
G01X37912Y75029D01*
G01X37866Y75067D01*
G01X37820Y75103D01*
G01X37772Y75137D01*
G01X37723Y75170D01*
G01X37673Y75201D01*
G01X37621Y75230D01*
G01X37569Y75258D01*
G01X37516Y75283D01*
G01X37462Y75307D01*
G01X37407Y75328D01*
G01X37351Y75348D01*
G01X37295Y75366D01*
G01X37238Y75381D01*
G01X37181Y75395D01*
G01X37123Y75407D01*
G01X37065Y75416D01*
G01X37006Y75423D01*
G01X36947Y75428D01*
G01X36888Y75431D01*
G37*
G36*
G01X71077Y77253D02*
G01X70993Y77254D01*
G01X70908Y77253D01*
G01X70823Y77250D01*
G01X70739Y77244D01*
G01X70655Y77237D01*
G01X70570Y77228D01*
G01X70487Y77217D01*
G01X70403Y77204D01*
G01X70319Y77189D01*
G01X70237Y77171D01*
G01X70154Y77152D01*
G01X70073Y77131D01*
G01X69991Y77107D01*
G01X69910Y77082D01*
G01X69830Y77055D01*
G01X69750Y77026D01*
G01X69672Y76995D01*
G01X69593Y76962D01*
G01X69516Y76927D01*
G01X69440Y76891D01*
G01X69365Y76852D01*
G01X69290Y76812D01*
G01X69217Y76770D01*
G01X69144Y76726D01*
G01X69073Y76681D01*
G01X69003Y76633D01*
G01X68934Y76585D01*
G01X68866Y76534D01*
G01X68799Y76482D01*
G01X68734Y76428D01*
G01X68670Y76373D01*
G01X68607Y76316D01*
G01X68546Y76257D01*
G01X68486Y76197D01*
G01X68428Y76137D01*
G01X68371Y76074D01*
G01X68315Y76010D01*
G01X68261Y75944D01*
G01X68209Y75877D01*
G01X68159Y75810D01*
G01X68110Y75741D01*
G01X68063Y75671D01*
G01X68017Y75599D01*
G01X67973Y75526D01*
G01X67931Y75453D01*
G01X67891Y75379D01*
G01X67853Y75303D01*
G01X67816Y75227D01*
G01X67781Y75150D01*
G01X67748Y75072D01*
G01X67717Y74993D01*
G01X67688Y74914D01*
G01X67661Y74833D01*
G01X67636Y74753D01*
G01X67613Y74671D01*
G01X67591Y74589D01*
G01X67572Y74507D01*
G01X67555Y74424D01*
G01X67540Y74341D01*
G01X67526Y74257D01*
G01X67515Y74173D01*
G01X67506Y74089D01*
G01X67499Y74004D01*
G01X67494Y73920D01*
G01X67491Y73836D01*
G01X67490Y73751D01*
G01X67491Y73666D01*
G01X67494Y73582D01*
G01X67499Y73497D01*
G01X67506Y73413D01*
G01X67515Y73329D01*
G01X67526Y73245D01*
G01X67540Y73161D01*
G01X67555Y73078D01*
G01X67572Y72995D01*
G01X67591Y72913D01*
G01X67613Y72831D01*
G01X67636Y72749D01*
G01X67661Y72668D01*
G01X67688Y72588D01*
G01X67717Y72509D01*
G01X67748Y72430D01*
G01X67781Y72352D01*
G01X67816Y72275D01*
G01X67853Y72198D01*
G01X67891Y72123D01*
G01X67931Y72049D01*
G01X67973Y71975D01*
G01X68017Y71903D01*
G01X68063Y71831D01*
G01X68110Y71761D01*
G01X68159Y71692D01*
G01X68209Y71624D01*
G01X68261Y71557D01*
G01X68315Y71492D01*
G01X68371Y71428D01*
G01X68428Y71365D01*
G01X68486Y71304D01*
G01X68546Y71244D01*
G01X68607Y71186D01*
G01X68670Y71129D01*
G01X68734Y71074D01*
G01X68799Y71020D01*
G01X68866Y70968D01*
G01X68934Y70917D01*
G01X69003Y70869D01*
G01X69073Y70821D01*
G01X69144Y70776D01*
G01X69217Y70732D01*
G01X69290Y70690D01*
G01X69365Y70650D01*
G01X69440Y70611D01*
G01X69516Y70574D01*
G01X69593Y70540D01*
G01X69672Y70507D01*
G01X69750Y70476D01*
G01X69830Y70447D01*
G01X69910Y70419D01*
G01X69991Y70395D01*
G01X70073Y70371D01*
G01X70154Y70350D01*
G01X70237Y70331D01*
G01X70319Y70313D01*
G01X70403Y70298D01*
G01X70487Y70285D01*
G01X70570Y70274D01*
G01X70655Y70265D01*
G01X70739Y70257D01*
G01X70823Y70252D01*
G01X70908Y70249D01*
G01X70993Y70248D01*
G01X71077Y70249D01*
G01X71162Y70252D01*
G01X71246Y70257D01*
G01X71330Y70265D01*
G01X71415Y70274D01*
G01X71498Y70285D01*
G01X71582Y70298D01*
G01X71666Y70313D01*
G01X71748Y70331D01*
G01X71831Y70350D01*
G01X71912Y70371D01*
G01X71994Y70395D01*
G01X72075Y70419D01*
G01X72155Y70447D01*
G01X72235Y70476D01*
G01X72313Y70507D01*
G01X72392Y70540D01*
G01X72469Y70574D01*
G01X72545Y70611D01*
G01X72620Y70650D01*
G01X72695Y70690D01*
G01X72768Y70732D01*
G01X72841Y70776D01*
G01X72912Y70821D01*
G01X72982Y70869D01*
G01X73051Y70917D01*
G01X73119Y70968D01*
G01X73186Y71020D01*
G01X73251Y71074D01*
G01X73315Y71129D01*
G01X73378Y71186D01*
G01X73439Y71244D01*
G01X73499Y71304D01*
G01X73557Y71365D01*
G01X73614Y71428D01*
G01X73670Y71492D01*
G01X73724Y71557D01*
G01X73776Y71624D01*
G01X73826Y71692D01*
G01X73875Y71761D01*
G01X73922Y71831D01*
G01X73968Y71903D01*
G01X74012Y71975D01*
G01X74054Y72049D01*
G01X74094Y72123D01*
G01X74132Y72198D01*
G01X74169Y72275D01*
G01X74204Y72352D01*
G01X74237Y72430D01*
G01X74268Y72509D01*
G01X74297Y72588D01*
G01X74324Y72668D01*
G01X74349Y72749D01*
G01X74372Y72831D01*
G01X74394Y72913D01*
G01X74413Y72995D01*
G01X74430Y73078D01*
G01X74445Y73161D01*
G01X74459Y73245D01*
G01X74470Y73329D01*
G01X74479Y73413D01*
G01X74486Y73497D01*
G01X74491Y73582D01*
G01X74494Y73666D01*
G01X74495Y73751D01*
G01X74494Y73836D01*
G01X74491Y73920D01*
G01X74486Y74004D01*
G01X74479Y74089D01*
G01X74470Y74173D01*
G01X74459Y74257D01*
G01X74445Y74341D01*
G01X74430Y74424D01*
G01X74413Y74507D01*
G01X74394Y74589D01*
G01X74372Y74671D01*
G01X74349Y74753D01*
G01X74324Y74833D01*
G01X74297Y74914D01*
G01X74268Y74993D01*
G01X74237Y75072D01*
G01X74204Y75150D01*
G01X74169Y75227D01*
G01X74132Y75303D01*
G01X74094Y75379D01*
G01X74054Y75453D01*
G01X74012Y75526D01*
G01X73968Y75599D01*
G01X73922Y75671D01*
G01X73875Y75741D01*
G01X73826Y75810D01*
G01X73776Y75877D01*
G01X73724Y75944D01*
G01X73670Y76010D01*
G01X73614Y76074D01*
G01X73557Y76137D01*
G01X73499Y76197D01*
G01X73439Y76257D01*
G01X73378Y76316D01*
G01X73315Y76373D01*
G01X73251Y76428D01*
G01X73186Y76482D01*
G01X73119Y76534D01*
G01X73051Y76585D01*
G01X72982Y76633D01*
G01X72912Y76681D01*
G01X72841Y76726D01*
G01X72768Y76770D01*
G01X72695Y76812D01*
G01X72620Y76852D01*
G01X72545Y76891D01*
G01X72469Y76927D01*
G01X72392Y76962D01*
G01X72313Y76995D01*
G01X72235Y77026D01*
G01X72155Y77055D01*
G01X72075Y77082D01*
G01X71994Y77107D01*
G01X71912Y77131D01*
G01X71831Y77152D01*
G01X71748Y77171D01*
G01X71666Y77189D01*
G01X71582Y77204D01*
G01X71498Y77217D01*
G01X71415Y77228D01*
G01X71330Y77237D01*
G01X71246Y77244D01*
G01X71162Y77250D01*
G01X71077Y77253D01*
G37*
G36*
G01X41649Y73856D02*
G01X41593Y73857D01*
G01X41536Y73856D01*
G01X41480Y73853D01*
G01X41424Y73847D01*
G01X41368Y73840D01*
G01X41313Y73830D01*
G01X41258Y73819D01*
G01X41203Y73805D01*
G01X41150Y73790D01*
G01X41096Y73772D01*
G01X41043Y73753D01*
G01X40992Y73731D01*
G01X40941Y73708D01*
G01X40890Y73682D01*
G01X40841Y73655D01*
G01X40793Y73626D01*
G01X40746Y73595D01*
G01X40700Y73563D01*
G01X40656Y73529D01*
G01X40613Y73493D01*
G01X40570Y73455D01*
G01X40530Y73417D01*
G01X40491Y73376D01*
G01X40454Y73334D01*
G01X40418Y73291D01*
G01X40383Y73246D01*
G01X40351Y73200D01*
G01X40320Y73154D01*
G01X40291Y73105D01*
G01X40264Y73056D01*
G01X40239Y73006D01*
G01X40215Y72955D01*
G01X40193Y72903D01*
G01X40174Y72850D01*
G01X40156Y72797D01*
G01X40141Y72743D01*
G01X40127Y72688D01*
G01X40116Y72633D01*
G01X40107Y72578D01*
G01X40099Y72522D01*
G01X40094Y72466D01*
G01X40091Y72410D01*
G01X40090Y72354D01*
G01X40091Y72298D01*
G01X40094Y72242D01*
G01X40099Y72186D01*
G01X40107Y72130D01*
G01X40116Y72075D01*
G01X40127Y72020D01*
G01X40141Y71965D01*
G01X40156Y71911D01*
G01X40174Y71858D01*
G01X40193Y71805D01*
G01X40215Y71753D01*
G01X40239Y71702D01*
G01X40264Y71652D01*
G01X40291Y71603D01*
G01X40320Y71554D01*
G01X40351Y71508D01*
G01X40383Y71461D01*
G01X40418Y71417D01*
G01X40454Y71374D01*
G01X40491Y71332D01*
G01X40530Y71291D01*
G01X40570Y71253D01*
G01X40613Y71215D01*
G01X40656Y71179D01*
G01X40700Y71145D01*
G01X40746Y71112D01*
G01X40793Y71081D01*
G01X40841Y71052D01*
G01X40890Y71026D01*
G01X40941Y71000D01*
G01X40992Y70977D01*
G01X41043Y70955D01*
G01X41096Y70936D01*
G01X41150Y70918D01*
G01X41203Y70903D01*
G01X41258Y70889D01*
G01X41313Y70878D01*
G01X41368Y70868D01*
G01X41424Y70861D01*
G01X41480Y70855D01*
G01X41536Y70852D01*
G01X41593Y70851D01*
G01X41649Y70852D01*
G01X41705Y70855D01*
G01X41761Y70861D01*
G01X41817Y70868D01*
G01X41872Y70878D01*
G01X41927Y70889D01*
G01X41982Y70903D01*
G01X42035Y70918D01*
G01X42089Y70936D01*
G01X42142Y70955D01*
G01X42193Y70977D01*
G01X42244Y71000D01*
G01X42295Y71026D01*
G01X42344Y71052D01*
G01X42392Y71081D01*
G01X42439Y71112D01*
G01X42485Y71145D01*
G01X42529Y71179D01*
G01X42572Y71215D01*
G01X42615Y71253D01*
G01X42655Y71291D01*
G01X42694Y71332D01*
G01X42731Y71374D01*
G01X42768Y71417D01*
G01X42802Y71461D01*
G01X42834Y71508D01*
G01X42865Y71554D01*
G01X42894Y71603D01*
G01X42921Y71652D01*
G01X42946Y71702D01*
G01X42970Y71753D01*
G01X42992Y71805D01*
G01X43011Y71858D01*
G01X43029Y71911D01*
G01X43044Y71965D01*
G01X43058Y72020D01*
G01X43069Y72075D01*
G01X43078Y72130D01*
G01X43086Y72186D01*
G01X43091Y72242D01*
G01X43094Y72298D01*
G01X43095Y72354D01*
G01X43094Y72410D01*
G01X43091Y72466D01*
G01X43086Y72522D01*
G01X43078Y72578D01*
G01X43069Y72633D01*
G01X43058Y72688D01*
G01X43044Y72743D01*
G01X43029Y72797D01*
G01X43011Y72850D01*
G01X42992Y72903D01*
G01X42970Y72955D01*
G01X42946Y73006D01*
G01X42921Y73056D01*
G01X42894Y73105D01*
G01X42865Y73154D01*
G01X42834Y73200D01*
G01X42802Y73246D01*
G01X42768Y73291D01*
G01X42731Y73334D01*
G01X42694Y73376D01*
G01X42655Y73417D01*
G01X42615Y73455D01*
G01X42572Y73493D01*
G01X42529Y73529D01*
G01X42485Y73563D01*
G01X42439Y73595D01*
G01X42392Y73626D01*
G01X42344Y73655D01*
G01X42295Y73682D01*
G01X42244Y73708D01*
G01X42193Y73731D01*
G01X42142Y73753D01*
G01X42089Y73772D01*
G01X42035Y73790D01*
G01X41982Y73805D01*
G01X41927Y73819D01*
G01X41872Y73830D01*
G01X41817Y73840D01*
G01X41761Y73847D01*
G01X41705Y73853D01*
G01X41649Y73856D01*
G37*
G36*
G01X49649Y73856D02*
G01X49592Y73857D01*
G01X49536Y73856D01*
G01X49480Y73853D01*
G01X49424Y73847D01*
G01X49368Y73840D01*
G01X49313Y73830D01*
G01X49258Y73819D01*
G01X49203Y73805D01*
G01X49150Y73790D01*
G01X49096Y73772D01*
G01X49043Y73753D01*
G01X48992Y73731D01*
G01X48941Y73708D01*
G01X48890Y73682D01*
G01X48841Y73655D01*
G01X48793Y73626D01*
G01X48746Y73595D01*
G01X48700Y73563D01*
G01X48656Y73529D01*
G01X48613Y73493D01*
G01X48570Y73455D01*
G01X48530Y73417D01*
G01X48491Y73376D01*
G01X48454Y73334D01*
G01X48417Y73291D01*
G01X48383Y73246D01*
G01X48351Y73200D01*
G01X48320Y73154D01*
G01X48291Y73105D01*
G01X48264Y73056D01*
G01X48239Y73006D01*
G01X48215Y72955D01*
G01X48193Y72903D01*
G01X48174Y72850D01*
G01X48156Y72797D01*
G01X48141Y72743D01*
G01X48127Y72688D01*
G01X48116Y72633D01*
G01X48107Y72578D01*
G01X48099Y72522D01*
G01X48094Y72466D01*
G01X48091Y72410D01*
G01X48090Y72354D01*
G01X48091Y72298D01*
G01X48094Y72242D01*
G01X48099Y72186D01*
G01X48107Y72130D01*
G01X48116Y72075D01*
G01X48127Y72020D01*
G01X48141Y71965D01*
G01X48156Y71911D01*
G01X48174Y71858D01*
G01X48193Y71805D01*
G01X48215Y71753D01*
G01X48239Y71702D01*
G01X48264Y71652D01*
G01X48291Y71603D01*
G01X48320Y71554D01*
G01X48351Y71508D01*
G01X48383Y71461D01*
G01X48417Y71417D01*
G01X48454Y71374D01*
G01X48491Y71332D01*
G01X48530Y71291D01*
G01X48570Y71253D01*
G01X48613Y71215D01*
G01X48656Y71179D01*
G01X48700Y71145D01*
G01X48746Y71112D01*
G01X48793Y71081D01*
G01X48841Y71052D01*
G01X48890Y71026D01*
G01X48941Y71000D01*
G01X48992Y70977D01*
G01X49043Y70955D01*
G01X49096Y70936D01*
G01X49150Y70918D01*
G01X49203Y70903D01*
G01X49258Y70889D01*
G01X49313Y70878D01*
G01X49368Y70868D01*
G01X49424Y70861D01*
G01X49480Y70855D01*
G01X49536Y70852D01*
G01X49592Y70851D01*
G01X49649Y70852D01*
G01X49705Y70855D01*
G01X49761Y70861D01*
G01X49817Y70868D01*
G01X49872Y70878D01*
G01X49927Y70889D01*
G01X49982Y70903D01*
G01X50035Y70918D01*
G01X50089Y70936D01*
G01X50142Y70955D01*
G01X50193Y70977D01*
G01X50244Y71000D01*
G01X50295Y71026D01*
G01X50344Y71052D01*
G01X50392Y71081D01*
G01X50439Y71112D01*
G01X50485Y71145D01*
G01X50529Y71179D01*
G01X50572Y71215D01*
G01X50615Y71253D01*
G01X50655Y71291D01*
G01X50694Y71332D01*
G01X50731Y71374D01*
G01X50767Y71417D01*
G01X50802Y71461D01*
G01X50834Y71508D01*
G01X50865Y71554D01*
G01X50894Y71603D01*
G01X50921Y71652D01*
G01X50946Y71702D01*
G01X50970Y71753D01*
G01X50992Y71805D01*
G01X51011Y71858D01*
G01X51029Y71911D01*
G01X51044Y71965D01*
G01X51058Y72020D01*
G01X51069Y72075D01*
G01X51078Y72130D01*
G01X51086Y72186D01*
G01X51091Y72242D01*
G01X51094Y72298D01*
G01X51095Y72354D01*
G01X51094Y72410D01*
G01X51091Y72466D01*
G01X51086Y72522D01*
G01X51078Y72578D01*
G01X51069Y72633D01*
G01X51058Y72688D01*
G01X51044Y72743D01*
G01X51029Y72797D01*
G01X51011Y72850D01*
G01X50992Y72903D01*
G01X50970Y72955D01*
G01X50946Y73006D01*
G01X50921Y73056D01*
G01X50894Y73105D01*
G01X50865Y73154D01*
G01X50834Y73200D01*
G01X50802Y73246D01*
G01X50767Y73291D01*
G01X50731Y73334D01*
G01X50694Y73376D01*
G01X50655Y73417D01*
G01X50615Y73455D01*
G01X50572Y73493D01*
G01X50529Y73529D01*
G01X50485Y73563D01*
G01X50439Y73595D01*
G01X50392Y73626D01*
G01X50344Y73655D01*
G01X50295Y73682D01*
G01X50244Y73708D01*
G01X50193Y73731D01*
G01X50142Y73753D01*
G01X50089Y73772D01*
G01X50035Y73790D01*
G01X49982Y73805D01*
G01X49927Y73819D01*
G01X49872Y73830D01*
G01X49817Y73840D01*
G01X49761Y73847D01*
G01X49705Y73853D01*
G01X49649Y73856D01*
G37*
G36*
G01X17846Y91198D02*
G01X14946Y91198D01*
G01X14913Y91197D01*
G01X14880Y91193D01*
G01X14848Y91188D01*
G01X14816Y91180D01*
G01X14784Y91171D01*
G01X14753Y91160D01*
G01X14723Y91146D01*
G01X14694Y91130D01*
G01X14666Y91113D01*
G01X14640Y91094D01*
G01X14614Y91073D01*
G01X14590Y91050D01*
G01X14568Y91026D01*
G01X14547Y91001D01*
G01X14528Y90974D01*
G01X14511Y90946D01*
G01X14495Y90917D01*
G01X14482Y90887D01*
G01X14470Y90856D01*
G01X14460Y90825D01*
G01X14453Y90793D01*
G01X14448Y90761D01*
G01X14444Y90728D01*
G01X14443Y90695D01*
G01X14443Y87795D01*
G01X14444Y87762D01*
G01X14448Y87729D01*
G01X14453Y87697D01*
G01X14460Y87665D01*
G01X14470Y87633D01*
G01X14482Y87603D01*
G01X14495Y87573D01*
G01X14511Y87543D01*
G01X14528Y87515D01*
G01X14547Y87489D01*
G01X14568Y87463D01*
G01X14591Y87439D01*
G01X14601Y87427D01*
G01X14610Y87414D01*
G01X14616Y87399D01*
G01X14619Y87383D01*
G01X14621Y87367D01*
G01X14621Y85987D01*
G01X14620Y85989D01*
G01X14620Y85904D01*
G01X14621Y85899D01*
G01X14621Y84800D01*
G01X14622Y84739D01*
G01X14625Y84679D01*
G01X14630Y84619D01*
G01X14637Y84559D01*
G01X14646Y84499D01*
G01X14658Y84439D01*
G01X14671Y84380D01*
G01X14674Y84356D01*
G01X14674Y81862D01*
G01X14673Y81846D01*
G01X14669Y81831D01*
G01X14663Y81816D01*
G01X14654Y81803D01*
G01X14644Y81791D01*
G01X10078Y77224D01*
G01X10036Y77181D01*
G01X9995Y77136D01*
G01X9956Y77090D01*
G01X9919Y77042D01*
G01X9883Y76993D01*
G01X9849Y76943D01*
G01X9817Y76892D01*
G01X9786Y76840D01*
G01X9758Y76786D01*
G01X9731Y76732D01*
G01X9705Y76677D01*
G01X9682Y76621D01*
G01X9661Y76564D01*
G01X9642Y76507D01*
G01X9625Y76449D01*
G01X9609Y76391D01*
G01X9596Y76332D01*
G01X9584Y76272D01*
G01X9575Y76212D01*
G01X9568Y76152D01*
G01X9563Y76092D01*
G01X9560Y76031D01*
G01X9559Y75971D01*
G01X9559Y75275D01*
G01X9560Y75214D01*
G01X9563Y75154D01*
G01X9568Y75094D01*
G01X9575Y75034D01*
G01X9584Y74974D01*
G01X9596Y74914D01*
G01X9609Y74855D01*
G01X9625Y74797D01*
G01X9642Y74738D01*
G01X9661Y74681D01*
G01X9682Y74625D01*
G01X9705Y74569D01*
G01X9731Y74513D01*
G01X9758Y74460D01*
G01X9786Y74406D01*
G01X9817Y74354D01*
G01X9849Y74303D01*
G01X9883Y74253D01*
G01X9919Y74204D01*
G01X9956Y74156D01*
G01X9995Y74110D01*
G01X10036Y74065D01*
G01X10078Y74022D01*
G01X10121Y73980D01*
G01X10167Y73939D01*
G01X10213Y73900D01*
G01X10260Y73863D01*
G01X10309Y73827D01*
G01X10359Y73793D01*
G01X10410Y73761D01*
G01X10463Y73730D01*
G01X10516Y73701D01*
G01X10570Y73674D01*
G01X10625Y73649D01*
G01X10681Y73626D01*
G01X10738Y73605D01*
G01X10795Y73585D01*
G01X10853Y73568D01*
G01X10912Y73553D01*
G01X10971Y73539D01*
G01X11030Y73528D01*
G01X11090Y73519D01*
G01X11150Y73512D01*
G01X11211Y73507D01*
G01X11271Y73504D01*
G01X11331Y73503D01*
G01X11331Y73502D01*
G01X11391Y73504D01*
G01X11452Y73507D01*
G01X11511Y73512D01*
G01X11571Y73519D01*
G01X11631Y73528D01*
G01X11690Y73539D01*
G01X11749Y73552D01*
G01X11807Y73567D01*
G01X11864Y73584D01*
G01X11921Y73603D01*
G01X11978Y73624D01*
G01X12034Y73647D01*
G01X12088Y73672D01*
G01X12142Y73699D01*
G01X12195Y73727D01*
G01X12247Y73757D01*
G01X12298Y73789D01*
G01X12348Y73823D01*
G01X12397Y73858D01*
G01X12444Y73895D01*
G01X12490Y73934D01*
G01X12535Y73973D01*
G01X12579Y74015D01*
G01X12621Y74058D01*
G01X12661Y74102D01*
G01X12700Y74149D01*
G01X12738Y74195D01*
G01X12808Y74293D01*
G01X12840Y74344D01*
G01X12871Y74396D01*
G01X12900Y74448D01*
G01X12927Y74502D01*
G01X12952Y74557D01*
G01X12975Y74612D01*
G01X12997Y74668D01*
G01X13016Y74725D01*
G01X13034Y74783D01*
G01X13050Y74841D01*
G01X13064Y74899D01*
G01X13075Y74958D01*
G01X13085Y75017D01*
G01X13093Y75077D01*
G01X13099Y75137D01*
G01X13102Y75197D01*
G01X13104Y75212D01*
G01X13108Y75227D01*
G01X13114Y75240D01*
G01X13122Y75253D01*
G01X13132Y75265D01*
G01X17731Y79864D01*
G01X17773Y79907D01*
G01X17814Y79952D01*
G01X17853Y79998D01*
G01X17890Y80046D01*
G01X17926Y80095D01*
G01X17960Y80145D01*
G01X17992Y80196D01*
G01X18023Y80248D01*
G01X18051Y80302D01*
G01X18078Y80355D01*
G01X18104Y80411D01*
G01X18148Y80523D01*
G01X18167Y80580D01*
G01X18184Y80639D01*
G01X18200Y80697D01*
G01X18213Y80756D01*
G01X18225Y80816D01*
G01X18234Y80876D01*
G01X18241Y80936D01*
G01X18246Y80996D01*
G01X18249Y81056D01*
G01X18250Y81117D01*
G01X18249Y81181D01*
G01X18245Y81246D01*
G01X18240Y81310D01*
G01X18232Y81374D01*
G01X18221Y81438D01*
G01X18219Y81456D01*
G01X18219Y85889D01*
G01X18218Y85950D01*
G01X18215Y86010D01*
G01X18210Y86070D01*
G01X18203Y86130D01*
G01X18194Y86190D01*
G01X18182Y86250D01*
G01X18169Y86309D01*
G01X18166Y86333D01*
G01X18166Y87362D01*
G01X18167Y87378D01*
G01X18171Y87394D01*
G01X18177Y87409D01*
G01X18186Y87423D01*
G01X18197Y87435D01*
G01X18220Y87459D01*
G01X18241Y87485D01*
G01X18261Y87512D01*
G01X18279Y87540D01*
G01X18295Y87569D01*
G01X18309Y87600D01*
G01X18321Y87631D01*
G01X18331Y87663D01*
G01X18338Y87695D01*
G01X18344Y87728D01*
G01X18347Y87762D01*
G01X18348Y87795D01*
G01X18348Y90695D01*
G01X18347Y90728D01*
G01X18344Y90761D01*
G01X18339Y90793D01*
G01X18331Y90825D01*
G01X18322Y90856D01*
G01X18310Y90887D01*
G01X18297Y90917D01*
G01X18281Y90946D01*
G01X18264Y90974D01*
G01X18245Y91001D01*
G01X18224Y91026D01*
G01X18201Y91050D01*
G01X18177Y91073D01*
G01X18152Y91094D01*
G01X18125Y91113D01*
G01X18097Y91130D01*
G01X18068Y91146D01*
G01X18038Y91160D01*
G01X18008Y91171D01*
G01X17976Y91180D01*
G01X17944Y91188D01*
G01X17912Y91193D01*
G01X17879Y91197D01*
G01X17846Y91198D01*
G37*
G36*
G01X21908Y91197D02*
G01X21844Y91198D01*
G01X21779Y91197D01*
G01X21715Y91194D01*
G01X21651Y91188D01*
G01X21588Y91181D01*
G01X21524Y91171D01*
G01X21461Y91160D01*
G01X21399Y91146D01*
G01X21337Y91131D01*
G01X21275Y91113D01*
G01X21214Y91094D01*
G01X21154Y91072D01*
G01X21094Y91048D01*
G01X21036Y91022D01*
G01X20978Y90995D01*
G01X20921Y90966D01*
G01X20865Y90935D01*
G01X20810Y90902D01*
G01X20756Y90867D01*
G01X20704Y90830D01*
G01X20652Y90792D01*
G01X20602Y90752D01*
G01X20553Y90711D01*
G01X20541Y90702D01*
G01X20528Y90695D01*
G01X20515Y90689D01*
G01X20500Y90686D01*
G01X20446Y90678D01*
G01X20392Y90667D01*
G01X20339Y90655D01*
G01X20286Y90640D01*
G01X20234Y90623D01*
G01X20182Y90604D01*
G01X20131Y90584D01*
G01X20081Y90562D01*
G01X20032Y90537D01*
G01X19984Y90511D01*
G01X19936Y90483D01*
G01X19890Y90453D01*
G01X19845Y90422D01*
G01X19801Y90389D01*
G01X19759Y90354D01*
G01X19718Y90318D01*
G01X19678Y90280D01*
G01X19640Y90241D01*
G01X19603Y90200D01*
G01X19568Y90158D01*
G01X19534Y90115D01*
G01X19502Y90070D01*
G01X19472Y90025D01*
G01X19443Y89978D01*
G01X19417Y89930D01*
G01X19392Y89881D01*
G01X19369Y89831D01*
G01X19348Y89781D01*
G01X19328Y89729D01*
G01X19311Y89677D01*
G01X19296Y89624D01*
G01X19282Y89571D01*
G01X19271Y89518D01*
G01X19262Y89463D01*
G01X19255Y89409D01*
G01X19250Y89355D01*
G01X19247Y89300D01*
G01X19245Y89245D01*
G01X19245Y84038D01*
G01X19247Y83984D01*
G01X19250Y83929D01*
G01X19255Y83875D01*
G01X19261Y83821D01*
G01X19270Y83767D01*
G01X19282Y83714D01*
G01X19295Y83662D01*
G01X19310Y83609D01*
G01X19327Y83557D01*
G01X19346Y83506D01*
G01X19367Y83456D01*
G01X19389Y83406D01*
G01X19414Y83358D01*
G01X19440Y83310D01*
G01X19498Y83218D01*
G01X19530Y83174D01*
G01X19563Y83131D01*
G01X19598Y83089D01*
G01X19634Y83048D01*
G01X19671Y83009D01*
G01X22592Y80088D01*
G01X22632Y80050D01*
G01X22673Y80014D01*
G01X22714Y79979D01*
G01X22757Y79946D01*
G01X22802Y79915D01*
G01X22847Y79885D01*
G01X22894Y79857D01*
G01X22942Y79830D01*
G01X22990Y79806D01*
G01X23040Y79783D01*
G01X23090Y79763D01*
G01X23141Y79743D01*
G01X23245Y79711D01*
G01X23298Y79698D01*
G01X23351Y79687D01*
G01X23405Y79678D01*
G01X23458Y79671D01*
G01X23513Y79666D01*
G01X23567Y79663D01*
G01X23622Y79662D01*
G01X25178Y79662D01*
G01X25232Y79663D01*
G01X25286Y79666D01*
G01X25341Y79671D01*
G01X25394Y79678D01*
G01X25448Y79687D01*
G01X25501Y79698D01*
G01X25554Y79711D01*
G01X25658Y79743D01*
G01X25709Y79763D01*
G01X25759Y79783D01*
G01X25809Y79806D01*
G01X25857Y79830D01*
G01X25905Y79857D01*
G01X25952Y79885D01*
G01X25997Y79915D01*
G01X26042Y79946D01*
G01X26085Y79979D01*
G01X26126Y80014D01*
G01X26167Y80050D01*
G01X26207Y80088D01*
G01X26244Y80127D01*
G01X26280Y80168D01*
G01X26315Y80210D01*
G01X26348Y80253D01*
G01X26380Y80297D01*
G01X26438Y80389D01*
G01X26464Y80437D01*
G01X26489Y80485D01*
G01X26511Y80535D01*
G01X26532Y80585D01*
G01X26551Y80636D01*
G01X26568Y80688D01*
G01X26583Y80741D01*
G01X26596Y80793D01*
G01X26608Y80846D01*
G01X26617Y80900D01*
G01X26623Y80954D01*
G01X26628Y81008D01*
G01X26631Y81063D01*
G01X26632Y81117D01*
G01X26631Y81171D01*
G01X26628Y81226D01*
G01X26623Y81280D01*
G01X26617Y81334D01*
G01X26608Y81388D01*
G01X26596Y81441D01*
G01X26583Y81493D01*
G01X26568Y81546D01*
G01X26551Y81598D01*
G01X26532Y81649D01*
G01X26511Y81699D01*
G01X26489Y81748D01*
G01X26464Y81797D01*
G01X26438Y81844D01*
G01X26409Y81891D01*
G01X26380Y81937D01*
G01X26348Y81981D01*
G01X26315Y82024D01*
G01X26280Y82066D01*
G01X26244Y82107D01*
G01X26207Y82146D01*
G01X26167Y82184D01*
G01X26126Y82220D01*
G01X26085Y82255D01*
G01X26042Y82288D01*
G01X25997Y82319D01*
G01X25952Y82349D01*
G01X25905Y82377D01*
G01X25857Y82404D01*
G01X25809Y82428D01*
G01X25759Y82450D01*
G01X25709Y82471D01*
G01X25658Y82491D01*
G01X25554Y82523D01*
G01X25501Y82536D01*
G01X25448Y82547D01*
G01X25394Y82556D01*
G01X25341Y82563D01*
G01X25286Y82568D01*
G01X25232Y82571D01*
G01X25178Y82572D01*
G01X24266Y82572D01*
G01X24250Y82573D01*
G01X24235Y82577D01*
G01X24220Y82583D01*
G01X24207Y82592D01*
G01X24195Y82602D01*
G01X22185Y84611D01*
G01X22175Y84623D01*
G01X22167Y84637D01*
G01X22160Y84652D01*
G01X22157Y84667D01*
G01X22156Y84683D01*
G01X22156Y87233D01*
G01X22157Y87248D01*
G01X22160Y87263D01*
G01X22166Y87277D01*
G01X22174Y87291D01*
G01X22184Y87303D01*
G01X22195Y87313D01*
G01X22208Y87322D01*
G01X22222Y87328D01*
G01X22237Y87332D01*
G01X22299Y87346D01*
G01X22361Y87362D01*
G01X22422Y87380D01*
G01X22482Y87399D01*
G01X22541Y87421D01*
G01X22601Y87445D01*
G01X22659Y87470D01*
G01X22716Y87498D01*
G01X22773Y87527D01*
G01X22828Y87559D01*
G01X22882Y87592D01*
G01X22936Y87626D01*
G01X22988Y87663D01*
G01X23039Y87701D01*
G01X23089Y87741D01*
G01X23137Y87782D01*
G01X23184Y87825D01*
G01X23229Y87869D01*
G01X23274Y87915D01*
G01X23316Y87962D01*
G01X23357Y88011D01*
G01X23396Y88061D01*
G01X23434Y88112D01*
G01X23470Y88164D01*
G01X23504Y88218D01*
G01X23537Y88273D01*
G01X23568Y88329D01*
G01X23597Y88385D01*
G01X23624Y88443D01*
G01X23649Y88501D01*
G01X23672Y88560D01*
G01X23694Y88620D01*
G01X23713Y88681D01*
G01X23730Y88742D01*
G01X23745Y88803D01*
G01X23759Y88866D01*
G01X23770Y88928D01*
G01X23779Y88991D01*
G01X23787Y89054D01*
G01X23792Y89118D01*
G01X23795Y89181D01*
G01X23796Y89245D01*
G01X23795Y89309D01*
G01X23792Y89372D01*
G01X23787Y89436D01*
G01X23779Y89500D01*
G01X23770Y89563D01*
G01X23759Y89626D01*
G01X23745Y89688D01*
G01X23730Y89750D01*
G01X23712Y89812D01*
G01X23693Y89873D01*
G01X23671Y89933D01*
G01X23647Y89992D01*
G01X23622Y90051D01*
G01X23595Y90109D01*
G01X23566Y90165D01*
G01X23535Y90221D01*
G01X23502Y90276D01*
G01X23467Y90330D01*
G01X23393Y90434D01*
G01X23353Y90483D01*
G01X23312Y90532D01*
G01X23268Y90580D01*
G01X23224Y90626D01*
G01X23179Y90670D01*
G01X23131Y90713D01*
G01X23082Y90754D01*
G01X23032Y90794D01*
G01X22981Y90832D01*
G01X22929Y90869D01*
G01X22875Y90903D01*
G01X22820Y90936D01*
G01X22764Y90967D01*
G01X22707Y90996D01*
G01X22649Y91023D01*
G01X22591Y91049D01*
G01X22531Y91072D01*
G01X22471Y91094D01*
G01X22410Y91113D01*
G01X22349Y91131D01*
G01X22287Y91146D01*
G01X22225Y91160D01*
G01X22162Y91171D01*
G01X22099Y91181D01*
G01X22035Y91188D01*
G01X21971Y91194D01*
G01X21908Y91197D01*
G37*
G36*
G01X58095Y89985D02*
G01X58039Y89986D01*
G01X57982Y89985D01*
G01X57926Y89982D01*
G01X57870Y89976D01*
G01X57814Y89969D01*
G01X57759Y89959D01*
G01X57704Y89948D01*
G01X57649Y89934D01*
G01X57596Y89919D01*
G01X57542Y89901D01*
G01X57489Y89881D01*
G01X57438Y89860D01*
G01X57387Y89837D01*
G01X57336Y89811D01*
G01X57287Y89784D01*
G01X57239Y89755D01*
G01X57192Y89724D01*
G01X57146Y89692D01*
G01X57102Y89658D01*
G01X57059Y89622D01*
G01X57016Y89584D01*
G01X56976Y89545D01*
G01X56937Y89505D01*
G01X56900Y89463D01*
G01X56863Y89420D01*
G01X56829Y89375D01*
G01X56797Y89329D01*
G01X56766Y89283D01*
G01X56737Y89234D01*
G01X56710Y89185D01*
G01X56685Y89135D01*
G01X56661Y89084D01*
G01X56639Y89032D01*
G01X56620Y88979D01*
G01X56602Y88926D01*
G01X56587Y88872D01*
G01X56573Y88817D01*
G01X56562Y88762D01*
G01X56553Y88707D01*
G01X56545Y88651D01*
G01X56540Y88595D01*
G01X56537Y88539D01*
G01X56536Y88483D01*
G01X56537Y88427D01*
G01X56540Y88371D01*
G01X56545Y88315D01*
G01X56553Y88259D01*
G01X56562Y88204D01*
G01X56573Y88149D01*
G01X56587Y88094D01*
G01X56602Y88040D01*
G01X56620Y87987D01*
G01X56639Y87934D01*
G01X56661Y87882D01*
G01X56685Y87831D01*
G01X56710Y87781D01*
G01X56737Y87732D01*
G01X56766Y87683D01*
G01X56797Y87637D01*
G01X56829Y87590D01*
G01X56863Y87546D01*
G01X56900Y87503D01*
G01X56937Y87461D01*
G01X56976Y87420D01*
G01X57016Y87381D01*
G01X57059Y87344D01*
G01X57102Y87308D01*
G01X57146Y87274D01*
G01X57192Y87241D01*
G01X57239Y87210D01*
G01X57287Y87181D01*
G01X57336Y87155D01*
G01X57387Y87129D01*
G01X57438Y87106D01*
G01X57489Y87084D01*
G01X57542Y87065D01*
G01X57596Y87047D01*
G01X57649Y87032D01*
G01X57704Y87018D01*
G01X57759Y87006D01*
G01X57814Y86997D01*
G01X57870Y86989D01*
G01X57926Y86984D01*
G01X57982Y86981D01*
G01X58039Y86980D01*
G01X58095Y86981D01*
G01X58151Y86984D01*
G01X58207Y86989D01*
G01X58263Y86997D01*
G01X58318Y87006D01*
G01X58373Y87018D01*
G01X58428Y87032D01*
G01X58481Y87047D01*
G01X58535Y87065D01*
G01X58588Y87084D01*
G01X58639Y87106D01*
G01X58690Y87129D01*
G01X58741Y87155D01*
G01X58790Y87181D01*
G01X58838Y87210D01*
G01X58885Y87241D01*
G01X58931Y87274D01*
G01X58975Y87308D01*
G01X59018Y87344D01*
G01X59061Y87381D01*
G01X59101Y87420D01*
G01X59140Y87461D01*
G01X59177Y87503D01*
G01X59214Y87546D01*
G01X59248Y87590D01*
G01X59280Y87637D01*
G01X59311Y87683D01*
G01X59340Y87732D01*
G01X59367Y87781D01*
G01X59392Y87831D01*
G01X59416Y87882D01*
G01X59438Y87934D01*
G01X59457Y87987D01*
G01X59475Y88040D01*
G01X59490Y88094D01*
G01X59504Y88149D01*
G01X59515Y88204D01*
G01X59524Y88259D01*
G01X59532Y88315D01*
G01X59537Y88371D01*
G01X59540Y88427D01*
G01X59541Y88483D01*
G01X59540Y88539D01*
G01X59537Y88595D01*
G01X59532Y88651D01*
G01X59524Y88707D01*
G01X59515Y88762D01*
G01X59504Y88817D01*
G01X59490Y88872D01*
G01X59475Y88926D01*
G01X59457Y88979D01*
G01X59438Y89032D01*
G01X59416Y89084D01*
G01X59392Y89135D01*
G01X59367Y89185D01*
G01X59340Y89234D01*
G01X59311Y89283D01*
G01X59280Y89329D01*
G01X59248Y89375D01*
G01X59214Y89420D01*
G01X59177Y89463D01*
G01X59140Y89505D01*
G01X59101Y89545D01*
G01X59061Y89584D01*
G01X59018Y89622D01*
G01X58975Y89658D01*
G01X58931Y89692D01*
G01X58885Y89724D01*
G01X58838Y89755D01*
G01X58790Y89784D01*
G01X58741Y89811D01*
G01X58690Y89837D01*
G01X58639Y89860D01*
G01X58588Y89881D01*
G01X58535Y89901D01*
G01X58481Y89919D01*
G01X58428Y89934D01*
G01X58373Y89948D01*
G01X58318Y89959D01*
G01X58263Y89969D01*
G01X58207Y89976D01*
G01X58151Y89982D01*
G01X58095Y89985D01*
G37*
G36*
G01X71839Y94779D02*
G01X71755Y94780D01*
G01X71670Y94779D01*
G01X71585Y94776D01*
G01X71501Y94770D01*
G01X71417Y94763D01*
G01X71332Y94754D01*
G01X71249Y94743D01*
G01X71165Y94730D01*
G01X71081Y94715D01*
G01X70999Y94697D01*
G01X70916Y94678D01*
G01X70835Y94657D01*
G01X70753Y94633D01*
G01X70672Y94608D01*
G01X70592Y94581D01*
G01X70512Y94552D01*
G01X70434Y94521D01*
G01X70355Y94488D01*
G01X70278Y94453D01*
G01X70202Y94417D01*
G01X70127Y94378D01*
G01X70052Y94338D01*
G01X69979Y94296D01*
G01X69906Y94252D01*
G01X69835Y94207D01*
G01X69765Y94159D01*
G01X69696Y94111D01*
G01X69628Y94060D01*
G01X69561Y94008D01*
G01X69496Y93954D01*
G01X69432Y93899D01*
G01X69369Y93842D01*
G01X69308Y93783D01*
G01X69248Y93723D01*
G01X69190Y93663D01*
G01X69133Y93600D01*
G01X69077Y93536D01*
G01X69023Y93470D01*
G01X68971Y93403D01*
G01X68921Y93336D01*
G01X68872Y93267D01*
G01X68825Y93197D01*
G01X68779Y93125D01*
G01X68735Y93052D01*
G01X68693Y92979D01*
G01X68653Y92905D01*
G01X68615Y92829D01*
G01X68578Y92753D01*
G01X68543Y92676D01*
G01X68510Y92598D01*
G01X68479Y92519D01*
G01X68450Y92440D01*
G01X68423Y92359D01*
G01X68398Y92279D01*
G01X68375Y92197D01*
G01X68353Y92115D01*
G01X68334Y92033D01*
G01X68317Y91950D01*
G01X68302Y91867D01*
G01X68288Y91783D01*
G01X68277Y91699D01*
G01X68268Y91615D01*
G01X68261Y91530D01*
G01X68256Y91446D01*
G01X68253Y91362D01*
G01X68252Y91277D01*
G01X68253Y91192D01*
G01X68256Y91108D01*
G01X68261Y91023D01*
G01X68268Y90939D01*
G01X68277Y90855D01*
G01X68288Y90771D01*
G01X68302Y90687D01*
G01X68317Y90604D01*
G01X68334Y90521D01*
G01X68353Y90439D01*
G01X68375Y90357D01*
G01X68398Y90275D01*
G01X68423Y90194D01*
G01X68450Y90114D01*
G01X68479Y90035D01*
G01X68510Y89956D01*
G01X68543Y89878D01*
G01X68578Y89801D01*
G01X68615Y89724D01*
G01X68653Y89649D01*
G01X68693Y89575D01*
G01X68735Y89501D01*
G01X68779Y89429D01*
G01X68825Y89357D01*
G01X68872Y89287D01*
G01X68921Y89218D01*
G01X68971Y89150D01*
G01X69023Y89083D01*
G01X69077Y89018D01*
G01X69133Y88954D01*
G01X69190Y88891D01*
G01X69248Y88830D01*
G01X69308Y88770D01*
G01X69369Y88712D01*
G01X69432Y88655D01*
G01X69496Y88600D01*
G01X69561Y88546D01*
G01X69628Y88494D01*
G01X69696Y88443D01*
G01X69765Y88395D01*
G01X69835Y88347D01*
G01X69906Y88302D01*
G01X69979Y88258D01*
G01X70052Y88216D01*
G01X70127Y88176D01*
G01X70202Y88137D01*
G01X70278Y88100D01*
G01X70355Y88066D01*
G01X70434Y88033D01*
G01X70512Y88002D01*
G01X70592Y87973D01*
G01X70672Y87945D01*
G01X70753Y87921D01*
G01X70835Y87897D01*
G01X70916Y87876D01*
G01X70999Y87857D01*
G01X71081Y87839D01*
G01X71165Y87824D01*
G01X71249Y87811D01*
G01X71332Y87800D01*
G01X71417Y87791D01*
G01X71501Y87783D01*
G01X71585Y87778D01*
G01X71670Y87775D01*
G01X71755Y87774D01*
G01X71839Y87775D01*
G01X71924Y87778D01*
G01X72008Y87783D01*
G01X72092Y87791D01*
G01X72177Y87800D01*
G01X72260Y87811D01*
G01X72344Y87824D01*
G01X72428Y87839D01*
G01X72510Y87857D01*
G01X72593Y87876D01*
G01X72674Y87897D01*
G01X72756Y87921D01*
G01X72837Y87945D01*
G01X72917Y87973D01*
G01X72997Y88002D01*
G01X73075Y88033D01*
G01X73154Y88066D01*
G01X73231Y88100D01*
G01X73307Y88137D01*
G01X73382Y88176D01*
G01X73457Y88216D01*
G01X73530Y88258D01*
G01X73603Y88302D01*
G01X73674Y88347D01*
G01X73744Y88395D01*
G01X73813Y88443D01*
G01X73881Y88494D01*
G01X73948Y88546D01*
G01X74013Y88600D01*
G01X74077Y88655D01*
G01X74140Y88712D01*
G01X74201Y88770D01*
G01X74261Y88830D01*
G01X74319Y88891D01*
G01X74376Y88954D01*
G01X74432Y89018D01*
G01X74486Y89083D01*
G01X74538Y89150D01*
G01X74588Y89218D01*
G01X74637Y89287D01*
G01X74684Y89357D01*
G01X74730Y89429D01*
G01X74774Y89501D01*
G01X74816Y89575D01*
G01X74856Y89649D01*
G01X74894Y89724D01*
G01X74931Y89801D01*
G01X74966Y89878D01*
G01X74999Y89956D01*
G01X75030Y90035D01*
G01X75059Y90114D01*
G01X75086Y90194D01*
G01X75111Y90275D01*
G01X75134Y90357D01*
G01X75156Y90439D01*
G01X75175Y90521D01*
G01X75192Y90604D01*
G01X75207Y90687D01*
G01X75221Y90771D01*
G01X75232Y90855D01*
G01X75241Y90939D01*
G01X75248Y91023D01*
G01X75253Y91108D01*
G01X75256Y91192D01*
G01X75257Y91277D01*
G01X75256Y91362D01*
G01X75253Y91446D01*
G01X75248Y91530D01*
G01X75241Y91615D01*
G01X75232Y91699D01*
G01X75221Y91783D01*
G01X75207Y91867D01*
G01X75192Y91950D01*
G01X75175Y92033D01*
G01X75156Y92115D01*
G01X75134Y92197D01*
G01X75111Y92279D01*
G01X75086Y92359D01*
G01X75059Y92440D01*
G01X75030Y92519D01*
G01X74999Y92598D01*
G01X74966Y92676D01*
G01X74931Y92753D01*
G01X74894Y92829D01*
G01X74856Y92905D01*
G01X74816Y92979D01*
G01X74774Y93052D01*
G01X74730Y93125D01*
G01X74684Y93197D01*
G01X74637Y93267D01*
G01X74588Y93336D01*
G01X74538Y93403D01*
G01X74486Y93470D01*
G01X74432Y93536D01*
G01X74376Y93600D01*
G01X74319Y93663D01*
G01X74261Y93723D01*
G01X74201Y93783D01*
G01X74140Y93842D01*
G01X74077Y93899D01*
G01X74013Y93954D01*
G01X73948Y94008D01*
G01X73881Y94060D01*
G01X73813Y94111D01*
G01X73744Y94159D01*
G01X73674Y94207D01*
G01X73603Y94252D01*
G01X73530Y94296D01*
G01X73457Y94338D01*
G01X73382Y94378D01*
G01X73307Y94417D01*
G01X73231Y94453D01*
G01X73154Y94488D01*
G01X73075Y94521D01*
G01X72997Y94552D01*
G01X72917Y94581D01*
G01X72837Y94608D01*
G01X72756Y94633D01*
G01X72674Y94657D01*
G01X72593Y94678D01*
G01X72510Y94697D01*
G01X72428Y94715D01*
G01X72344Y94730D01*
G01X72260Y94743D01*
G01X72177Y94754D01*
G01X72092Y94763D01*
G01X72008Y94770D01*
G01X71924Y94776D01*
G01X71839Y94779D01*
G37*
G36*
G01X36888Y94931D02*
G01X36830Y94933D01*
G01X36771Y94931D01*
G01X36712Y94928D01*
G01X36653Y94923D01*
G01X36594Y94916D01*
G01X36536Y94906D01*
G01X36478Y94895D01*
G01X36421Y94881D01*
G01X36364Y94865D01*
G01X36308Y94848D01*
G01X36252Y94828D01*
G01X36197Y94807D01*
G01X36143Y94783D01*
G01X36090Y94758D01*
G01X36038Y94730D01*
G01X35986Y94701D01*
G01X35936Y94670D01*
G01X35887Y94637D01*
G01X35839Y94603D01*
G01X35793Y94567D01*
G01X35747Y94529D01*
G01X35703Y94490D01*
G01X35661Y94448D01*
G01X35620Y94406D01*
G01X35580Y94362D01*
G01X35543Y94317D01*
G01X35507Y94271D01*
G01X35472Y94222D01*
G01X35439Y94174D01*
G01X35408Y94123D01*
G01X35379Y94072D01*
G01X35352Y94020D01*
G01X35326Y93966D01*
G01X35302Y93912D01*
G01X35281Y93858D01*
G01X35261Y93802D01*
G01X35244Y93745D01*
G01X35228Y93688D01*
G01X35215Y93631D01*
G01X35203Y93574D01*
G01X35194Y93515D01*
G01X35186Y93457D01*
G01X35181Y93398D01*
G01X35178Y93339D01*
G01X35177Y93280D01*
G01X35178Y93221D01*
G01X35181Y93162D01*
G01X35186Y93103D01*
G01X35194Y93045D01*
G01X35203Y92986D01*
G01X35215Y92928D01*
G01X35228Y92871D01*
G01X35244Y92814D01*
G01X35261Y92758D01*
G01X35281Y92702D01*
G01X35302Y92648D01*
G01X35326Y92593D01*
G01X35352Y92540D01*
G01X35379Y92488D01*
G01X35408Y92437D01*
G01X35439Y92386D01*
G01X35472Y92337D01*
G01X35507Y92289D01*
G01X35543Y92243D01*
G01X35580Y92197D01*
G01X35620Y92154D01*
G01X35661Y92111D01*
G01X35703Y92070D01*
G01X35747Y92031D01*
G01X35793Y91993D01*
G01X35839Y91957D01*
G01X35887Y91923D01*
G01X35936Y91890D01*
G01X35986Y91859D01*
G01X36038Y91830D01*
G01X36090Y91802D01*
G01X36143Y91777D01*
G01X36197Y91753D01*
G01X36252Y91732D01*
G01X36308Y91712D01*
G01X36364Y91694D01*
G01X36421Y91679D01*
G01X36478Y91665D01*
G01X36536Y91653D01*
G01X36594Y91644D01*
G01X36653Y91637D01*
G01X36712Y91632D01*
G01X36771Y91628D01*
G01X36830Y91627D01*
G01X36888Y91628D01*
G01X36947Y91632D01*
G01X37006Y91637D01*
G01X37065Y91644D01*
G01X37123Y91653D01*
G01X37181Y91665D01*
G01X37238Y91679D01*
G01X37295Y91694D01*
G01X37351Y91712D01*
G01X37407Y91732D01*
G01X37462Y91753D01*
G01X37516Y91777D01*
G01X37569Y91802D01*
G01X37621Y91830D01*
G01X37673Y91859D01*
G01X37723Y91890D01*
G01X37772Y91923D01*
G01X37820Y91957D01*
G01X37866Y91993D01*
G01X37912Y92031D01*
G01X37956Y92070D01*
G01X37998Y92111D01*
G01X38039Y92154D01*
G01X38079Y92197D01*
G01X38116Y92243D01*
G01X38152Y92289D01*
G01X38187Y92337D01*
G01X38220Y92386D01*
G01X38251Y92437D01*
G01X38280Y92488D01*
G01X38307Y92540D01*
G01X38333Y92593D01*
G01X38357Y92648D01*
G01X38378Y92702D01*
G01X38398Y92758D01*
G01X38415Y92814D01*
G01X38431Y92871D01*
G01X38444Y92928D01*
G01X38456Y92986D01*
G01X38465Y93045D01*
G01X38473Y93103D01*
G01X38478Y93162D01*
G01X38481Y93221D01*
G01X38482Y93280D01*
G01X38481Y93339D01*
G01X38478Y93398D01*
G01X38473Y93457D01*
G01X38465Y93515D01*
G01X38456Y93574D01*
G01X38444Y93631D01*
G01X38431Y93688D01*
G01X38415Y93745D01*
G01X38398Y93802D01*
G01X38378Y93858D01*
G01X38357Y93912D01*
G01X38333Y93966D01*
G01X38307Y94020D01*
G01X38280Y94072D01*
G01X38251Y94123D01*
G01X38220Y94174D01*
G01X38187Y94222D01*
G01X38152Y94271D01*
G01X38116Y94317D01*
G01X38079Y94362D01*
G01X38039Y94406D01*
G01X37998Y94448D01*
G01X37956Y94490D01*
G01X37912Y94529D01*
G01X37866Y94567D01*
G01X37820Y94603D01*
G01X37772Y94637D01*
G01X37723Y94670D01*
G01X37673Y94701D01*
G01X37621Y94730D01*
G01X37569Y94758D01*
G01X37516Y94783D01*
G01X37462Y94807D01*
G01X37407Y94828D01*
G01X37351Y94848D01*
G01X37295Y94865D01*
G01X37238Y94881D01*
G01X37181Y94895D01*
G01X37123Y94906D01*
G01X37065Y94916D01*
G01X37006Y94923D01*
G01X36947Y94928D01*
G01X36888Y94931D01*
G37*

%LPD*%
G36*
G01X66204Y47687D02*
G01X66129Y47687D01*
G01X66113Y47686D01*
G01X66098Y47682D01*
G01X66083Y47676D01*
G01X66070Y47668D01*
G01X66058Y47658D01*
G01X66048Y47646D01*
G01X66039Y47633D01*
G01X66017Y47592D01*
G01X65993Y47554D01*
G01X65968Y47516D01*
G01X65940Y47480D01*
G01X65912Y47445D01*
G01X65882Y47411D01*
G01X65850Y47378D01*
G01X65816Y47347D01*
G01X65781Y47318D01*
G01X65745Y47290D01*
G01X65708Y47264D01*
G01X65670Y47239D01*
G01X65631Y47217D01*
G01X65590Y47196D01*
G01X65549Y47177D01*
G01X65507Y47160D01*
G01X65463Y47144D01*
G01X65420Y47131D01*
G01X65376Y47120D01*
G01X65331Y47111D01*
G01X65287Y47104D01*
G01X65241Y47098D01*
G01X65196Y47095D01*
G01X65151Y47094D01*
G01X65105Y47095D01*
G01X65060Y47098D01*
G01X65015Y47103D01*
G01X64970Y47110D01*
G01X64925Y47120D01*
G01X64882Y47131D01*
G01X64838Y47144D01*
G01X64795Y47159D01*
G01X64754Y47176D01*
G01X64712Y47195D01*
G01X64672Y47216D01*
G01X64633Y47238D01*
G01X64594Y47263D01*
G01X64557Y47289D01*
G01X64521Y47316D01*
G01X64487Y47346D01*
G01X64454Y47377D01*
G01X64422Y47409D01*
G01X64391Y47442D01*
G01X64362Y47477D01*
G01X64335Y47514D01*
G01X64309Y47551D01*
G01X64286Y47589D01*
G01X64277Y47602D01*
G01X64267Y47613D01*
G01X64255Y47622D01*
G01X64242Y47630D01*
G01X64228Y47635D01*
G01X64213Y47639D01*
G01X64198Y47640D01*
G01X64183Y47639D01*
G01X64168Y47635D01*
G01X64154Y47630D01*
G01X64141Y47622D01*
G01X64129Y47613D01*
G01X64119Y47602D01*
G01X64110Y47589D01*
G01X64087Y47551D01*
G01X64061Y47514D01*
G01X64034Y47477D01*
G01X64005Y47442D01*
G01X63974Y47409D01*
G01X63942Y47377D01*
G01X63909Y47346D01*
G01X63875Y47316D01*
G01X63839Y47289D01*
G01X63802Y47263D01*
G01X63763Y47238D01*
G01X63724Y47216D01*
G01X63684Y47195D01*
G01X63642Y47176D01*
G01X63601Y47159D01*
G01X63558Y47144D01*
G01X63514Y47131D01*
G01X63471Y47120D01*
G01X63426Y47110D01*
G01X63381Y47103D01*
G01X63336Y47098D01*
G01X63291Y47095D01*
G01X63246Y47094D01*
G01X63200Y47095D01*
G01X63155Y47098D01*
G01X63110Y47103D01*
G01X63065Y47110D01*
G01X63020Y47120D01*
G01X62977Y47131D01*
G01X62933Y47144D01*
G01X62890Y47159D01*
G01X62849Y47176D01*
G01X62807Y47195D01*
G01X62767Y47216D01*
G01X62728Y47238D01*
G01X62689Y47263D01*
G01X62652Y47289D01*
G01X62616Y47316D01*
G01X62582Y47346D01*
G01X62549Y47377D01*
G01X62517Y47409D01*
G01X62486Y47442D01*
G01X62457Y47477D01*
G01X62430Y47514D01*
G01X62404Y47551D01*
G01X62381Y47589D01*
G01X62372Y47602D01*
G01X62362Y47613D01*
G01X62350Y47622D01*
G01X62337Y47630D01*
G01X62323Y47635D01*
G01X62308Y47639D01*
G01X62293Y47640D01*
G01X62278Y47639D01*
G01X62263Y47635D01*
G01X62249Y47630D01*
G01X62236Y47622D01*
G01X62224Y47613D01*
G01X62214Y47602D01*
G01X62205Y47589D01*
G01X62182Y47551D01*
G01X62156Y47514D01*
G01X62129Y47477D01*
G01X62100Y47442D01*
G01X62069Y47409D01*
G01X62037Y47377D01*
G01X62004Y47346D01*
G01X61970Y47316D01*
G01X61934Y47289D01*
G01X61897Y47263D01*
G01X61858Y47238D01*
G01X61819Y47216D01*
G01X61779Y47195D01*
G01X61737Y47176D01*
G01X61696Y47159D01*
G01X61653Y47144D01*
G01X61609Y47131D01*
G01X61566Y47120D01*
G01X61521Y47110D01*
G01X61476Y47103D01*
G01X61431Y47098D01*
G01X61386Y47095D01*
G01X61341Y47094D01*
G01X61295Y47095D01*
G01X61249Y47099D01*
G01X61203Y47104D01*
G01X61158Y47111D01*
G01X61112Y47121D01*
G01X61068Y47132D01*
G01X61024Y47145D01*
G01X60981Y47161D01*
G01X60938Y47178D01*
G01X60897Y47198D01*
G01X60856Y47219D01*
G01X60816Y47242D01*
G01X60778Y47267D01*
G01X60740Y47294D01*
G01X60704Y47322D01*
G01X60669Y47352D01*
G01X60635Y47384D01*
G01X60603Y47417D01*
G01X60573Y47451D01*
G01X60544Y47487D01*
G01X60518Y47524D01*
G01X60507Y47537D01*
G01X60495Y47548D01*
G01X60481Y47556D01*
G01X60466Y47563D01*
G01X60450Y47567D01*
G01X60434Y47568D01*
G01X60409Y47565D01*
G01X60378Y47559D01*
G01X60347Y47557D01*
G01X358Y47558D01*
G01X343Y47557D01*
G01X329Y47554D01*
G01X315Y47549D01*
G01X303Y47542D01*
G01X291Y47534D01*
G01X281Y47523D01*
G01X272Y47512D01*
G01X265Y47499D01*
G01X260Y47485D01*
G01X257Y47471D01*
G01X256Y47457D01*
G01X256Y31171D01*
G01X257Y31157D01*
G01X260Y31143D01*
G01X265Y31129D01*
G01X272Y31117D01*
G01X281Y31105D01*
G01X291Y31095D01*
G01X303Y31086D01*
G01X315Y31079D01*
G01X329Y31074D01*
G01X343Y31071D01*
G01X358Y31070D01*
G01X372Y31071D01*
G01X387Y31074D01*
G01X401Y31079D01*
G01X414Y31087D01*
G01X426Y31096D01*
G01X436Y31107D01*
G01X445Y31119D01*
G01X451Y31132D01*
G01X486Y31211D01*
G01X521Y31289D01*
G01X559Y31365D01*
G01X599Y31442D01*
G01X641Y31516D01*
G01X684Y31590D01*
G01X729Y31663D01*
G01X776Y31735D01*
G01X825Y31805D01*
G01X875Y31874D01*
G01X927Y31943D01*
G01X981Y32010D01*
G01X1036Y32075D01*
G01X1093Y32139D01*
G01X1152Y32202D01*
G01X1212Y32263D01*
G01X1273Y32323D01*
G01X1336Y32380D01*
G01X1401Y32437D01*
G01X1466Y32492D01*
G01X1533Y32546D01*
G01X1671Y32648D01*
G01X1742Y32696D01*
G01X1814Y32743D01*
G01X1887Y32787D01*
G01X1961Y32831D01*
G01X2036Y32872D01*
G01X2112Y32911D01*
G01X2189Y32948D01*
G01X2267Y32984D01*
G01X2346Y33017D01*
G01X2426Y33049D01*
G01X2506Y33079D01*
G01X2587Y33107D01*
G01X2669Y33133D01*
G01X2751Y33157D01*
G01X2834Y33179D01*
G01X2917Y33198D01*
G01X3001Y33216D01*
G01X3086Y33231D01*
G01X3170Y33245D01*
G01X3255Y33256D01*
G01X3340Y33266D01*
G01X3425Y33273D01*
G01X3511Y33279D01*
G01X3597Y33282D01*
G01X3683Y33283D01*
G01X3767Y33282D01*
G01X3852Y33279D01*
G01X3936Y33274D01*
G01X4020Y33266D01*
G01X4105Y33257D01*
G01X4188Y33246D01*
G01X4272Y33233D01*
G01X4356Y33218D01*
G01X4438Y33200D01*
G01X4521Y33181D01*
G01X4602Y33160D01*
G01X4684Y33136D01*
G01X4765Y33111D01*
G01X4845Y33084D01*
G01X4925Y33055D01*
G01X5003Y33024D01*
G01X5082Y32991D01*
G01X5159Y32957D01*
G01X5235Y32920D01*
G01X5310Y32881D01*
G01X5385Y32841D01*
G01X5458Y32799D01*
G01X5531Y32755D01*
G01X5602Y32710D01*
G01X5672Y32662D01*
G01X5741Y32614D01*
G01X5809Y32563D01*
G01X5876Y32511D01*
G01X5941Y32457D01*
G01X6005Y32402D01*
G01X6068Y32345D01*
G01X6129Y32286D01*
G01X6189Y32227D01*
G01X6247Y32166D01*
G01X6304Y32103D01*
G01X6360Y32039D01*
G01X6414Y31974D01*
G01X6466Y31906D01*
G01X6516Y31839D01*
G01X6565Y31770D01*
G01X6612Y31700D01*
G01X6658Y31628D01*
G01X6702Y31555D01*
G01X6744Y31482D01*
G01X6784Y31408D01*
G01X6822Y31332D01*
G01X6859Y31256D01*
G01X6894Y31179D01*
G01X6927Y31101D01*
G01X6958Y31022D01*
G01X6987Y30943D01*
G01X7014Y30863D01*
G01X7039Y30782D01*
G01X7062Y30700D01*
G01X7084Y30618D01*
G01X7103Y30536D01*
G01X7120Y30453D01*
G01X7135Y30370D01*
G01X7149Y30286D01*
G01X7160Y30202D01*
G01X7169Y30118D01*
G01X7176Y30033D01*
G01X7181Y29949D01*
G01X7184Y29865D01*
G01X7185Y29780D01*
G01X7184Y29695D01*
G01X7181Y29611D01*
G01X7176Y29526D01*
G01X7169Y29442D01*
G01X7160Y29358D01*
G01X7149Y29274D01*
G01X7135Y29190D01*
G01X7120Y29107D01*
G01X7103Y29024D01*
G01X7084Y28942D01*
G01X7062Y28860D01*
G01X7039Y28778D01*
G01X7014Y28697D01*
G01X6987Y28617D01*
G01X6958Y28538D01*
G01X6927Y28459D01*
G01X6894Y28381D01*
G01X6859Y28304D01*
G01X6822Y28228D01*
G01X6784Y28152D01*
G01X6744Y28078D01*
G01X6702Y28005D01*
G01X6658Y27932D01*
G01X6612Y27860D01*
G01X6565Y27790D01*
G01X6516Y27721D01*
G01X6466Y27653D01*
G01X6414Y27586D01*
G01X6360Y27521D01*
G01X6304Y27457D01*
G01X6247Y27394D01*
G01X6189Y27333D01*
G01X6129Y27274D01*
G01X6068Y27215D01*
G01X6005Y27158D01*
G01X5941Y27103D01*
G01X5876Y27049D01*
G01X5809Y26997D01*
G01X5741Y26946D01*
G01X5672Y26898D01*
G01X5602Y26850D01*
G01X5531Y26805D01*
G01X5458Y26761D01*
G01X5385Y26719D01*
G01X5310Y26679D01*
G01X5235Y26640D01*
G01X5159Y26603D01*
G01X5082Y26569D01*
G01X5003Y26536D01*
G01X4925Y26505D01*
G01X4845Y26476D01*
G01X4765Y26449D01*
G01X4684Y26424D01*
G01X4602Y26400D01*
G01X4521Y26379D01*
G01X4438Y26360D01*
G01X4356Y26342D01*
G01X4272Y26327D01*
G01X4188Y26314D01*
G01X4105Y26303D01*
G01X4020Y26294D01*
G01X3936Y26286D01*
G01X3852Y26281D01*
G01X3767Y26278D01*
G01X3683Y26277D01*
G01X3597Y26278D01*
G01X3511Y26281D01*
G01X3425Y26287D01*
G01X3340Y26294D01*
G01X3255Y26304D01*
G01X3170Y26315D01*
G01X3086Y26329D01*
G01X3001Y26344D01*
G01X2917Y26362D01*
G01X2834Y26381D01*
G01X2751Y26403D01*
G01X2669Y26427D01*
G01X2587Y26453D01*
G01X2506Y26481D01*
G01X2426Y26510D01*
G01X2346Y26543D01*
G01X2267Y26576D01*
G01X2189Y26612D01*
G01X2112Y26649D01*
G01X2036Y26688D01*
G01X1961Y26729D01*
G01X1887Y26773D01*
G01X1814Y26817D01*
G01X1742Y26864D01*
G01X1671Y26912D01*
G01X1533Y27014D01*
G01X1466Y27068D01*
G01X1401Y27123D01*
G01X1336Y27180D01*
G01X1273Y27237D01*
G01X1212Y27297D01*
G01X1152Y27358D01*
G01X1093Y27421D01*
G01X1036Y27485D01*
G01X981Y27550D01*
G01X927Y27617D01*
G01X875Y27686D01*
G01X825Y27755D01*
G01X776Y27825D01*
G01X729Y27897D01*
G01X684Y27969D01*
G01X641Y28044D01*
G01X599Y28118D01*
G01X559Y28195D01*
G01X521Y28271D01*
G01X486Y28349D01*
G01X451Y28428D01*
G01X445Y28441D01*
G01X436Y28453D01*
G01X426Y28464D01*
G01X414Y28473D01*
G01X401Y28481D01*
G01X387Y28486D01*
G01X372Y28489D01*
G01X358Y28490D01*
G01X343Y28489D01*
G01X329Y28486D01*
G01X315Y28481D01*
G01X303Y28474D01*
G01X291Y28465D01*
G01X281Y28455D01*
G01X272Y28443D01*
G01X265Y28431D01*
G01X260Y28417D01*
G01X257Y28403D01*
G01X256Y28389D01*
G01X256Y420D01*
G01X257Y406D01*
G01X260Y392D01*
G01X265Y378D01*
G01X272Y365D01*
G01X281Y354D01*
G01X291Y343D01*
G01X303Y335D01*
G01X315Y328D01*
G01X329Y323D01*
G01X343Y320D01*
G01X358Y319D01*
G01X5207Y319D01*
G01X17856Y308D01*
G01X17870Y309D01*
G01X17884Y312D01*
G01X17898Y318D01*
G01X17911Y325D01*
G01X17922Y333D01*
G01X17932Y343D01*
G01X17941Y355D01*
G01X17948Y368D01*
G01X17953Y382D01*
G01X17956Y396D01*
G01X17957Y410D01*
G01X17956Y426D01*
G01X17952Y442D01*
G01X17946Y457D01*
G01X17937Y470D01*
G01X17927Y483D01*
G01X17914Y493D01*
G01X17900Y501D01*
G01X17842Y531D01*
G01X17786Y563D01*
G01X17730Y597D01*
G01X17675Y632D01*
G01X17571Y710D01*
G01X17520Y752D01*
G01X17472Y796D01*
G01X17425Y841D01*
G01X14725Y3541D01*
G01X14713Y3551D01*
G01X14699Y3559D01*
G01X14685Y3565D01*
G01X14669Y3569D01*
G01X14653Y3570D01*
G01X13803Y3570D01*
G01X13770Y3571D01*
G01X13737Y3575D01*
G01X13705Y3580D01*
G01X13673Y3588D01*
G01X13641Y3597D01*
G01X13610Y3608D01*
G01X13580Y3622D01*
G01X13551Y3638D01*
G01X13523Y3655D01*
G01X13497Y3674D01*
G01X13471Y3695D01*
G01X13447Y3718D01*
G01X13425Y3741D01*
G01X13404Y3767D01*
G01X13385Y3794D01*
G01X13368Y3822D01*
G01X13352Y3851D01*
G01X13339Y3881D01*
G01X13327Y3912D01*
G01X13317Y3943D01*
G01X13310Y3975D01*
G01X13305Y4007D01*
G01X13301Y4040D01*
G01X13300Y4073D01*
G01X13300Y6973D01*
G01X13301Y7006D01*
G01X13305Y7039D01*
G01X13310Y7071D01*
G01X13317Y7103D01*
G01X13327Y7134D01*
G01X13339Y7165D01*
G01X13352Y7195D01*
G01X13368Y7224D01*
G01X13385Y7252D01*
G01X13404Y7279D01*
G01X13425Y7305D01*
G01X13447Y7328D01*
G01X13471Y7351D01*
G01X13497Y7372D01*
G01X13523Y7391D01*
G01X13551Y7408D01*
G01X13580Y7424D01*
G01X13610Y7438D01*
G01X13641Y7449D01*
G01X13673Y7458D01*
G01X13705Y7466D01*
G01X13737Y7471D01*
G01X13770Y7475D01*
G01X13803Y7476D01*
G01X13937Y7476D01*
G01X13951Y7477D01*
G01X13965Y7480D01*
G01X13979Y7485D01*
G01X13992Y7492D01*
G01X14003Y7501D01*
G01X14014Y7511D01*
G01X14022Y7522D01*
G01X14029Y7535D01*
G01X14034Y7549D01*
G01X14037Y7563D01*
G01X14038Y7577D01*
G01X14039Y11492D01*
G01X14039Y13936D01*
G01X14038Y13950D01*
G01X14035Y13964D01*
G01X14029Y13978D01*
G01X14023Y13991D01*
G01X14014Y14002D01*
G01X14004Y14013D01*
G01X13992Y14021D01*
G01X13980Y14028D01*
G01X13966Y14033D01*
G01X13952Y14036D01*
G01X13937Y14038D01*
G01X10033Y14037D01*
G01X9972Y14039D01*
G01X9912Y14042D01*
G01X9851Y14047D01*
G01X9791Y14054D01*
G01X9731Y14063D01*
G01X9672Y14074D01*
G01X9613Y14088D01*
G01X9554Y14103D01*
G01X9496Y14120D01*
G01X9439Y14140D01*
G01X9382Y14161D01*
G01X9326Y14184D01*
G01X9271Y14209D01*
G01X9217Y14236D01*
G01X9164Y14265D01*
G01X9111Y14296D01*
G01X9060Y14328D01*
G01X9010Y14362D01*
G01X8962Y14398D01*
G01X8914Y14435D01*
G01X8868Y14474D01*
G01X8822Y14515D01*
G01X8779Y14557D01*
G01X8271Y15065D01*
G01X8229Y15108D01*
G01X8188Y15153D01*
G01X8149Y15199D01*
G01X8112Y15247D01*
G01X8076Y15296D01*
G01X8042Y15346D01*
G01X8010Y15397D01*
G01X7979Y15449D01*
G01X7951Y15503D01*
G01X7924Y15556D01*
G01X7898Y15612D01*
G01X7854Y15724D01*
G01X7835Y15782D01*
G01X7818Y15840D01*
G01X7802Y15898D01*
G01X7789Y15957D01*
G01X7777Y16017D01*
G01X7768Y16077D01*
G01X7761Y16137D01*
G01X7756Y16197D01*
G01X7753Y16258D01*
G01X7752Y16318D01*
G01X7752Y19465D01*
G01X7753Y19525D01*
G01X7756Y19586D01*
G01X7761Y19646D01*
G01X7768Y19706D01*
G01X7777Y19766D01*
G01X7789Y19826D01*
G01X7802Y19885D01*
G01X7818Y19943D01*
G01X7835Y20001D01*
G01X7854Y20058D01*
G01X7876Y20115D01*
G01X7898Y20171D01*
G01X7924Y20227D01*
G01X7951Y20280D01*
G01X7979Y20334D01*
G01X8010Y20386D01*
G01X8042Y20437D01*
G01X8076Y20487D01*
G01X8112Y20536D01*
G01X8149Y20584D01*
G01X8188Y20630D01*
G01X8229Y20675D01*
G01X8271Y20718D01*
G01X10077Y22524D01*
G01X10120Y22566D01*
G01X10166Y22607D01*
G01X10212Y22646D01*
G01X10259Y22683D01*
G01X10308Y22719D01*
G01X10358Y22753D01*
G01X10409Y22785D01*
G01X10462Y22816D01*
G01X10515Y22845D01*
G01X10569Y22872D01*
G01X10624Y22897D01*
G01X10680Y22920D01*
G01X10737Y22941D01*
G01X10794Y22961D01*
G01X10852Y22978D01*
G01X10911Y22993D01*
G01X10970Y23007D01*
G01X11029Y23018D01*
G01X11089Y23027D01*
G01X11149Y23034D01*
G01X11210Y23039D01*
G01X11270Y23042D01*
G01X11330Y23043D01*
G01X11391Y23042D01*
G01X11451Y23039D01*
G01X11512Y23034D01*
G01X11572Y23027D01*
G01X11632Y23018D01*
G01X11691Y23007D01*
G01X11750Y22993D01*
G01X11808Y22978D01*
G01X11867Y22961D01*
G01X11924Y22941D01*
G01X11981Y22920D01*
G01X12037Y22897D01*
G01X12092Y22872D01*
G01X12146Y22845D01*
G01X12199Y22816D01*
G01X12251Y22785D01*
G01X12303Y22753D01*
G01X12353Y22719D01*
G01X12401Y22683D01*
G01X12449Y22646D01*
G01X12495Y22607D01*
G01X12540Y22566D01*
G01X12584Y22524D01*
G01X12626Y22481D01*
G01X12666Y22436D01*
G01X12706Y22390D01*
G01X12743Y22342D01*
G01X12779Y22293D01*
G01X12813Y22243D01*
G01X12845Y22192D01*
G01X12876Y22140D01*
G01X12904Y22086D01*
G01X12931Y22032D01*
G01X12957Y21977D01*
G01X13001Y21865D01*
G01X13020Y21807D01*
G01X13037Y21749D01*
G01X13053Y21691D01*
G01X13066Y21632D01*
G01X13077Y21572D01*
G01X13087Y21512D01*
G01X13094Y21452D01*
G01X13099Y21392D01*
G01X13102Y21331D01*
G01X13103Y21271D01*
G01X13102Y21211D01*
G01X13099Y21150D01*
G01X13094Y21090D01*
G01X13087Y21030D01*
G01X13077Y20970D01*
G01X13066Y20910D01*
G01X13053Y20851D01*
G01X13037Y20793D01*
G01X13020Y20735D01*
G01X13001Y20677D01*
G01X12957Y20565D01*
G01X12931Y20509D01*
G01X12904Y20456D01*
G01X12876Y20402D01*
G01X12845Y20350D01*
G01X12813Y20299D01*
G01X12779Y20249D01*
G01X12743Y20200D01*
G01X12706Y20152D01*
G01X12666Y20106D01*
G01X12626Y20061D01*
G01X12584Y20018D01*
G01X11327Y18760D01*
G01X11317Y18748D01*
G01X11308Y18735D01*
G01X11302Y18720D01*
G01X11298Y18705D01*
G01X11297Y18689D01*
G01X11297Y17684D01*
G01X11298Y17670D01*
G01X11301Y17656D01*
G01X11307Y17642D01*
G01X11313Y17629D01*
G01X11322Y17618D01*
G01X11332Y17607D01*
G01X11344Y17599D01*
G01X11356Y17592D01*
G01X11370Y17587D01*
G01X11384Y17584D01*
G01X11399Y17582D01*
G01X15842Y17582D01*
G01X15903Y17581D01*
G01X15963Y17578D01*
G01X16024Y17573D01*
G01X16084Y17566D01*
G01X16144Y17557D01*
G01X16203Y17546D01*
G01X16262Y17532D01*
G01X16321Y17517D01*
G01X16379Y17500D01*
G01X16436Y17480D01*
G01X16493Y17459D01*
G01X16549Y17436D01*
G01X16604Y17411D01*
G01X16658Y17384D01*
G01X16711Y17355D01*
G01X16764Y17324D01*
G01X16815Y17292D01*
G01X16865Y17258D01*
G01X16913Y17222D01*
G01X16961Y17185D01*
G01X17007Y17146D01*
G01X17053Y17105D01*
G01X17096Y17063D01*
G01X17138Y17020D01*
G01X17179Y16975D01*
G01X17218Y16929D01*
G01X17255Y16881D01*
G01X17291Y16832D01*
G01X17325Y16782D01*
G01X17357Y16731D01*
G01X17388Y16679D01*
G01X17416Y16625D01*
G01X17443Y16571D01*
G01X17469Y16516D01*
G01X17513Y16404D01*
G01X17532Y16346D01*
G01X17549Y16288D01*
G01X17565Y16230D01*
G01X17578Y16171D01*
G01X17590Y16111D01*
G01X17599Y16051D01*
G01X17606Y15991D01*
G01X17611Y15931D01*
G01X17614Y15870D01*
G01X17615Y15810D01*
G01X17614Y15745D01*
G01X17610Y15681D01*
G01X17605Y15617D01*
G01X17597Y15552D01*
G01X17586Y15489D01*
G01X17584Y15471D01*
G01X17584Y5738D01*
G01X17585Y5722D01*
G01X17588Y5706D01*
G01X17595Y5692D01*
G01X17603Y5678D01*
G01X17613Y5666D01*
G01X18842Y4438D01*
G01X18854Y4428D01*
G01X18867Y4419D01*
G01X18882Y4413D01*
G01X18898Y4409D01*
G01X18913Y4408D01*
G01X18928Y4409D01*
G01X18942Y4412D01*
G01X18956Y4418D01*
G01X18968Y4424D01*
G01X18980Y4433D01*
G01X18990Y4443D01*
G01X18999Y4455D01*
G01X19006Y4467D01*
G01X19011Y4481D01*
G01X19014Y4495D01*
G01X19015Y4510D01*
G01X19013Y4527D01*
G01X19009Y4544D01*
G01X19002Y4560D01*
G01X18970Y4619D01*
G01X18940Y4679D01*
G01X18912Y4740D01*
G01X18886Y4802D01*
G01X18862Y4865D01*
G01X18841Y4928D01*
G01X18821Y4993D01*
G01X18804Y5058D01*
G01X18789Y5123D01*
G01X18777Y5189D01*
G01X18766Y5255D01*
G01X18758Y5322D01*
G01X18752Y5389D01*
G01X18749Y5456D01*
G01X18748Y5523D01*
G01X18749Y5587D01*
G01X18752Y5650D01*
G01X18757Y5715D01*
G01X18765Y5778D01*
G01X18774Y5841D01*
G01X18785Y5904D01*
G01X18799Y5966D01*
G01X18814Y6028D01*
G01X18832Y6090D01*
G01X18851Y6151D01*
G01X18873Y6211D01*
G01X18897Y6270D01*
G01X18922Y6329D01*
G01X18949Y6387D01*
G01X18978Y6443D01*
G01X19009Y6499D01*
G01X19042Y6554D01*
G01X19077Y6608D01*
G01X19151Y6712D01*
G01X19191Y6761D01*
G01X19232Y6810D01*
G01X19276Y6858D01*
G01X19320Y6904D01*
G01X19365Y6948D01*
G01X19413Y6991D01*
G01X19462Y7032D01*
G01X19512Y7072D01*
G01X19563Y7110D01*
G01X19615Y7147D01*
G01X19669Y7181D01*
G01X19724Y7214D01*
G01X19780Y7245D01*
G01X19837Y7274D01*
G01X19895Y7301D01*
G01X19953Y7327D01*
G01X20013Y7350D01*
G01X20073Y7372D01*
G01X20134Y7391D01*
G01X20195Y7409D01*
G01X20257Y7424D01*
G01X20320Y7438D01*
G01X20382Y7449D01*
G01X20445Y7459D01*
G01X20509Y7466D01*
G01X20573Y7472D01*
G01X20636Y7475D01*
G01X20701Y7476D01*
G01X20765Y7475D01*
G01X20828Y7472D01*
G01X20892Y7466D01*
G01X20956Y7459D01*
G01X21019Y7449D01*
G01X21082Y7438D01*
G01X21144Y7424D01*
G01X21206Y7409D01*
G01X21267Y7391D01*
G01X21328Y7372D01*
G01X21388Y7350D01*
G01X21448Y7327D01*
G01X21506Y7301D01*
G01X21564Y7274D01*
G01X21621Y7245D01*
G01X21677Y7214D01*
G01X21732Y7181D01*
G01X21786Y7147D01*
G01X21838Y7110D01*
G01X21889Y7072D01*
G01X21939Y7032D01*
G01X21988Y6991D01*
G01X22036Y6948D01*
G01X22081Y6904D01*
G01X22125Y6858D01*
G01X22169Y6810D01*
G01X22210Y6761D01*
G01X22250Y6712D01*
G01X22324Y6608D01*
G01X22359Y6554D01*
G01X22392Y6499D01*
G01X22423Y6443D01*
G01X22452Y6387D01*
G01X22479Y6329D01*
G01X22504Y6270D01*
G01X22528Y6211D01*
G01X22550Y6151D01*
G01X22569Y6090D01*
G01X22587Y6028D01*
G01X22602Y5966D01*
G01X22616Y5904D01*
G01X22627Y5841D01*
G01X22636Y5778D01*
G01X22644Y5715D01*
G01X22649Y5650D01*
G01X22652Y5587D01*
G01X22653Y5523D01*
G01X22652Y5458D01*
G01X22649Y5394D01*
G01X22644Y5330D01*
G01X22636Y5266D01*
G01X22627Y5202D01*
G01X22615Y5138D01*
G01X22601Y5075D01*
G01X22586Y5013D01*
G01X22567Y4951D01*
G01X22548Y4890D01*
G01X22526Y4829D01*
G01X22502Y4770D01*
G01X22476Y4710D01*
G01X22448Y4652D01*
G01X22419Y4595D01*
G01X22387Y4539D01*
G01X22354Y4484D01*
G01X22318Y4430D01*
G01X22281Y4377D01*
G01X22243Y4325D01*
G01X22202Y4275D01*
G01X22160Y4226D01*
G01X22117Y4179D01*
G01X22072Y4133D01*
G01X22025Y4088D01*
G01X21977Y4045D01*
G01X21966Y4035D01*
G01X21958Y4023D01*
G01X21951Y4011D01*
G01X21946Y3997D01*
G01X21943Y3983D01*
G01X21942Y3968D01*
G01X21943Y3954D01*
G01X21946Y3940D01*
G01X21951Y3926D01*
G01X21958Y3913D01*
G01X21966Y3902D01*
G01X21977Y3891D01*
G01X21988Y3883D01*
G01X22001Y3876D01*
G01X22015Y3871D01*
G01X22029Y3868D01*
G01X22043Y3866D01*
G01X35046Y3866D01*
G01X35062Y3868D01*
G01X35077Y3871D01*
G01X35092Y3878D01*
G01X35106Y3886D01*
G01X35118Y3896D01*
G01X35128Y3909D01*
G01X35137Y3922D01*
G01X35143Y3937D01*
G01X35162Y3994D01*
G01X35184Y4050D01*
G01X35207Y4106D01*
G01X35232Y4161D01*
G01X35259Y4214D01*
G01X35288Y4268D01*
G01X35319Y4320D01*
G01X35351Y4370D01*
G01X35385Y4420D01*
G01X35421Y4468D01*
G01X35458Y4516D01*
G01X35498Y4562D01*
G01X35538Y4606D01*
G01X35580Y4649D01*
G01X35624Y4691D01*
G01X35668Y4732D01*
G01X35714Y4770D01*
G01X35762Y4807D01*
G01X35811Y4843D01*
G01X35861Y4876D01*
G01X35912Y4909D01*
G01X35964Y4939D01*
G01X36017Y4967D01*
G01X36071Y4994D01*
G01X36126Y5019D01*
G01X36182Y5042D01*
G01X36238Y5063D01*
G01X36296Y5082D01*
G01X36353Y5099D01*
G01X36411Y5115D01*
G01X36470Y5128D01*
G01X36530Y5139D01*
G01X36589Y5148D01*
G01X36649Y5155D01*
G01X36709Y5160D01*
G01X36769Y5164D01*
G01X36830Y5165D01*
G01X36890Y5164D01*
G01X36950Y5160D01*
G01X37011Y5155D01*
G01X37071Y5148D01*
G01X37131Y5139D01*
G01X37190Y5128D01*
G01X37249Y5114D01*
G01X37308Y5099D01*
G01X37366Y5082D01*
G01X37423Y5062D01*
G01X37480Y5041D01*
G01X37536Y5018D01*
G01X37591Y4993D01*
G01X37645Y4966D01*
G01X37698Y4937D01*
G01X37751Y4907D01*
G01X37802Y4874D01*
G01X37852Y4840D01*
G01X37900Y4805D01*
G01X37948Y4767D01*
G01X37994Y4728D01*
G01X38040Y4687D01*
G01X38083Y4645D01*
G01X38125Y4602D01*
G01X38166Y4557D01*
G01X38205Y4511D01*
G01X38242Y4463D01*
G01X38278Y4414D01*
G01X38312Y4364D01*
G01X38344Y4313D01*
G01X38375Y4261D01*
G01X38403Y4207D01*
G01X38430Y4153D01*
G01X38456Y4098D01*
G01X38500Y3986D01*
G01X38519Y3928D01*
G01X38536Y3870D01*
G01X38552Y3812D01*
G01X38565Y3753D01*
G01X38577Y3693D01*
G01X38586Y3633D01*
G01X38593Y3573D01*
G01X38598Y3513D01*
G01X38601Y3452D01*
G01X38602Y3392D01*
G01X38602Y2094D01*
G01X38601Y2033D01*
G01X38598Y1972D01*
G01X38593Y1911D01*
G01X38585Y1851D01*
G01X38576Y1790D01*
G01X38564Y1731D01*
G01X38551Y1671D01*
G01X38535Y1612D01*
G01X38518Y1553D01*
G01X38498Y1496D01*
G01X38476Y1439D01*
G01X38453Y1383D01*
G01X38428Y1327D01*
G01X38400Y1273D01*
G01X38371Y1219D01*
G01X38340Y1166D01*
G01X38307Y1115D01*
G01X38273Y1065D01*
G01X38237Y1016D01*
G01X38199Y968D01*
G01X38159Y922D01*
G01X38118Y876D01*
G01X38075Y833D01*
G01X38031Y790D01*
G01X37986Y750D01*
G01X37938Y711D01*
G01X37890Y674D01*
G01X37841Y638D01*
G01X37790Y604D01*
G01X37738Y572D01*
G01X37685Y542D01*
G01X37632Y513D01*
G01X37577Y487D01*
G01X37564Y480D01*
G01X37552Y471D01*
G01X37542Y461D01*
G01X37534Y449D01*
G01X37527Y436D01*
G01X37522Y423D01*
G01X37519Y409D01*
G01X37518Y394D01*
G01X37519Y380D01*
G01X37522Y366D01*
G01X37527Y352D01*
G01X37534Y339D01*
G01X37543Y328D01*
G01X37553Y318D01*
G01X37565Y309D01*
G01X37577Y302D01*
G01X37591Y297D01*
G01X37605Y294D01*
G01X37619Y293D01*
G01X69062Y268D01*
G01X69091Y266D01*
G01X69120Y261D01*
G01X69142Y259D01*
G01X69143Y259D01*
G01X75969Y316D01*
G01X75984Y318D01*
G01X75998Y321D01*
G01X76011Y326D01*
G01X76024Y333D01*
G01X76035Y342D01*
G01X76046Y352D01*
G01X76054Y363D01*
G01X76061Y376D01*
G01X76066Y390D01*
G01X76069Y404D01*
G01X76070Y418D01*
G01X76070Y47459D01*
G01X76069Y47474D01*
G01X76066Y47488D01*
G01X76061Y47502D01*
G01X76054Y47514D01*
G01X76046Y47525D01*
G01X76035Y47536D01*
G01X76024Y47545D01*
G01X76011Y47551D01*
G01X75997Y47556D01*
G01X75984Y47560D01*
G01X75969Y47561D01*
G01X72261Y47586D01*
G01X72237Y47587D01*
G01X72214Y47591D01*
G01X72191Y47597D01*
G01X72169Y47604D01*
G01X72147Y47614D01*
G01X72126Y47626D01*
G01X72110Y47634D01*
G01X72091Y47639D01*
G01X72073Y47641D01*
G01X72058Y47640D01*
G01X72043Y47636D01*
G01X72029Y47631D01*
G01X72016Y47623D01*
G01X72004Y47614D01*
G01X71993Y47603D01*
G01X71985Y47590D01*
G01X71961Y47552D01*
G01X71935Y47514D01*
G01X71908Y47478D01*
G01X71879Y47443D01*
G01X71849Y47409D01*
G01X71817Y47377D01*
G01X71784Y47346D01*
G01X71749Y47317D01*
G01X71713Y47289D01*
G01X71676Y47263D01*
G01X71638Y47239D01*
G01X71599Y47216D01*
G01X71558Y47195D01*
G01X71517Y47176D01*
G01X71475Y47159D01*
G01X71432Y47144D01*
G01X71389Y47131D01*
G01X71345Y47120D01*
G01X71300Y47111D01*
G01X71255Y47103D01*
G01X71210Y47098D01*
G01X71165Y47095D01*
G01X71120Y47094D01*
G01X71074Y47095D01*
G01X71029Y47098D01*
G01X70983Y47104D01*
G01X70939Y47111D01*
G01X70894Y47120D01*
G01X70850Y47131D01*
G01X70807Y47144D01*
G01X70763Y47160D01*
G01X70721Y47177D01*
G01X70680Y47196D01*
G01X70639Y47217D01*
G01X70600Y47239D01*
G01X70562Y47264D01*
G01X70525Y47290D01*
G01X70489Y47318D01*
G01X70454Y47347D01*
G01X70420Y47378D01*
G01X70388Y47411D01*
G01X70358Y47445D01*
G01X70330Y47480D01*
G01X70302Y47516D01*
G01X70277Y47554D01*
G01X70253Y47592D01*
G01X70231Y47633D01*
G01X70222Y47646D01*
G01X70212Y47658D01*
G01X70200Y47668D01*
G01X70187Y47676D01*
G01X70172Y47682D01*
G01X70157Y47686D01*
G01X70141Y47687D01*
G01X70066Y47687D01*
G01X70050Y47686D01*
G01X70035Y47682D01*
G01X70020Y47676D01*
G01X70007Y47668D01*
G01X69995Y47658D01*
G01X69985Y47646D01*
G01X69976Y47633D01*
G01X69954Y47592D01*
G01X69930Y47554D01*
G01X69905Y47516D01*
G01X69877Y47480D01*
G01X69849Y47445D01*
G01X69819Y47411D01*
G01X69787Y47378D01*
G01X69753Y47347D01*
G01X69718Y47318D01*
G01X69682Y47290D01*
G01X69645Y47264D01*
G01X69607Y47239D01*
G01X69568Y47217D01*
G01X69527Y47196D01*
G01X69486Y47177D01*
G01X69444Y47160D01*
G01X69400Y47144D01*
G01X69357Y47131D01*
G01X69313Y47120D01*
G01X69268Y47111D01*
G01X69224Y47104D01*
G01X69178Y47098D01*
G01X69133Y47095D01*
G01X69088Y47094D01*
G01X69042Y47095D01*
G01X68997Y47098D01*
G01X68952Y47103D01*
G01X68907Y47110D01*
G01X68862Y47120D01*
G01X68819Y47131D01*
G01X68775Y47144D01*
G01X68732Y47159D01*
G01X68691Y47176D01*
G01X68649Y47195D01*
G01X68609Y47216D01*
G01X68570Y47238D01*
G01X68531Y47263D01*
G01X68494Y47289D01*
G01X68458Y47316D01*
G01X68424Y47346D01*
G01X68391Y47377D01*
G01X68359Y47409D01*
G01X68328Y47442D01*
G01X68299Y47477D01*
G01X68272Y47514D01*
G01X68246Y47551D01*
G01X68223Y47589D01*
G01X68214Y47602D01*
G01X68204Y47613D01*
G01X68192Y47622D01*
G01X68179Y47630D01*
G01X68165Y47635D01*
G01X68150Y47639D01*
G01X68135Y47640D01*
G01X68120Y47639D01*
G01X68105Y47635D01*
G01X68091Y47630D01*
G01X68078Y47622D01*
G01X68066Y47613D01*
G01X68056Y47602D01*
G01X68047Y47589D01*
G01X68024Y47551D01*
G01X67998Y47514D01*
G01X67971Y47477D01*
G01X67942Y47442D01*
G01X67911Y47409D01*
G01X67879Y47377D01*
G01X67846Y47346D01*
G01X67812Y47316D01*
G01X67776Y47289D01*
G01X67739Y47263D01*
G01X67700Y47238D01*
G01X67661Y47216D01*
G01X67621Y47195D01*
G01X67579Y47176D01*
G01X67538Y47159D01*
G01X67495Y47144D01*
G01X67451Y47131D01*
G01X67408Y47120D01*
G01X67363Y47110D01*
G01X67318Y47103D01*
G01X67273Y47098D01*
G01X67228Y47095D01*
G01X67183Y47094D01*
G01X67137Y47095D01*
G01X67092Y47098D01*
G01X67046Y47104D01*
G01X67002Y47111D01*
G01X66957Y47120D01*
G01X66913Y47131D01*
G01X66870Y47144D01*
G01X66826Y47160D01*
G01X66784Y47177D01*
G01X66743Y47196D01*
G01X66702Y47217D01*
G01X66663Y47239D01*
G01X66625Y47264D01*
G01X66588Y47290D01*
G01X66552Y47318D01*
G01X66517Y47347D01*
G01X66483Y47378D01*
G01X66451Y47411D01*
G01X66421Y47445D01*
G01X66393Y47480D01*
G01X66365Y47516D01*
G01X66340Y47554D01*
G01X66316Y47592D01*
G01X66294Y47633D01*
G01X66285Y47646D01*
G01X66275Y47658D01*
G01X66263Y47668D01*
G01X66250Y47676D01*
G01X66235Y47682D01*
G01X66220Y47686D01*
G01X66204Y47687D01*
G37*

%LPC*%
G36*
G01X71458Y9025D02*
G01X71374Y9026D01*
G01X71289Y9025D01*
G01X71204Y9022D01*
G01X71120Y9017D01*
G01X71036Y9009D01*
G01X70951Y9000D01*
G01X70868Y8989D01*
G01X70784Y8976D01*
G01X70700Y8961D01*
G01X70618Y8943D01*
G01X70535Y8924D01*
G01X70454Y8903D01*
G01X70372Y8879D01*
G01X70291Y8854D01*
G01X70211Y8827D01*
G01X70131Y8798D01*
G01X70053Y8767D01*
G01X69974Y8734D01*
G01X69897Y8700D01*
G01X69821Y8663D01*
G01X69746Y8624D01*
G01X69671Y8584D01*
G01X69598Y8542D01*
G01X69525Y8498D01*
G01X69454Y8453D01*
G01X69384Y8405D01*
G01X69315Y8357D01*
G01X69247Y8306D01*
G01X69180Y8254D01*
G01X69115Y8200D01*
G01X69051Y8145D01*
G01X68988Y8088D01*
G01X68927Y8029D01*
G01X68867Y7970D01*
G01X68809Y7909D01*
G01X68752Y7846D01*
G01X68696Y7782D01*
G01X68642Y7717D01*
G01X68590Y7649D01*
G01X68540Y7582D01*
G01X68491Y7513D01*
G01X68444Y7443D01*
G01X68398Y7371D01*
G01X68354Y7298D01*
G01X68312Y7225D01*
G01X68272Y7151D01*
G01X68234Y7075D01*
G01X68197Y6999D01*
G01X68162Y6922D01*
G01X68129Y6844D01*
G01X68098Y6765D01*
G01X68069Y6686D01*
G01X68042Y6606D01*
G01X68017Y6525D01*
G01X67994Y6443D01*
G01X67972Y6361D01*
G01X67953Y6279D01*
G01X67936Y6196D01*
G01X67921Y6113D01*
G01X67907Y6029D01*
G01X67896Y5945D01*
G01X67887Y5861D01*
G01X67880Y5776D01*
G01X67875Y5692D01*
G01X67872Y5608D01*
G01X67871Y5523D01*
G01X67872Y5438D01*
G01X67875Y5354D01*
G01X67880Y5269D01*
G01X67887Y5185D01*
G01X67896Y5101D01*
G01X67907Y5017D01*
G01X67921Y4933D01*
G01X67936Y4850D01*
G01X67953Y4767D01*
G01X67972Y4685D01*
G01X67994Y4603D01*
G01X68017Y4521D01*
G01X68042Y4440D01*
G01X68069Y4360D01*
G01X68098Y4281D01*
G01X68129Y4202D01*
G01X68162Y4124D01*
G01X68197Y4047D01*
G01X68234Y3971D01*
G01X68272Y3895D01*
G01X68312Y3821D01*
G01X68354Y3748D01*
G01X68398Y3675D01*
G01X68444Y3603D01*
G01X68491Y3533D01*
G01X68540Y3464D01*
G01X68590Y3396D01*
G01X68642Y3329D01*
G01X68696Y3264D01*
G01X68752Y3200D01*
G01X68809Y3137D01*
G01X68867Y3076D01*
G01X68927Y3017D01*
G01X68988Y2958D01*
G01X69051Y2901D01*
G01X69115Y2846D01*
G01X69180Y2792D01*
G01X69247Y2740D01*
G01X69315Y2689D01*
G01X69384Y2641D01*
G01X69454Y2593D01*
G01X69525Y2548D01*
G01X69598Y2504D01*
G01X69671Y2462D01*
G01X69746Y2422D01*
G01X69821Y2383D01*
G01X69897Y2346D01*
G01X69974Y2312D01*
G01X70053Y2279D01*
G01X70131Y2248D01*
G01X70211Y2219D01*
G01X70291Y2192D01*
G01X70372Y2167D01*
G01X70454Y2143D01*
G01X70535Y2122D01*
G01X70618Y2103D01*
G01X70700Y2085D01*
G01X70784Y2070D01*
G01X70868Y2057D01*
G01X70951Y2046D01*
G01X71036Y2037D01*
G01X71120Y2029D01*
G01X71204Y2024D01*
G01X71289Y2021D01*
G01X71374Y2020D01*
G01X71458Y2021D01*
G01X71543Y2024D01*
G01X71627Y2029D01*
G01X71711Y2037D01*
G01X71796Y2046D01*
G01X71879Y2057D01*
G01X71963Y2070D01*
G01X72047Y2085D01*
G01X72129Y2103D01*
G01X72212Y2122D01*
G01X72293Y2143D01*
G01X72375Y2167D01*
G01X72456Y2192D01*
G01X72536Y2219D01*
G01X72616Y2248D01*
G01X72694Y2279D01*
G01X72773Y2312D01*
G01X72850Y2346D01*
G01X72926Y2383D01*
G01X73001Y2422D01*
G01X73076Y2462D01*
G01X73149Y2504D01*
G01X73222Y2548D01*
G01X73293Y2593D01*
G01X73363Y2641D01*
G01X73432Y2689D01*
G01X73500Y2740D01*
G01X73567Y2792D01*
G01X73632Y2846D01*
G01X73696Y2901D01*
G01X73759Y2958D01*
G01X73820Y3017D01*
G01X73880Y3076D01*
G01X73938Y3137D01*
G01X73995Y3200D01*
G01X74051Y3264D01*
G01X74105Y3329D01*
G01X74157Y3396D01*
G01X74207Y3464D01*
G01X74256Y3533D01*
G01X74303Y3603D01*
G01X74349Y3675D01*
G01X74393Y3748D01*
G01X74435Y3821D01*
G01X74475Y3895D01*
G01X74513Y3971D01*
G01X74550Y4047D01*
G01X74585Y4124D01*
G01X74618Y4202D01*
G01X74649Y4281D01*
G01X74678Y4360D01*
G01X74705Y4440D01*
G01X74730Y4521D01*
G01X74753Y4603D01*
G01X74775Y4685D01*
G01X74794Y4767D01*
G01X74811Y4850D01*
G01X74826Y4933D01*
G01X74840Y5017D01*
G01X74851Y5101D01*
G01X74860Y5185D01*
G01X74867Y5269D01*
G01X74872Y5354D01*
G01X74875Y5438D01*
G01X74876Y5523D01*
G01X74875Y5608D01*
G01X74872Y5692D01*
G01X74867Y5776D01*
G01X74860Y5861D01*
G01X74851Y5945D01*
G01X74840Y6029D01*
G01X74826Y6113D01*
G01X74811Y6196D01*
G01X74794Y6279D01*
G01X74775Y6361D01*
G01X74753Y6443D01*
G01X74730Y6525D01*
G01X74705Y6606D01*
G01X74678Y6686D01*
G01X74649Y6765D01*
G01X74618Y6844D01*
G01X74585Y6922D01*
G01X74550Y6999D01*
G01X74513Y7075D01*
G01X74475Y7151D01*
G01X74435Y7225D01*
G01X74393Y7298D01*
G01X74349Y7371D01*
G01X74303Y7443D01*
G01X74256Y7513D01*
G01X74207Y7582D01*
G01X74157Y7649D01*
G01X74105Y7717D01*
G01X74051Y7782D01*
G01X73995Y7846D01*
G01X73938Y7909D01*
G01X73880Y7970D01*
G01X73820Y8029D01*
G01X73759Y8088D01*
G01X73696Y8145D01*
G01X73632Y8200D01*
G01X73567Y8254D01*
G01X73500Y8306D01*
G01X73432Y8357D01*
G01X73363Y8405D01*
G01X73293Y8453D01*
G01X73222Y8498D01*
G01X73149Y8542D01*
G01X73076Y8584D01*
G01X73001Y8624D01*
G01X72926Y8663D01*
G01X72850Y8700D01*
G01X72773Y8734D01*
G01X72694Y8767D01*
G01X72616Y8798D01*
G01X72536Y8827D01*
G01X72456Y8854D01*
G01X72375Y8879D01*
G01X72293Y8903D01*
G01X72212Y8924D01*
G01X72129Y8943D01*
G01X72047Y8961D01*
G01X71963Y8976D01*
G01X71879Y8989D01*
G01X71796Y9000D01*
G01X71711Y9009D01*
G01X71627Y9017D01*
G01X71543Y9022D01*
G01X71458Y9025D01*
G37*
G36*
G01X58095Y10835D02*
G01X58039Y10836D01*
G01X57982Y10835D01*
G01X57926Y10831D01*
G01X57870Y10826D01*
G01X57814Y10819D01*
G01X57759Y10809D01*
G01X57704Y10798D01*
G01X57649Y10784D01*
G01X57596Y10769D01*
G01X57542Y10751D01*
G01X57489Y10732D01*
G01X57438Y10710D01*
G01X57387Y10687D01*
G01X57336Y10661D01*
G01X57287Y10634D01*
G01X57239Y10605D01*
G01X57192Y10575D01*
G01X57146Y10542D01*
G01X57102Y10507D01*
G01X57059Y10472D01*
G01X57016Y10434D01*
G01X56976Y10395D01*
G01X56937Y10355D01*
G01X56900Y10313D01*
G01X56863Y10270D01*
G01X56829Y10225D01*
G01X56797Y10179D01*
G01X56766Y10133D01*
G01X56737Y10084D01*
G01X56710Y10035D01*
G01X56685Y9985D01*
G01X56661Y9934D01*
G01X56640Y9882D01*
G01X56620Y9829D01*
G01X56602Y9776D01*
G01X56587Y9722D01*
G01X56573Y9667D01*
G01X56562Y9612D01*
G01X56553Y9557D01*
G01X56545Y9501D01*
G01X56540Y9445D01*
G01X56537Y9389D01*
G01X56536Y9333D01*
G01X56537Y9277D01*
G01X56540Y9221D01*
G01X56545Y9165D01*
G01X56553Y9109D01*
G01X56562Y9054D01*
G01X56573Y8999D01*
G01X56587Y8944D01*
G01X56602Y8890D01*
G01X56620Y8837D01*
G01X56640Y8784D01*
G01X56661Y8732D01*
G01X56685Y8681D01*
G01X56710Y8631D01*
G01X56737Y8582D01*
G01X56766Y8533D01*
G01X56797Y8486D01*
G01X56829Y8440D01*
G01X56863Y8396D01*
G01X56900Y8353D01*
G01X56937Y8311D01*
G01X56976Y8270D01*
G01X57016Y8231D01*
G01X57059Y8194D01*
G01X57102Y8158D01*
G01X57146Y8124D01*
G01X57192Y8091D01*
G01X57239Y8060D01*
G01X57287Y8031D01*
G01X57336Y8005D01*
G01X57387Y7979D01*
G01X57438Y7956D01*
G01X57489Y7934D01*
G01X57542Y7915D01*
G01X57596Y7897D01*
G01X57649Y7882D01*
G01X57704Y7868D01*
G01X57759Y7856D01*
G01X57814Y7847D01*
G01X57870Y7839D01*
G01X57926Y7834D01*
G01X57982Y7831D01*
G01X58039Y7830D01*
G01X58095Y7831D01*
G01X58151Y7834D01*
G01X58207Y7839D01*
G01X58263Y7847D01*
G01X58318Y7856D01*
G01X58373Y7868D01*
G01X58428Y7882D01*
G01X58481Y7897D01*
G01X58535Y7915D01*
G01X58588Y7934D01*
G01X58639Y7956D01*
G01X58690Y7979D01*
G01X58741Y8005D01*
G01X58790Y8031D01*
G01X58838Y8060D01*
G01X58885Y8091D01*
G01X58931Y8124D01*
G01X58975Y8158D01*
G01X59019Y8194D01*
G01X59061Y8231D01*
G01X59101Y8270D01*
G01X59140Y8311D01*
G01X59177Y8353D01*
G01X59214Y8396D01*
G01X59248Y8440D01*
G01X59280Y8486D01*
G01X59311Y8533D01*
G01X59340Y8582D01*
G01X59367Y8631D01*
G01X59392Y8681D01*
G01X59416Y8732D01*
G01X59438Y8784D01*
G01X59457Y8837D01*
G01X59475Y8890D01*
G01X59490Y8944D01*
G01X59504Y8999D01*
G01X59515Y9054D01*
G01X59524Y9109D01*
G01X59532Y9165D01*
G01X59537Y9221D01*
G01X59540Y9277D01*
G01X59541Y9333D01*
G01X59540Y9389D01*
G01X59537Y9445D01*
G01X59532Y9501D01*
G01X59524Y9557D01*
G01X59515Y9612D01*
G01X59504Y9667D01*
G01X59490Y9722D01*
G01X59475Y9776D01*
G01X59457Y9829D01*
G01X59438Y9882D01*
G01X59416Y9934D01*
G01X59392Y9985D01*
G01X59367Y10035D01*
G01X59340Y10084D01*
G01X59311Y10133D01*
G01X59280Y10179D01*
G01X59248Y10225D01*
G01X59214Y10270D01*
G01X59177Y10313D01*
G01X59140Y10355D01*
G01X59101Y10395D01*
G01X59061Y10434D01*
G01X59019Y10472D01*
G01X58931Y10542D01*
G01X58885Y10575D01*
G01X58838Y10605D01*
G01X58790Y10634D01*
G01X58741Y10661D01*
G01X58690Y10687D01*
G01X58639Y10710D01*
G01X58588Y10732D01*
G01X58535Y10751D01*
G01X58481Y10769D01*
G01X58428Y10784D01*
G01X58373Y10798D01*
G01X58318Y10809D01*
G01X58263Y10819D01*
G01X58207Y10826D01*
G01X58151Y10831D01*
G01X58095Y10835D01*
G37*
G36*
G01X24596Y17212D02*
G01X24543Y17213D01*
G01X24489Y17212D01*
G01X24435Y17209D01*
G01X24381Y17203D01*
G01X24329Y17196D01*
G01X24275Y17187D01*
G01X24223Y17176D01*
G01X24171Y17162D01*
G01X24119Y17147D01*
G01X24069Y17130D01*
G01X24018Y17111D01*
G01X23969Y17090D01*
G01X23920Y17067D01*
G01X23872Y17042D01*
G01X23780Y16988D01*
G01X23692Y16926D01*
G01X23650Y16892D01*
G01X23609Y16857D01*
G01X23570Y16820D01*
G01X23532Y16783D01*
G01X23460Y16703D01*
G01X23427Y16660D01*
G01X23395Y16617D01*
G01X23365Y16572D01*
G01X23337Y16527D01*
G01X23310Y16480D01*
G01X23286Y16432D01*
G01X23263Y16384D01*
G01X23242Y16334D01*
G01X23222Y16284D01*
G01X23205Y16233D01*
G01X23190Y16182D01*
G01X23177Y16130D01*
G01X23165Y16077D01*
G01X23156Y16024D01*
G01X23149Y15971D01*
G01X23144Y15917D01*
G01X23141Y15864D01*
G01X23140Y15810D01*
G01X23141Y15756D01*
G01X23144Y15703D01*
G01X23149Y15649D01*
G01X23156Y15596D01*
G01X23165Y15543D01*
G01X23177Y15490D01*
G01X23190Y15438D01*
G01X23205Y15387D01*
G01X23222Y15336D01*
G01X23242Y15286D01*
G01X23263Y15236D01*
G01X23286Y15188D01*
G01X23310Y15140D01*
G01X23337Y15093D01*
G01X23365Y15047D01*
G01X23395Y15003D01*
G01X23427Y14960D01*
G01X23460Y14917D01*
G01X23532Y14837D01*
G01X23570Y14800D01*
G01X23609Y14763D01*
G01X23650Y14728D01*
G01X23692Y14694D01*
G01X23780Y14632D01*
G01X23872Y14578D01*
G01X23920Y14553D01*
G01X23969Y14530D01*
G01X24018Y14509D01*
G01X24069Y14490D01*
G01X24119Y14473D01*
G01X24171Y14458D01*
G01X24223Y14444D01*
G01X24275Y14433D01*
G01X24329Y14424D01*
G01X24381Y14417D01*
G01X24435Y14411D01*
G01X24489Y14408D01*
G01X24543Y14407D01*
G01X24596Y14408D01*
G01X24650Y14411D01*
G01X24704Y14417D01*
G01X24757Y14424D01*
G01X24810Y14433D01*
G01X24862Y14444D01*
G01X24914Y14458D01*
G01X24966Y14473D01*
G01X25016Y14490D01*
G01X25067Y14509D01*
G01X25117Y14530D01*
G01X25165Y14553D01*
G01X25213Y14578D01*
G01X25305Y14632D01*
G01X25350Y14663D01*
G01X25393Y14694D01*
G01X25435Y14728D01*
G01X25476Y14763D01*
G01X25515Y14800D01*
G01X25553Y14837D01*
G01X25625Y14917D01*
G01X25658Y14960D01*
G01X25690Y15003D01*
G01X25720Y15047D01*
G01X25748Y15093D01*
G01X25775Y15140D01*
G01X25800Y15188D01*
G01X25823Y15236D01*
G01X25863Y15336D01*
G01X25880Y15387D01*
G01X25895Y15438D01*
G01X25909Y15490D01*
G01X25920Y15543D01*
G01X25929Y15596D01*
G01X25936Y15649D01*
G01X25941Y15703D01*
G01X25944Y15756D01*
G01X25945Y15810D01*
G01X25944Y15864D01*
G01X25941Y15917D01*
G01X25936Y15971D01*
G01X25929Y16024D01*
G01X25920Y16077D01*
G01X25909Y16130D01*
G01X25895Y16182D01*
G01X25880Y16233D01*
G01X25863Y16284D01*
G01X25823Y16384D01*
G01X25800Y16432D01*
G01X25775Y16480D01*
G01X25748Y16527D01*
G01X25720Y16572D01*
G01X25690Y16617D01*
G01X25658Y16660D01*
G01X25625Y16703D01*
G01X25553Y16783D01*
G01X25515Y16820D01*
G01X25476Y16857D01*
G01X25435Y16892D01*
G01X25393Y16926D01*
G01X25350Y16957D01*
G01X25305Y16988D01*
G01X25213Y17042D01*
G01X25165Y17067D01*
G01X25117Y17090D01*
G01X25067Y17111D01*
G01X25016Y17130D01*
G01X24966Y17147D01*
G01X24914Y17162D01*
G01X24862Y17176D01*
G01X24810Y17187D01*
G01X24757Y17196D01*
G01X24704Y17203D01*
G01X24650Y17209D01*
G01X24596Y17212D01*
G37*
G36*
G01X36888Y27269D02*
G01X36830Y27270D01*
G01X36771Y27269D01*
G01X36712Y27266D01*
G01X36653Y27261D01*
G01X36594Y27254D01*
G01X36536Y27245D01*
G01X36478Y27233D01*
G01X36421Y27219D01*
G01X36364Y27204D01*
G01X36308Y27186D01*
G01X36252Y27166D01*
G01X36197Y27145D01*
G01X36143Y27121D01*
G01X36090Y27096D01*
G01X36038Y27068D01*
G01X35986Y27039D01*
G01X35936Y27008D01*
G01X35887Y26975D01*
G01X35839Y26941D01*
G01X35793Y26905D01*
G01X35747Y26867D01*
G01X35703Y26827D01*
G01X35661Y26787D01*
G01X35620Y26744D01*
G01X35580Y26700D01*
G01X35543Y26655D01*
G01X35507Y26609D01*
G01X35472Y26561D01*
G01X35439Y26512D01*
G01X35408Y26461D01*
G01X35379Y26410D01*
G01X35352Y26358D01*
G01X35326Y26305D01*
G01X35302Y26250D01*
G01X35281Y26196D01*
G01X35261Y26140D01*
G01X35244Y26084D01*
G01X35228Y26027D01*
G01X35215Y25969D01*
G01X35203Y25912D01*
G01X35194Y25853D01*
G01X35186Y25795D01*
G01X35181Y25736D01*
G01X35178Y25677D01*
G01X35177Y25618D01*
G01X35178Y25559D01*
G01X35181Y25501D01*
G01X35186Y25442D01*
G01X35194Y25384D01*
G01X35203Y25325D01*
G01X35215Y25268D01*
G01X35228Y25211D01*
G01X35244Y25154D01*
G01X35261Y25098D01*
G01X35280Y25042D01*
G01X35302Y24988D01*
G01X35325Y24934D01*
G01X35350Y24881D01*
G01X35378Y24829D01*
G01X35407Y24777D01*
G01X35438Y24727D01*
G01X35470Y24678D01*
G01X35504Y24630D01*
G01X35540Y24584D01*
G01X35578Y24539D01*
G01X35617Y24495D01*
G01X35658Y24453D01*
G01X35700Y24411D01*
G01X35743Y24372D01*
G01X35789Y24334D01*
G01X35799Y24324D01*
G01X35809Y24312D01*
G01X35816Y24299D01*
G01X35822Y24285D01*
G01X35825Y24271D01*
G01X35826Y24255D01*
G01X35825Y24240D01*
G01X35822Y24226D01*
G01X35816Y24212D01*
G01X35809Y24199D01*
G01X35799Y24187D01*
G01X35789Y24177D01*
G01X35743Y24139D01*
G01X35700Y24100D01*
G01X35658Y24058D01*
G01X35617Y24016D01*
G01X35578Y23972D01*
G01X35540Y23927D01*
G01X35504Y23881D01*
G01X35470Y23833D01*
G01X35438Y23784D01*
G01X35407Y23734D01*
G01X35378Y23682D01*
G01X35350Y23630D01*
G01X35325Y23577D01*
G01X35302Y23523D01*
G01X35280Y23469D01*
G01X35261Y23413D01*
G01X35244Y23357D01*
G01X35228Y23300D01*
G01X35215Y23243D01*
G01X35203Y23186D01*
G01X35194Y23127D01*
G01X35186Y23069D01*
G01X35181Y23010D01*
G01X35178Y22952D01*
G01X35177Y22893D01*
G01X35178Y22834D01*
G01X35181Y22775D01*
G01X35186Y22716D01*
G01X35194Y22658D01*
G01X35203Y22599D01*
G01X35215Y22541D01*
G01X35228Y22484D01*
G01X35244Y22427D01*
G01X35261Y22371D01*
G01X35281Y22315D01*
G01X35302Y22261D01*
G01X35326Y22206D01*
G01X35352Y22153D01*
G01X35379Y22101D01*
G01X35408Y22050D01*
G01X35439Y21999D01*
G01X35472Y21950D01*
G01X35507Y21902D01*
G01X35543Y21856D01*
G01X35580Y21810D01*
G01X35620Y21767D01*
G01X35661Y21724D01*
G01X35703Y21683D01*
G01X35747Y21644D01*
G01X35793Y21606D01*
G01X35839Y21570D01*
G01X35887Y21536D01*
G01X35936Y21503D01*
G01X35986Y21472D01*
G01X36038Y21443D01*
G01X36090Y21415D01*
G01X36143Y21390D01*
G01X36197Y21366D01*
G01X36252Y21345D01*
G01X36308Y21325D01*
G01X36364Y21307D01*
G01X36421Y21292D01*
G01X36478Y21278D01*
G01X36536Y21266D01*
G01X36594Y21257D01*
G01X36653Y21250D01*
G01X36712Y21245D01*
G01X36771Y21242D01*
G01X36830Y21241D01*
G01X36888Y21242D01*
G01X36947Y21245D01*
G01X37006Y21250D01*
G01X37065Y21257D01*
G01X37123Y21266D01*
G01X37181Y21278D01*
G01X37238Y21292D01*
G01X37295Y21307D01*
G01X37351Y21325D01*
G01X37407Y21345D01*
G01X37462Y21366D01*
G01X37516Y21390D01*
G01X37569Y21415D01*
G01X37621Y21443D01*
G01X37673Y21472D01*
G01X37723Y21503D01*
G01X37772Y21536D01*
G01X37820Y21570D01*
G01X37866Y21606D01*
G01X37912Y21644D01*
G01X37956Y21683D01*
G01X37998Y21724D01*
G01X38039Y21767D01*
G01X38079Y21810D01*
G01X38116Y21856D01*
G01X38152Y21902D01*
G01X38187Y21950D01*
G01X38220Y21999D01*
G01X38251Y22050D01*
G01X38280Y22101D01*
G01X38307Y22153D01*
G01X38333Y22206D01*
G01X38357Y22261D01*
G01X38378Y22315D01*
G01X38398Y22371D01*
G01X38415Y22427D01*
G01X38431Y22484D01*
G01X38444Y22541D01*
G01X38456Y22599D01*
G01X38465Y22658D01*
G01X38473Y22716D01*
G01X38478Y22775D01*
G01X38481Y22834D01*
G01X38482Y22893D01*
G01X38481Y22952D01*
G01X38478Y23010D01*
G01X38473Y23069D01*
G01X38465Y23127D01*
G01X38456Y23186D01*
G01X38444Y23243D01*
G01X38431Y23300D01*
G01X38415Y23357D01*
G01X38398Y23413D01*
G01X38379Y23469D01*
G01X38357Y23523D01*
G01X38334Y23577D01*
G01X38309Y23630D01*
G01X38281Y23682D01*
G01X38252Y23734D01*
G01X38221Y23784D01*
G01X38189Y23833D01*
G01X38155Y23881D01*
G01X38119Y23927D01*
G01X38081Y23972D01*
G01X38042Y24016D01*
G01X38001Y24058D01*
G01X37959Y24100D01*
G01X37916Y24139D01*
G01X37870Y24177D01*
G01X37860Y24187D01*
G01X37850Y24199D01*
G01X37843Y24212D01*
G01X37837Y24226D01*
G01X37834Y24240D01*
G01X37833Y24255D01*
G01X37834Y24271D01*
G01X37837Y24285D01*
G01X37843Y24299D01*
G01X37850Y24312D01*
G01X37860Y24324D01*
G01X37870Y24334D01*
G01X37916Y24372D01*
G01X37959Y24411D01*
G01X38001Y24453D01*
G01X38042Y24495D01*
G01X38081Y24539D01*
G01X38119Y24584D01*
G01X38155Y24630D01*
G01X38189Y24678D01*
G01X38221Y24727D01*
G01X38252Y24777D01*
G01X38281Y24829D01*
G01X38309Y24881D01*
G01X38334Y24934D01*
G01X38357Y24988D01*
G01X38379Y25042D01*
G01X38398Y25098D01*
G01X38415Y25154D01*
G01X38431Y25211D01*
G01X38444Y25268D01*
G01X38456Y25325D01*
G01X38465Y25384D01*
G01X38473Y25442D01*
G01X38478Y25501D01*
G01X38481Y25559D01*
G01X38482Y25618D01*
G01X38481Y25677D01*
G01X38478Y25736D01*
G01X38473Y25795D01*
G01X38465Y25853D01*
G01X38456Y25912D01*
G01X38444Y25969D01*
G01X38431Y26027D01*
G01X38415Y26084D01*
G01X38398Y26140D01*
G01X38378Y26196D01*
G01X38357Y26250D01*
G01X38333Y26305D01*
G01X38307Y26358D01*
G01X38280Y26410D01*
G01X38251Y26461D01*
G01X38220Y26512D01*
G01X38187Y26561D01*
G01X38152Y26609D01*
G01X38116Y26655D01*
G01X38079Y26700D01*
G01X38039Y26744D01*
G01X37998Y26787D01*
G01X37956Y26827D01*
G01X37912Y26867D01*
G01X37866Y26905D01*
G01X37820Y26941D01*
G01X37772Y26975D01*
G01X37723Y27008D01*
G01X37673Y27039D01*
G01X37621Y27068D01*
G01X37569Y27096D01*
G01X37516Y27121D01*
G01X37462Y27145D01*
G01X37407Y27166D01*
G01X37351Y27186D01*
G01X37295Y27204D01*
G01X37238Y27219D01*
G01X37181Y27233D01*
G01X37123Y27245D01*
G01X37065Y27254D01*
G01X37006Y27261D01*
G01X36947Y27266D01*
G01X36888Y27269D01*
G37*
G36*
G01X71077Y29091D02*
G01X70993Y29092D01*
G01X70908Y29091D01*
G01X70823Y29088D01*
G01X70739Y29083D01*
G01X70655Y29075D01*
G01X70570Y29066D01*
G01X70487Y29055D01*
G01X70403Y29042D01*
G01X70319Y29027D01*
G01X70237Y29009D01*
G01X70154Y28990D01*
G01X70073Y28969D01*
G01X69991Y28945D01*
G01X69910Y28920D01*
G01X69830Y28893D01*
G01X69750Y28864D01*
G01X69672Y28833D01*
G01X69593Y28800D01*
G01X69516Y28766D01*
G01X69440Y28729D01*
G01X69365Y28690D01*
G01X69290Y28650D01*
G01X69217Y28608D01*
G01X69144Y28564D01*
G01X69073Y28519D01*
G01X69003Y28471D01*
G01X68934Y28423D01*
G01X68866Y28372D01*
G01X68799Y28320D01*
G01X68734Y28266D01*
G01X68670Y28211D01*
G01X68607Y28154D01*
G01X68546Y28095D01*
G01X68486Y28036D01*
G01X68428Y27975D01*
G01X68371Y27912D01*
G01X68315Y27848D01*
G01X68261Y27783D01*
G01X68209Y27715D01*
G01X68159Y27648D01*
G01X68110Y27579D01*
G01X68063Y27509D01*
G01X68017Y27437D01*
G01X67973Y27364D01*
G01X67931Y27291D01*
G01X67891Y27217D01*
G01X67853Y27141D01*
G01X67816Y27065D01*
G01X67781Y26988D01*
G01X67748Y26910D01*
G01X67717Y26831D01*
G01X67688Y26752D01*
G01X67661Y26672D01*
G01X67636Y26591D01*
G01X67613Y26509D01*
G01X67591Y26427D01*
G01X67572Y26345D01*
G01X67555Y26262D01*
G01X67540Y26179D01*
G01X67526Y26095D01*
G01X67515Y26011D01*
G01X67506Y25927D01*
G01X67499Y25842D01*
G01X67494Y25758D01*
G01X67491Y25674D01*
G01X67490Y25589D01*
G01X67491Y25504D01*
G01X67494Y25420D01*
G01X67499Y25335D01*
G01X67506Y25251D01*
G01X67515Y25167D01*
G01X67526Y25083D01*
G01X67540Y24999D01*
G01X67555Y24916D01*
G01X67572Y24833D01*
G01X67591Y24751D01*
G01X67613Y24669D01*
G01X67636Y24587D01*
G01X67661Y24506D01*
G01X67688Y24426D01*
G01X67717Y24347D01*
G01X67748Y24268D01*
G01X67781Y24190D01*
G01X67816Y24113D01*
G01X67853Y24037D01*
G01X67891Y23961D01*
G01X67931Y23887D01*
G01X67973Y23814D01*
G01X68017Y23741D01*
G01X68063Y23669D01*
G01X68110Y23599D01*
G01X68159Y23530D01*
G01X68209Y23462D01*
G01X68261Y23395D01*
G01X68315Y23330D01*
G01X68371Y23266D01*
G01X68428Y23203D01*
G01X68486Y23142D01*
G01X68546Y23083D01*
G01X68607Y23024D01*
G01X68670Y22967D01*
G01X68734Y22912D01*
G01X68799Y22858D01*
G01X68866Y22806D01*
G01X68934Y22755D01*
G01X69003Y22707D01*
G01X69073Y22659D01*
G01X69144Y22614D01*
G01X69217Y22570D01*
G01X69290Y22528D01*
G01X69365Y22488D01*
G01X69440Y22449D01*
G01X69516Y22412D01*
G01X69593Y22378D01*
G01X69672Y22345D01*
G01X69750Y22314D01*
G01X69830Y22285D01*
G01X69910Y22258D01*
G01X69991Y22233D01*
G01X70073Y22209D01*
G01X70154Y22188D01*
G01X70237Y22169D01*
G01X70319Y22151D01*
G01X70403Y22136D01*
G01X70487Y22123D01*
G01X70570Y22112D01*
G01X70655Y22103D01*
G01X70739Y22095D01*
G01X70823Y22090D01*
G01X70908Y22087D01*
G01X70993Y22086D01*
G01X71077Y22087D01*
G01X71162Y22090D01*
G01X71246Y22095D01*
G01X71330Y22103D01*
G01X71415Y22112D01*
G01X71498Y22123D01*
G01X71582Y22136D01*
G01X71666Y22151D01*
G01X71748Y22169D01*
G01X71831Y22188D01*
G01X71912Y22209D01*
G01X71994Y22233D01*
G01X72075Y22258D01*
G01X72155Y22285D01*
G01X72235Y22314D01*
G01X72313Y22345D01*
G01X72392Y22378D01*
G01X72469Y22412D01*
G01X72545Y22449D01*
G01X72620Y22488D01*
G01X72695Y22528D01*
G01X72768Y22570D01*
G01X72841Y22614D01*
G01X72912Y22659D01*
G01X72982Y22707D01*
G01X73051Y22755D01*
G01X73119Y22806D01*
G01X73186Y22858D01*
G01X73251Y22912D01*
G01X73315Y22967D01*
G01X73378Y23024D01*
G01X73439Y23083D01*
G01X73499Y23142D01*
G01X73557Y23203D01*
G01X73614Y23266D01*
G01X73670Y23330D01*
G01X73724Y23395D01*
G01X73776Y23462D01*
G01X73826Y23530D01*
G01X73875Y23599D01*
G01X73922Y23669D01*
G01X73968Y23741D01*
G01X74012Y23814D01*
G01X74054Y23887D01*
G01X74094Y23961D01*
G01X74132Y24037D01*
G01X74169Y24113D01*
G01X74204Y24190D01*
G01X74237Y24268D01*
G01X74268Y24347D01*
G01X74297Y24426D01*
G01X74324Y24506D01*
G01X74349Y24587D01*
G01X74372Y24669D01*
G01X74394Y24751D01*
G01X74413Y24833D01*
G01X74430Y24916D01*
G01X74445Y24999D01*
G01X74459Y25083D01*
G01X74470Y25167D01*
G01X74479Y25251D01*
G01X74486Y25335D01*
G01X74491Y25420D01*
G01X74494Y25504D01*
G01X74495Y25589D01*
G01X74494Y25674D01*
G01X74491Y25758D01*
G01X74486Y25842D01*
G01X74479Y25927D01*
G01X74470Y26011D01*
G01X74459Y26095D01*
G01X74445Y26179D01*
G01X74430Y26262D01*
G01X74413Y26345D01*
G01X74394Y26427D01*
G01X74372Y26509D01*
G01X74349Y26591D01*
G01X74324Y26672D01*
G01X74297Y26752D01*
G01X74268Y26831D01*
G01X74237Y26910D01*
G01X74204Y26988D01*
G01X74169Y27065D01*
G01X74132Y27141D01*
G01X74094Y27217D01*
G01X74054Y27291D01*
G01X74012Y27364D01*
G01X73968Y27437D01*
G01X73922Y27509D01*
G01X73875Y27579D01*
G01X73826Y27648D01*
G01X73776Y27715D01*
G01X73724Y27783D01*
G01X73670Y27848D01*
G01X73614Y27912D01*
G01X73557Y27975D01*
G01X73499Y28036D01*
G01X73439Y28095D01*
G01X73378Y28154D01*
G01X73315Y28211D01*
G01X73251Y28266D01*
G01X73186Y28320D01*
G01X73119Y28372D01*
G01X73051Y28423D01*
G01X72982Y28471D01*
G01X72912Y28519D01*
G01X72841Y28564D01*
G01X72768Y28608D01*
G01X72695Y28650D01*
G01X72620Y28690D01*
G01X72545Y28729D01*
G01X72469Y28766D01*
G01X72392Y28800D01*
G01X72313Y28833D01*
G01X72235Y28864D01*
G01X72155Y28893D01*
G01X72075Y28920D01*
G01X71994Y28945D01*
G01X71912Y28969D01*
G01X71831Y28990D01*
G01X71748Y29009D01*
G01X71666Y29027D01*
G01X71582Y29042D01*
G01X71498Y29055D01*
G01X71415Y29066D01*
G01X71330Y29075D01*
G01X71246Y29083D01*
G01X71162Y29088D01*
G01X71077Y29091D01*
G37*
G36*
G01X41649Y25694D02*
G01X41593Y25695D01*
G01X41536Y25694D01*
G01X41480Y25691D01*
G01X41424Y25685D01*
G01X41368Y25678D01*
G01X41313Y25668D01*
G01X41258Y25657D01*
G01X41203Y25643D01*
G01X41150Y25628D01*
G01X41096Y25610D01*
G01X41043Y25591D01*
G01X40992Y25569D01*
G01X40941Y25546D01*
G01X40890Y25520D01*
G01X40841Y25493D01*
G01X40793Y25465D01*
G01X40746Y25434D01*
G01X40700Y25401D01*
G01X40656Y25367D01*
G01X40613Y25331D01*
G01X40570Y25293D01*
G01X40530Y25255D01*
G01X40491Y25214D01*
G01X40454Y25172D01*
G01X40418Y25129D01*
G01X40383Y25085D01*
G01X40351Y25038D01*
G01X40320Y24992D01*
G01X40291Y24943D01*
G01X40264Y24894D01*
G01X40239Y24844D01*
G01X40215Y24793D01*
G01X40193Y24741D01*
G01X40174Y24688D01*
G01X40156Y24635D01*
G01X40141Y24581D01*
G01X40127Y24526D01*
G01X40116Y24471D01*
G01X40107Y24416D01*
G01X40099Y24360D01*
G01X40094Y24304D01*
G01X40091Y24248D01*
G01X40090Y24192D01*
G01X40091Y24136D01*
G01X40094Y24080D01*
G01X40099Y24024D01*
G01X40107Y23968D01*
G01X40116Y23913D01*
G01X40127Y23858D01*
G01X40141Y23803D01*
G01X40156Y23749D01*
G01X40174Y23696D01*
G01X40193Y23643D01*
G01X40215Y23591D01*
G01X40239Y23540D01*
G01X40264Y23490D01*
G01X40291Y23441D01*
G01X40320Y23392D01*
G01X40351Y23346D01*
G01X40383Y23299D01*
G01X40418Y23255D01*
G01X40454Y23212D01*
G01X40491Y23170D01*
G01X40530Y23129D01*
G01X40570Y23091D01*
G01X40613Y23053D01*
G01X40656Y23017D01*
G01X40700Y22983D01*
G01X40746Y22950D01*
G01X40793Y22919D01*
G01X40841Y22890D01*
G01X40890Y22864D01*
G01X40941Y22838D01*
G01X40992Y22815D01*
G01X41043Y22793D01*
G01X41096Y22774D01*
G01X41150Y22756D01*
G01X41203Y22741D01*
G01X41258Y22727D01*
G01X41313Y22716D01*
G01X41368Y22706D01*
G01X41424Y22699D01*
G01X41480Y22693D01*
G01X41536Y22690D01*
G01X41593Y22689D01*
G01X41649Y22690D01*
G01X41705Y22693D01*
G01X41761Y22699D01*
G01X41817Y22706D01*
G01X41872Y22716D01*
G01X41927Y22727D01*
G01X41982Y22741D01*
G01X42035Y22756D01*
G01X42089Y22774D01*
G01X42142Y22793D01*
G01X42193Y22815D01*
G01X42244Y22838D01*
G01X42295Y22864D01*
G01X42344Y22890D01*
G01X42392Y22919D01*
G01X42439Y22950D01*
G01X42485Y22983D01*
G01X42529Y23017D01*
G01X42572Y23053D01*
G01X42615Y23091D01*
G01X42655Y23129D01*
G01X42694Y23170D01*
G01X42731Y23212D01*
G01X42768Y23255D01*
G01X42802Y23299D01*
G01X42834Y23346D01*
G01X42865Y23392D01*
G01X42894Y23441D01*
G01X42921Y23490D01*
G01X42946Y23540D01*
G01X42970Y23591D01*
G01X42992Y23643D01*
G01X43011Y23696D01*
G01X43029Y23749D01*
G01X43044Y23803D01*
G01X43058Y23858D01*
G01X43069Y23913D01*
G01X43078Y23968D01*
G01X43086Y24024D01*
G01X43091Y24080D01*
G01X43094Y24136D01*
G01X43095Y24192D01*
G01X43094Y24248D01*
G01X43091Y24304D01*
G01X43086Y24360D01*
G01X43078Y24416D01*
G01X43069Y24471D01*
G01X43058Y24526D01*
G01X43044Y24581D01*
G01X43029Y24635D01*
G01X43011Y24688D01*
G01X42992Y24741D01*
G01X42970Y24793D01*
G01X42946Y24844D01*
G01X42921Y24894D01*
G01X42894Y24943D01*
G01X42865Y24992D01*
G01X42834Y25038D01*
G01X42802Y25085D01*
G01X42768Y25129D01*
G01X42731Y25172D01*
G01X42694Y25214D01*
G01X42655Y25255D01*
G01X42615Y25293D01*
G01X42572Y25331D01*
G01X42529Y25367D01*
G01X42485Y25401D01*
G01X42439Y25434D01*
G01X42392Y25465D01*
G01X42344Y25493D01*
G01X42295Y25520D01*
G01X42244Y25546D01*
G01X42193Y25569D01*
G01X42142Y25591D01*
G01X42089Y25610D01*
G01X42035Y25628D01*
G01X41982Y25643D01*
G01X41927Y25657D01*
G01X41872Y25668D01*
G01X41817Y25678D01*
G01X41761Y25685D01*
G01X41705Y25691D01*
G01X41649Y25694D01*
G37*
G36*
G01X49649Y25694D02*
G01X49592Y25695D01*
G01X49536Y25694D01*
G01X49480Y25691D01*
G01X49424Y25685D01*
G01X49368Y25678D01*
G01X49313Y25668D01*
G01X49258Y25657D01*
G01X49203Y25643D01*
G01X49150Y25628D01*
G01X49096Y25610D01*
G01X49043Y25591D01*
G01X48992Y25569D01*
G01X48941Y25546D01*
G01X48890Y25520D01*
G01X48841Y25493D01*
G01X48793Y25465D01*
G01X48746Y25434D01*
G01X48700Y25401D01*
G01X48656Y25367D01*
G01X48613Y25331D01*
G01X48570Y25293D01*
G01X48530Y25255D01*
G01X48491Y25214D01*
G01X48454Y25172D01*
G01X48417Y25129D01*
G01X48383Y25085D01*
G01X48351Y25038D01*
G01X48320Y24992D01*
G01X48291Y24943D01*
G01X48264Y24894D01*
G01X48239Y24844D01*
G01X48215Y24793D01*
G01X48193Y24741D01*
G01X48174Y24688D01*
G01X48156Y24635D01*
G01X48141Y24581D01*
G01X48127Y24526D01*
G01X48116Y24471D01*
G01X48107Y24416D01*
G01X48099Y24360D01*
G01X48094Y24304D01*
G01X48091Y24248D01*
G01X48090Y24192D01*
G01X48091Y24136D01*
G01X48094Y24080D01*
G01X48099Y24024D01*
G01X48107Y23968D01*
G01X48116Y23913D01*
G01X48127Y23858D01*
G01X48141Y23803D01*
G01X48156Y23749D01*
G01X48174Y23696D01*
G01X48193Y23643D01*
G01X48215Y23591D01*
G01X48239Y23540D01*
G01X48264Y23490D01*
G01X48291Y23441D01*
G01X48320Y23392D01*
G01X48351Y23346D01*
G01X48383Y23299D01*
G01X48417Y23255D01*
G01X48454Y23212D01*
G01X48491Y23170D01*
G01X48530Y23129D01*
G01X48570Y23091D01*
G01X48613Y23053D01*
G01X48656Y23017D01*
G01X48700Y22983D01*
G01X48746Y22950D01*
G01X48793Y22919D01*
G01X48841Y22890D01*
G01X48890Y22864D01*
G01X48941Y22838D01*
G01X48992Y22815D01*
G01X49043Y22793D01*
G01X49096Y22774D01*
G01X49150Y22756D01*
G01X49203Y22741D01*
G01X49258Y22727D01*
G01X49313Y22716D01*
G01X49368Y22706D01*
G01X49424Y22699D01*
G01X49480Y22693D01*
G01X49536Y22690D01*
G01X49592Y22689D01*
G01X49649Y22690D01*
G01X49705Y22693D01*
G01X49761Y22699D01*
G01X49817Y22706D01*
G01X49872Y22716D01*
G01X49927Y22727D01*
G01X49982Y22741D01*
G01X50035Y22756D01*
G01X50089Y22774D01*
G01X50142Y22793D01*
G01X50193Y22815D01*
G01X50244Y22838D01*
G01X50295Y22864D01*
G01X50344Y22890D01*
G01X50392Y22919D01*
G01X50439Y22950D01*
G01X50485Y22983D01*
G01X50529Y23017D01*
G01X50572Y23053D01*
G01X50615Y23091D01*
G01X50655Y23129D01*
G01X50694Y23170D01*
G01X50731Y23212D01*
G01X50767Y23255D01*
G01X50802Y23299D01*
G01X50834Y23346D01*
G01X50865Y23392D01*
G01X50894Y23441D01*
G01X50921Y23490D01*
G01X50946Y23540D01*
G01X50970Y23591D01*
G01X50992Y23643D01*
G01X51011Y23696D01*
G01X51029Y23749D01*
G01X51044Y23803D01*
G01X51058Y23858D01*
G01X51069Y23913D01*
G01X51078Y23968D01*
G01X51086Y24024D01*
G01X51091Y24080D01*
G01X51094Y24136D01*
G01X51095Y24192D01*
G01X51094Y24248D01*
G01X51091Y24304D01*
G01X51086Y24360D01*
G01X51078Y24416D01*
G01X51069Y24471D01*
G01X51058Y24526D01*
G01X51044Y24581D01*
G01X51029Y24635D01*
G01X51011Y24688D01*
G01X50992Y24741D01*
G01X50970Y24793D01*
G01X50946Y24844D01*
G01X50921Y24894D01*
G01X50894Y24943D01*
G01X50865Y24992D01*
G01X50834Y25038D01*
G01X50802Y25085D01*
G01X50767Y25129D01*
G01X50731Y25172D01*
G01X50694Y25214D01*
G01X50655Y25255D01*
G01X50615Y25293D01*
G01X50572Y25331D01*
G01X50529Y25367D01*
G01X50485Y25401D01*
G01X50439Y25434D01*
G01X50392Y25465D01*
G01X50344Y25493D01*
G01X50295Y25520D01*
G01X50244Y25546D01*
G01X50193Y25569D01*
G01X50142Y25591D01*
G01X50089Y25610D01*
G01X50035Y25628D01*
G01X49982Y25643D01*
G01X49927Y25657D01*
G01X49872Y25668D01*
G01X49817Y25678D01*
G01X49761Y25685D01*
G01X49705Y25691D01*
G01X49649Y25694D01*
G37*
G36*
G01X17846Y43036D02*
G01X14946Y43036D01*
G01X14913Y43035D01*
G01X14880Y43031D01*
G01X14848Y43026D01*
G01X14816Y43018D01*
G01X14784Y43009D01*
G01X14753Y42998D01*
G01X14723Y42984D01*
G01X14694Y42968D01*
G01X14666Y42951D01*
G01X14640Y42932D01*
G01X14614Y42911D01*
G01X14590Y42888D01*
G01X14568Y42865D01*
G01X14547Y42839D01*
G01X14528Y42812D01*
G01X14511Y42784D01*
G01X14495Y42755D01*
G01X14482Y42725D01*
G01X14470Y42694D01*
G01X14460Y42663D01*
G01X14453Y42631D01*
G01X14448Y42599D01*
G01X14444Y42566D01*
G01X14443Y42533D01*
G01X14443Y39633D01*
G01X14444Y39600D01*
G01X14448Y39567D01*
G01X14453Y39535D01*
G01X14460Y39503D01*
G01X14470Y39471D01*
G01X14482Y39441D01*
G01X14495Y39411D01*
G01X14511Y39381D01*
G01X14528Y39353D01*
G01X14547Y39327D01*
G01X14568Y39301D01*
G01X14591Y39277D01*
G01X14601Y39265D01*
G01X14610Y39252D01*
G01X14616Y39237D01*
G01X14619Y39221D01*
G01X14621Y39205D01*
G01X14621Y37825D01*
G01X14620Y37827D01*
G01X14620Y37742D01*
G01X14621Y37737D01*
G01X14621Y36638D01*
G01X14622Y36578D01*
G01X14625Y36517D01*
G01X14630Y36457D01*
G01X14637Y36397D01*
G01X14646Y36337D01*
G01X14658Y36277D01*
G01X14671Y36218D01*
G01X14674Y36194D01*
G01X14674Y33700D01*
G01X14673Y33684D01*
G01X14669Y33669D01*
G01X14663Y33654D01*
G01X14654Y33641D01*
G01X14644Y33629D01*
G01X10078Y29062D01*
G01X10036Y29019D01*
G01X9995Y28974D01*
G01X9956Y28928D01*
G01X9919Y28880D01*
G01X9883Y28831D01*
G01X9849Y28781D01*
G01X9817Y28730D01*
G01X9786Y28678D01*
G01X9758Y28624D01*
G01X9731Y28570D01*
G01X9705Y28515D01*
G01X9682Y28459D01*
G01X9661Y28402D01*
G01X9642Y28345D01*
G01X9625Y28287D01*
G01X9609Y28229D01*
G01X9596Y28170D01*
G01X9584Y28110D01*
G01X9575Y28050D01*
G01X9568Y27990D01*
G01X9563Y27930D01*
G01X9560Y27869D01*
G01X9559Y27809D01*
G01X9559Y27113D01*
G01X9560Y27053D01*
G01X9563Y26992D01*
G01X9568Y26932D01*
G01X9575Y26872D01*
G01X9584Y26812D01*
G01X9596Y26752D01*
G01X9609Y26693D01*
G01X9625Y26635D01*
G01X9642Y26577D01*
G01X9661Y26519D01*
G01X9682Y26463D01*
G01X9705Y26407D01*
G01X9731Y26351D01*
G01X9758Y26298D01*
G01X9786Y26244D01*
G01X9817Y26192D01*
G01X9849Y26141D01*
G01X9883Y26091D01*
G01X9919Y26042D01*
G01X9956Y25994D01*
G01X9995Y25948D01*
G01X10036Y25903D01*
G01X10078Y25860D01*
G01X10121Y25818D01*
G01X10167Y25777D01*
G01X10213Y25738D01*
G01X10260Y25701D01*
G01X10309Y25665D01*
G01X10359Y25631D01*
G01X10410Y25599D01*
G01X10463Y25568D01*
G01X10516Y25539D01*
G01X10570Y25512D01*
G01X10625Y25487D01*
G01X10681Y25464D01*
G01X10738Y25443D01*
G01X10795Y25423D01*
G01X10853Y25406D01*
G01X10912Y25391D01*
G01X10971Y25377D01*
G01X11030Y25366D01*
G01X11090Y25357D01*
G01X11150Y25350D01*
G01X11211Y25345D01*
G01X11271Y25342D01*
G01X11331Y25340D01*
G01X11391Y25342D01*
G01X11452Y25345D01*
G01X11511Y25350D01*
G01X11571Y25357D01*
G01X11631Y25366D01*
G01X11690Y25377D01*
G01X11749Y25390D01*
G01X11807Y25405D01*
G01X11864Y25422D01*
G01X11921Y25441D01*
G01X11978Y25462D01*
G01X12034Y25485D01*
G01X12088Y25510D01*
G01X12142Y25537D01*
G01X12195Y25565D01*
G01X12247Y25595D01*
G01X12298Y25627D01*
G01X12348Y25661D01*
G01X12397Y25696D01*
G01X12444Y25733D01*
G01X12490Y25772D01*
G01X12535Y25811D01*
G01X12579Y25853D01*
G01X12621Y25896D01*
G01X12661Y25941D01*
G01X12700Y25987D01*
G01X12738Y26033D01*
G01X12773Y26082D01*
G01X12808Y26132D01*
G01X12840Y26182D01*
G01X12871Y26234D01*
G01X12900Y26286D01*
G01X12927Y26340D01*
G01X12952Y26395D01*
G01X12975Y26450D01*
G01X12997Y26506D01*
G01X13016Y26563D01*
G01X13034Y26621D01*
G01X13050Y26679D01*
G01X13064Y26737D01*
G01X13075Y26797D01*
G01X13085Y26855D01*
G01X13093Y26915D01*
G01X13099Y26975D01*
G01X13102Y27035D01*
G01X13104Y27050D01*
G01X13108Y27065D01*
G01X13114Y27078D01*
G01X13122Y27091D01*
G01X13132Y27102D01*
G01X17731Y31702D01*
G01X17773Y31745D01*
G01X17814Y31790D01*
G01X17853Y31836D01*
G01X17890Y31884D01*
G01X17926Y31933D01*
G01X17960Y31983D01*
G01X17992Y32034D01*
G01X18023Y32086D01*
G01X18051Y32140D01*
G01X18078Y32193D01*
G01X18104Y32249D01*
G01X18148Y32361D01*
G01X18167Y32419D01*
G01X18184Y32477D01*
G01X18200Y32535D01*
G01X18213Y32594D01*
G01X18225Y32654D01*
G01X18234Y32714D01*
G01X18241Y32774D01*
G01X18246Y32834D01*
G01X18249Y32895D01*
G01X18250Y32955D01*
G01X18249Y33020D01*
G01X18245Y33084D01*
G01X18240Y33148D01*
G01X18232Y33213D01*
G01X18221Y33276D01*
G01X18219Y33294D01*
G01X18219Y37727D01*
G01X18218Y37788D01*
G01X18215Y37848D01*
G01X18210Y37908D01*
G01X18203Y37968D01*
G01X18194Y38028D01*
G01X18182Y38088D01*
G01X18169Y38147D01*
G01X18166Y38171D01*
G01X18166Y39200D01*
G01X18167Y39216D01*
G01X18171Y39232D01*
G01X18177Y39247D01*
G01X18186Y39261D01*
G01X18197Y39273D01*
G01X18220Y39297D01*
G01X18241Y39323D01*
G01X18261Y39350D01*
G01X18279Y39378D01*
G01X18295Y39407D01*
G01X18309Y39438D01*
G01X18321Y39469D01*
G01X18331Y39501D01*
G01X18338Y39533D01*
G01X18344Y39566D01*
G01X18347Y39600D01*
G01X18348Y39633D01*
G01X18348Y42533D01*
G01X18347Y42566D01*
G01X18344Y42599D01*
G01X18339Y42631D01*
G01X18331Y42663D01*
G01X18322Y42694D01*
G01X18310Y42725D01*
G01X18297Y42755D01*
G01X18281Y42784D01*
G01X18264Y42812D01*
G01X18245Y42839D01*
G01X18224Y42865D01*
G01X18201Y42888D01*
G01X18177Y42911D01*
G01X18152Y42932D01*
G01X18125Y42951D01*
G01X18097Y42968D01*
G01X18068Y42984D01*
G01X18038Y42998D01*
G01X18008Y43009D01*
G01X17976Y43018D01*
G01X17944Y43026D01*
G01X17912Y43031D01*
G01X17879Y43035D01*
G01X17846Y43036D01*
G37*
G36*
G01X21908Y43035D02*
G01X21844Y43036D01*
G01X21779Y43035D01*
G01X21715Y43032D01*
G01X21651Y43026D01*
G01X21588Y43019D01*
G01X21524Y43009D01*
G01X21461Y42998D01*
G01X21399Y42984D01*
G01X21337Y42969D01*
G01X21275Y42951D01*
G01X21214Y42932D01*
G01X21154Y42910D01*
G01X21094Y42886D01*
G01X21036Y42860D01*
G01X20978Y42833D01*
G01X20921Y42804D01*
G01X20865Y42773D01*
G01X20810Y42740D01*
G01X20756Y42705D01*
G01X20704Y42668D01*
G01X20652Y42630D01*
G01X20602Y42590D01*
G01X20553Y42549D01*
G01X20541Y42540D01*
G01X20528Y42533D01*
G01X20515Y42527D01*
G01X20500Y42524D01*
G01X20446Y42516D01*
G01X20392Y42505D01*
G01X20339Y42493D01*
G01X20286Y42478D01*
G01X20234Y42461D01*
G01X20182Y42442D01*
G01X20131Y42422D01*
G01X20081Y42400D01*
G01X20032Y42375D01*
G01X19984Y42349D01*
G01X19936Y42321D01*
G01X19890Y42292D01*
G01X19845Y42261D01*
G01X19801Y42227D01*
G01X19759Y42192D01*
G01X19718Y42156D01*
G01X19678Y42118D01*
G01X19640Y42079D01*
G01X19603Y42039D01*
G01X19568Y41996D01*
G01X19534Y41953D01*
G01X19502Y41908D01*
G01X19472Y41863D01*
G01X19443Y41816D01*
G01X19417Y41768D01*
G01X19392Y41719D01*
G01X19369Y41669D01*
G01X19348Y41619D01*
G01X19328Y41567D01*
G01X19311Y41515D01*
G01X19296Y41462D01*
G01X19282Y41409D01*
G01X19271Y41356D01*
G01X19262Y41301D01*
G01X19255Y41247D01*
G01X19250Y41193D01*
G01X19247Y41138D01*
G01X19245Y41083D01*
G01X19245Y35876D01*
G01X19247Y35822D01*
G01X19250Y35767D01*
G01X19255Y35713D01*
G01X19261Y35659D01*
G01X19270Y35605D01*
G01X19282Y35552D01*
G01X19295Y35500D01*
G01X19310Y35447D01*
G01X19327Y35395D01*
G01X19346Y35344D01*
G01X19367Y35294D01*
G01X19389Y35245D01*
G01X19414Y35196D01*
G01X19440Y35149D01*
G01X19469Y35102D01*
G01X19498Y35056D01*
G01X19530Y35012D01*
G01X19563Y34969D01*
G01X19598Y34927D01*
G01X19634Y34886D01*
G01X19671Y34847D01*
G01X22592Y31926D01*
G01X22632Y31888D01*
G01X22673Y31852D01*
G01X22714Y31817D01*
G01X22757Y31784D01*
G01X22802Y31753D01*
G01X22847Y31723D01*
G01X22894Y31695D01*
G01X22942Y31668D01*
G01X22990Y31644D01*
G01X23040Y31621D01*
G01X23090Y31601D01*
G01X23141Y31581D01*
G01X23245Y31549D01*
G01X23298Y31536D01*
G01X23351Y31525D01*
G01X23405Y31516D01*
G01X23458Y31509D01*
G01X23513Y31504D01*
G01X23567Y31501D01*
G01X23622Y31500D01*
G01X25178Y31500D01*
G01X25232Y31501D01*
G01X25286Y31504D01*
G01X25341Y31509D01*
G01X25394Y31516D01*
G01X25448Y31525D01*
G01X25501Y31536D01*
G01X25554Y31549D01*
G01X25658Y31581D01*
G01X25709Y31601D01*
G01X25759Y31621D01*
G01X25809Y31644D01*
G01X25857Y31668D01*
G01X25905Y31695D01*
G01X25952Y31723D01*
G01X25997Y31753D01*
G01X26042Y31784D01*
G01X26085Y31817D01*
G01X26126Y31852D01*
G01X26167Y31888D01*
G01X26207Y31926D01*
G01X26244Y31965D01*
G01X26280Y32006D01*
G01X26315Y32048D01*
G01X26348Y32091D01*
G01X26380Y32135D01*
G01X26409Y32181D01*
G01X26438Y32228D01*
G01X26464Y32275D01*
G01X26489Y32324D01*
G01X26511Y32373D01*
G01X26532Y32423D01*
G01X26551Y32474D01*
G01X26568Y32526D01*
G01X26583Y32579D01*
G01X26596Y32631D01*
G01X26608Y32684D01*
G01X26617Y32738D01*
G01X26623Y32792D01*
G01X26628Y32846D01*
G01X26631Y32901D01*
G01X26632Y32955D01*
G01X26631Y33009D01*
G01X26628Y33064D01*
G01X26623Y33118D01*
G01X26617Y33172D01*
G01X26608Y33226D01*
G01X26596Y33279D01*
G01X26583Y33331D01*
G01X26568Y33384D01*
G01X26551Y33436D01*
G01X26532Y33487D01*
G01X26511Y33537D01*
G01X26489Y33586D01*
G01X26464Y33635D01*
G01X26438Y33682D01*
G01X26409Y33729D01*
G01X26380Y33775D01*
G01X26348Y33819D01*
G01X26315Y33862D01*
G01X26280Y33904D01*
G01X26244Y33945D01*
G01X26207Y33984D01*
G01X26167Y34022D01*
G01X26126Y34058D01*
G01X26085Y34093D01*
G01X26042Y34126D01*
G01X25997Y34157D01*
G01X25952Y34187D01*
G01X25905Y34215D01*
G01X25857Y34242D01*
G01X25809Y34266D01*
G01X25759Y34288D01*
G01X25709Y34309D01*
G01X25658Y34329D01*
G01X25554Y34361D01*
G01X25501Y34374D01*
G01X25448Y34385D01*
G01X25394Y34394D01*
G01X25341Y34401D01*
G01X25286Y34406D01*
G01X25232Y34409D01*
G01X25178Y34410D01*
G01X24266Y34410D01*
G01X24250Y34411D01*
G01X24235Y34415D01*
G01X24220Y34421D01*
G01X24207Y34430D01*
G01X24195Y34440D01*
G01X22185Y36449D01*
G01X22175Y36461D01*
G01X22167Y36475D01*
G01X22160Y36490D01*
G01X22157Y36505D01*
G01X22156Y36521D01*
G01X22156Y39071D01*
G01X22157Y39086D01*
G01X22160Y39101D01*
G01X22166Y39116D01*
G01X22174Y39129D01*
G01X22184Y39141D01*
G01X22195Y39151D01*
G01X22208Y39160D01*
G01X22222Y39166D01*
G01X22237Y39170D01*
G01X22299Y39184D01*
G01X22361Y39200D01*
G01X22422Y39218D01*
G01X22482Y39237D01*
G01X22541Y39259D01*
G01X22601Y39283D01*
G01X22659Y39309D01*
G01X22716Y39336D01*
G01X22773Y39365D01*
G01X22828Y39397D01*
G01X22882Y39430D01*
G01X22936Y39464D01*
G01X22988Y39501D01*
G01X23039Y39539D01*
G01X23089Y39579D01*
G01X23137Y39620D01*
G01X23184Y39663D01*
G01X23229Y39707D01*
G01X23274Y39753D01*
G01X23316Y39800D01*
G01X23357Y39849D01*
G01X23396Y39899D01*
G01X23434Y39950D01*
G01X23470Y40002D01*
G01X23504Y40056D01*
G01X23537Y40111D01*
G01X23568Y40167D01*
G01X23597Y40223D01*
G01X23624Y40281D01*
G01X23649Y40339D01*
G01X23672Y40398D01*
G01X23694Y40458D01*
G01X23713Y40519D01*
G01X23730Y40580D01*
G01X23745Y40642D01*
G01X23759Y40704D01*
G01X23770Y40767D01*
G01X23779Y40829D01*
G01X23787Y40892D01*
G01X23792Y40956D01*
G01X23795Y41019D01*
G01X23796Y41083D01*
G01X23795Y41147D01*
G01X23792Y41210D01*
G01X23787Y41275D01*
G01X23779Y41338D01*
G01X23770Y41401D01*
G01X23759Y41464D01*
G01X23745Y41526D01*
G01X23730Y41588D01*
G01X23712Y41650D01*
G01X23693Y41711D01*
G01X23671Y41771D01*
G01X23647Y41830D01*
G01X23622Y41889D01*
G01X23595Y41947D01*
G01X23566Y42003D01*
G01X23535Y42059D01*
G01X23502Y42114D01*
G01X23467Y42168D01*
G01X23393Y42272D01*
G01X23353Y42321D01*
G01X23312Y42370D01*
G01X23268Y42418D01*
G01X23224Y42464D01*
G01X23179Y42508D01*
G01X23131Y42551D01*
G01X23082Y42592D01*
G01X23032Y42632D01*
G01X22981Y42670D01*
G01X22929Y42707D01*
G01X22875Y42741D01*
G01X22820Y42774D01*
G01X22764Y42805D01*
G01X22707Y42834D01*
G01X22649Y42861D01*
G01X22591Y42887D01*
G01X22531Y42910D01*
G01X22471Y42932D01*
G01X22410Y42951D01*
G01X22349Y42969D01*
G01X22287Y42984D01*
G01X22225Y42998D01*
G01X22162Y43009D01*
G01X22099Y43019D01*
G01X22035Y43026D01*
G01X21971Y43032D01*
G01X21908Y43035D01*
G37*
G36*
G01X58095Y41823D02*
G01X58039Y41824D01*
G01X57982Y41823D01*
G01X57926Y41820D01*
G01X57870Y41814D01*
G01X57814Y41807D01*
G01X57759Y41797D01*
G01X57704Y41786D01*
G01X57649Y41772D01*
G01X57596Y41757D01*
G01X57542Y41739D01*
G01X57489Y41720D01*
G01X57438Y41698D01*
G01X57387Y41675D01*
G01X57336Y41649D01*
G01X57287Y41622D01*
G01X57239Y41593D01*
G01X57192Y41563D01*
G01X57146Y41530D01*
G01X57102Y41496D01*
G01X57059Y41460D01*
G01X57016Y41422D01*
G01X56976Y41383D01*
G01X56937Y41343D01*
G01X56900Y41301D01*
G01X56863Y41258D01*
G01X56829Y41213D01*
G01X56797Y41167D01*
G01X56766Y41121D01*
G01X56737Y41072D01*
G01X56710Y41023D01*
G01X56685Y40973D01*
G01X56661Y40922D01*
G01X56639Y40870D01*
G01X56620Y40817D01*
G01X56602Y40764D01*
G01X56587Y40710D01*
G01X56573Y40655D01*
G01X56562Y40600D01*
G01X56553Y40545D01*
G01X56545Y40489D01*
G01X56540Y40433D01*
G01X56537Y40377D01*
G01X56536Y40321D01*
G01X56537Y40265D01*
G01X56540Y40209D01*
G01X56545Y40153D01*
G01X56553Y40097D01*
G01X56562Y40042D01*
G01X56573Y39987D01*
G01X56587Y39932D01*
G01X56602Y39878D01*
G01X56620Y39825D01*
G01X56639Y39772D01*
G01X56661Y39720D01*
G01X56685Y39669D01*
G01X56710Y39619D01*
G01X56737Y39570D01*
G01X56766Y39521D01*
G01X56797Y39475D01*
G01X56829Y39428D01*
G01X56863Y39384D01*
G01X56900Y39341D01*
G01X56937Y39299D01*
G01X56976Y39258D01*
G01X57016Y39219D01*
G01X57059Y39182D01*
G01X57102Y39146D01*
G01X57146Y39112D01*
G01X57192Y39079D01*
G01X57239Y39048D01*
G01X57287Y39019D01*
G01X57336Y38993D01*
G01X57387Y38967D01*
G01X57438Y38944D01*
G01X57489Y38922D01*
G01X57542Y38903D01*
G01X57596Y38885D01*
G01X57649Y38870D01*
G01X57704Y38856D01*
G01X57759Y38844D01*
G01X57814Y38835D01*
G01X57870Y38827D01*
G01X57926Y38822D01*
G01X57982Y38819D01*
G01X58039Y38818D01*
G01X58095Y38819D01*
G01X58151Y38822D01*
G01X58207Y38827D01*
G01X58263Y38835D01*
G01X58318Y38844D01*
G01X58373Y38856D01*
G01X58428Y38870D01*
G01X58481Y38885D01*
G01X58535Y38903D01*
G01X58588Y38922D01*
G01X58639Y38944D01*
G01X58690Y38967D01*
G01X58741Y38993D01*
G01X58790Y39019D01*
G01X58838Y39048D01*
G01X58885Y39079D01*
G01X58931Y39112D01*
G01X58975Y39146D01*
G01X59018Y39182D01*
G01X59061Y39219D01*
G01X59101Y39258D01*
G01X59140Y39299D01*
G01X59177Y39341D01*
G01X59214Y39384D01*
G01X59248Y39428D01*
G01X59280Y39475D01*
G01X59311Y39521D01*
G01X59340Y39570D01*
G01X59367Y39619D01*
G01X59392Y39669D01*
G01X59416Y39720D01*
G01X59438Y39772D01*
G01X59457Y39825D01*
G01X59475Y39878D01*
G01X59490Y39932D01*
G01X59504Y39987D01*
G01X59515Y40042D01*
G01X59524Y40097D01*
G01X59532Y40153D01*
G01X59537Y40209D01*
G01X59540Y40265D01*
G01X59541Y40321D01*
G01X59540Y40377D01*
G01X59537Y40433D01*
G01X59532Y40489D01*
G01X59524Y40545D01*
G01X59515Y40600D01*
G01X59504Y40655D01*
G01X59490Y40710D01*
G01X59475Y40764D01*
G01X59457Y40817D01*
G01X59438Y40870D01*
G01X59416Y40922D01*
G01X59392Y40973D01*
G01X59367Y41023D01*
G01X59340Y41072D01*
G01X59311Y41121D01*
G01X59280Y41167D01*
G01X59248Y41213D01*
G01X59214Y41258D01*
G01X59177Y41301D01*
G01X59140Y41343D01*
G01X59101Y41383D01*
G01X59061Y41422D01*
G01X59018Y41460D01*
G01X58975Y41496D01*
G01X58931Y41530D01*
G01X58885Y41563D01*
G01X58838Y41593D01*
G01X58790Y41622D01*
G01X58741Y41649D01*
G01X58690Y41675D01*
G01X58639Y41698D01*
G01X58588Y41720D01*
G01X58535Y41739D01*
G01X58481Y41757D01*
G01X58428Y41772D01*
G01X58373Y41786D01*
G01X58318Y41797D01*
G01X58263Y41807D01*
G01X58207Y41814D01*
G01X58151Y41820D01*
G01X58095Y41823D01*
G37*
G36*
G01X71839Y46617D02*
G01X71755Y46618D01*
G01X71670Y46617D01*
G01X71585Y46614D01*
G01X71501Y46609D01*
G01X71417Y46601D01*
G01X71332Y46592D01*
G01X71249Y46581D01*
G01X71165Y46568D01*
G01X71081Y46553D01*
G01X70999Y46535D01*
G01X70916Y46516D01*
G01X70835Y46495D01*
G01X70753Y46471D01*
G01X70672Y46446D01*
G01X70592Y46419D01*
G01X70512Y46390D01*
G01X70434Y46359D01*
G01X70355Y46326D01*
G01X70278Y46292D01*
G01X70202Y46255D01*
G01X70127Y46216D01*
G01X70052Y46176D01*
G01X69979Y46134D01*
G01X69906Y46090D01*
G01X69835Y46045D01*
G01X69765Y45997D01*
G01X69696Y45949D01*
G01X69628Y45898D01*
G01X69561Y45846D01*
G01X69496Y45792D01*
G01X69432Y45737D01*
G01X69369Y45680D01*
G01X69308Y45621D01*
G01X69248Y45562D01*
G01X69190Y45501D01*
G01X69133Y45438D01*
G01X69077Y45374D01*
G01X69023Y45309D01*
G01X68971Y45241D01*
G01X68921Y45174D01*
G01X68872Y45105D01*
G01X68825Y45035D01*
G01X68779Y44963D01*
G01X68735Y44890D01*
G01X68693Y44817D01*
G01X68653Y44743D01*
G01X68615Y44667D01*
G01X68578Y44591D01*
G01X68543Y44514D01*
G01X68510Y44436D01*
G01X68479Y44357D01*
G01X68450Y44278D01*
G01X68423Y44198D01*
G01X68398Y44117D01*
G01X68375Y44035D01*
G01X68353Y43953D01*
G01X68334Y43871D01*
G01X68317Y43788D01*
G01X68302Y43705D01*
G01X68288Y43621D01*
G01X68277Y43537D01*
G01X68268Y43453D01*
G01X68261Y43368D01*
G01X68256Y43284D01*
G01X68253Y43200D01*
G01X68252Y43115D01*
G01X68253Y43030D01*
G01X68256Y42946D01*
G01X68261Y42861D01*
G01X68268Y42777D01*
G01X68277Y42693D01*
G01X68288Y42609D01*
G01X68302Y42525D01*
G01X68317Y42442D01*
G01X68334Y42359D01*
G01X68353Y42277D01*
G01X68375Y42195D01*
G01X68398Y42113D01*
G01X68423Y42032D01*
G01X68450Y41952D01*
G01X68479Y41873D01*
G01X68510Y41794D01*
G01X68543Y41716D01*
G01X68578Y41639D01*
G01X68615Y41563D01*
G01X68653Y41487D01*
G01X68693Y41413D01*
G01X68735Y41340D01*
G01X68779Y41267D01*
G01X68825Y41195D01*
G01X68872Y41125D01*
G01X68921Y41056D01*
G01X68971Y40988D01*
G01X69023Y40921D01*
G01X69077Y40856D01*
G01X69133Y40792D01*
G01X69190Y40729D01*
G01X69248Y40668D01*
G01X69308Y40609D01*
G01X69369Y40550D01*
G01X69432Y40493D01*
G01X69496Y40438D01*
G01X69561Y40384D01*
G01X69628Y40332D01*
G01X69696Y40281D01*
G01X69765Y40233D01*
G01X69835Y40185D01*
G01X69906Y40140D01*
G01X69979Y40096D01*
G01X70052Y40054D01*
G01X70127Y40014D01*
G01X70202Y39975D01*
G01X70278Y39938D01*
G01X70355Y39904D01*
G01X70434Y39871D01*
G01X70512Y39840D01*
G01X70592Y39811D01*
G01X70672Y39784D01*
G01X70753Y39759D01*
G01X70835Y39735D01*
G01X70916Y39714D01*
G01X70999Y39695D01*
G01X71081Y39677D01*
G01X71165Y39662D01*
G01X71249Y39649D01*
G01X71332Y39638D01*
G01X71417Y39629D01*
G01X71501Y39621D01*
G01X71585Y39616D01*
G01X71670Y39613D01*
G01X71755Y39612D01*
G01X71839Y39613D01*
G01X71924Y39616D01*
G01X72008Y39621D01*
G01X72092Y39629D01*
G01X72177Y39638D01*
G01X72260Y39649D01*
G01X72344Y39662D01*
G01X72428Y39677D01*
G01X72510Y39695D01*
G01X72593Y39714D01*
G01X72674Y39735D01*
G01X72756Y39759D01*
G01X72837Y39784D01*
G01X72917Y39811D01*
G01X72997Y39840D01*
G01X73075Y39871D01*
G01X73154Y39904D01*
G01X73231Y39938D01*
G01X73307Y39975D01*
G01X73382Y40014D01*
G01X73457Y40054D01*
G01X73530Y40096D01*
G01X73603Y40140D01*
G01X73674Y40185D01*
G01X73744Y40233D01*
G01X73813Y40281D01*
G01X73881Y40332D01*
G01X73948Y40384D01*
G01X74013Y40438D01*
G01X74077Y40493D01*
G01X74140Y40550D01*
G01X74201Y40609D01*
G01X74261Y40668D01*
G01X74319Y40729D01*
G01X74376Y40792D01*
G01X74432Y40856D01*
G01X74486Y40921D01*
G01X74538Y40988D01*
G01X74588Y41056D01*
G01X74637Y41125D01*
G01X74684Y41195D01*
G01X74730Y41267D01*
G01X74774Y41340D01*
G01X74816Y41413D01*
G01X74856Y41487D01*
G01X74894Y41563D01*
G01X74931Y41639D01*
G01X74966Y41716D01*
G01X74999Y41794D01*
G01X75030Y41873D01*
G01X75059Y41952D01*
G01X75086Y42032D01*
G01X75111Y42113D01*
G01X75134Y42195D01*
G01X75156Y42277D01*
G01X75175Y42359D01*
G01X75192Y42442D01*
G01X75207Y42525D01*
G01X75221Y42609D01*
G01X75232Y42693D01*
G01X75241Y42777D01*
G01X75248Y42861D01*
G01X75253Y42946D01*
G01X75256Y43030D01*
G01X75257Y43115D01*
G01X75256Y43200D01*
G01X75253Y43284D01*
G01X75248Y43368D01*
G01X75241Y43453D01*
G01X75232Y43537D01*
G01X75221Y43621D01*
G01X75207Y43705D01*
G01X75192Y43788D01*
G01X75175Y43871D01*
G01X75156Y43953D01*
G01X75134Y44035D01*
G01X75111Y44117D01*
G01X75086Y44198D01*
G01X75059Y44278D01*
G01X75030Y44357D01*
G01X74999Y44436D01*
G01X74966Y44514D01*
G01X74931Y44591D01*
G01X74894Y44667D01*
G01X74856Y44743D01*
G01X74816Y44817D01*
G01X74774Y44890D01*
G01X74730Y44963D01*
G01X74684Y45035D01*
G01X74637Y45105D01*
G01X74588Y45174D01*
G01X74538Y45241D01*
G01X74486Y45309D01*
G01X74432Y45374D01*
G01X74376Y45438D01*
G01X74319Y45501D01*
G01X74261Y45562D01*
G01X74201Y45621D01*
G01X74140Y45680D01*
G01X74077Y45737D01*
G01X74013Y45792D01*
G01X73948Y45846D01*
G01X73881Y45898D01*
G01X73813Y45949D01*
G01X73744Y45997D01*
G01X73674Y46045D01*
G01X73603Y46090D01*
G01X73530Y46134D01*
G01X73457Y46176D01*
G01X73382Y46216D01*
G01X73307Y46255D01*
G01X73231Y46292D01*
G01X73154Y46326D01*
G01X73075Y46359D01*
G01X72997Y46390D01*
G01X72917Y46419D01*
G01X72837Y46446D01*
G01X72756Y46471D01*
G01X72674Y46495D01*
G01X72593Y46516D01*
G01X72510Y46535D01*
G01X72428Y46553D01*
G01X72344Y46568D01*
G01X72260Y46581D01*
G01X72177Y46592D01*
G01X72092Y46601D01*
G01X72008Y46609D01*
G01X71924Y46614D01*
G01X71839Y46617D01*
G37*
G36*
G01X36888Y46770D02*
G01X36830Y46771D01*
G01X36771Y46770D01*
G01X36712Y46766D01*
G01X36653Y46761D01*
G01X36594Y46754D01*
G01X36536Y46744D01*
G01X36478Y46733D01*
G01X36421Y46719D01*
G01X36364Y46703D01*
G01X36308Y46686D01*
G01X36252Y46666D01*
G01X36197Y46645D01*
G01X36143Y46621D01*
G01X36090Y46596D01*
G01X36038Y46568D01*
G01X35986Y46539D01*
G01X35936Y46508D01*
G01X35887Y46475D01*
G01X35839Y46441D01*
G01X35793Y46405D01*
G01X35747Y46367D01*
G01X35703Y46328D01*
G01X35661Y46286D01*
G01X35620Y46244D01*
G01X35580Y46200D01*
G01X35543Y46155D01*
G01X35507Y46109D01*
G01X35472Y46060D01*
G01X35439Y46012D01*
G01X35408Y45961D01*
G01X35379Y45910D01*
G01X35352Y45858D01*
G01X35326Y45804D01*
G01X35302Y45750D01*
G01X35281Y45696D01*
G01X35261Y45640D01*
G01X35244Y45583D01*
G01X35228Y45526D01*
G01X35215Y45469D01*
G01X35203Y45412D01*
G01X35194Y45353D01*
G01X35186Y45295D01*
G01X35181Y45236D01*
G01X35178Y45177D01*
G01X35177Y45118D01*
G01X35178Y45059D01*
G01X35181Y45000D01*
G01X35186Y44941D01*
G01X35194Y44883D01*
G01X35203Y44824D01*
G01X35215Y44766D01*
G01X35228Y44709D01*
G01X35244Y44652D01*
G01X35261Y44596D01*
G01X35281Y44540D01*
G01X35302Y44486D01*
G01X35326Y44431D01*
G01X35352Y44378D01*
G01X35379Y44326D01*
G01X35408Y44275D01*
G01X35439Y44224D01*
G01X35472Y44175D01*
G01X35507Y44127D01*
G01X35543Y44081D01*
G01X35580Y44035D01*
G01X35620Y43992D01*
G01X35661Y43949D01*
G01X35703Y43908D01*
G01X35747Y43869D01*
G01X35793Y43831D01*
G01X35839Y43795D01*
G01X35887Y43761D01*
G01X35936Y43728D01*
G01X35986Y43697D01*
G01X36038Y43668D01*
G01X36090Y43640D01*
G01X36143Y43615D01*
G01X36197Y43591D01*
G01X36252Y43570D01*
G01X36308Y43550D01*
G01X36364Y43532D01*
G01X36421Y43517D01*
G01X36478Y43503D01*
G01X36536Y43491D01*
G01X36594Y43482D01*
G01X36653Y43475D01*
G01X36712Y43470D01*
G01X36771Y43467D01*
G01X36830Y43466D01*
G01X36888Y43467D01*
G01X36947Y43470D01*
G01X37006Y43475D01*
G01X37065Y43482D01*
G01X37123Y43491D01*
G01X37181Y43503D01*
G01X37238Y43517D01*
G01X37295Y43532D01*
G01X37351Y43550D01*
G01X37407Y43570D01*
G01X37462Y43591D01*
G01X37516Y43615D01*
G01X37569Y43640D01*
G01X37621Y43668D01*
G01X37673Y43697D01*
G01X37723Y43728D01*
G01X37772Y43761D01*
G01X37820Y43795D01*
G01X37866Y43831D01*
G01X37912Y43869D01*
G01X37956Y43908D01*
G01X37998Y43949D01*
G01X38039Y43992D01*
G01X38079Y44035D01*
G01X38116Y44081D01*
G01X38152Y44127D01*
G01X38187Y44175D01*
G01X38220Y44224D01*
G01X38251Y44275D01*
G01X38280Y44326D01*
G01X38307Y44378D01*
G01X38333Y44431D01*
G01X38357Y44486D01*
G01X38378Y44540D01*
G01X38398Y44596D01*
G01X38415Y44652D01*
G01X38431Y44709D01*
G01X38444Y44766D01*
G01X38456Y44824D01*
G01X38465Y44883D01*
G01X38473Y44941D01*
G01X38478Y45000D01*
G01X38481Y45059D01*
G01X38482Y45118D01*
G01X38481Y45177D01*
G01X38478Y45236D01*
G01X38473Y45295D01*
G01X38465Y45353D01*
G01X38456Y45412D01*
G01X38444Y45469D01*
G01X38431Y45526D01*
G01X38415Y45583D01*
G01X38398Y45640D01*
G01X38378Y45696D01*
G01X38357Y45750D01*
G01X38333Y45804D01*
G01X38307Y45858D01*
G01X38280Y45910D01*
G01X38251Y45961D01*
G01X38220Y46012D01*
G01X38187Y46060D01*
G01X38152Y46109D01*
G01X38116Y46155D01*
G01X38079Y46200D01*
G01X38039Y46244D01*
G01X37998Y46286D01*
G01X37956Y46328D01*
G01X37912Y46367D01*
G01X37866Y46405D01*
G01X37820Y46441D01*
G01X37772Y46475D01*
G01X37723Y46508D01*
G01X37673Y46539D01*
G01X37621Y46568D01*
G01X37569Y46596D01*
G01X37516Y46621D01*
G01X37462Y46645D01*
G01X37407Y46666D01*
G01X37351Y46686D01*
G01X37295Y46703D01*
G01X37238Y46719D01*
G01X37181Y46733D01*
G01X37123Y46744D01*
G01X37065Y46754D01*
G01X37006Y46761D01*
G01X36947Y46766D01*
G01X36888Y46770D01*
G37*

%LPD*%
G54D12*
G01X30832Y21271D02*
G01X30832Y11492D01*
G01X23811Y11492D01*
G01X23811Y11492D02*
G01X26151Y11492D01*
G01X26151Y5523D01*
G01X16393Y37781D02*
G01X16447Y37727D01*
G01X16447Y36638D01*
G01X16393Y41083D02*
G01X16393Y36638D01*
G01X16447Y36638D01*
G01X16447Y36638D02*
G01X16447Y32955D01*
G01X16477Y32955D01*
G01X16477Y32955D02*
G01X11331Y27809D01*
G01X11331Y27113D01*
G01X30832Y27113D02*
G01X30832Y21271D01*
G01X24446Y36638D02*
G01X30832Y36638D01*
G01X30832Y27113D01*
G01X27294Y41083D02*
G01X27294Y36638D01*
G01X24446Y36638D01*
G54D13*
G01X21844Y41083D02*
G01X20701Y41083D01*
G01X20701Y35876D01*
G01X23622Y32955D01*
G01X25178Y32955D01*
G54D12*
G01X11330Y21271D02*
G01X9525Y19465D01*
G01X9525Y16318D01*
G01X10033Y15810D01*
G01X15842Y15810D01*
G01X15842Y15810D02*
G01X15812Y15779D01*
G01X15812Y11492D01*
G01X15811Y11492D02*
G01X15811Y5523D01*
G01X15250Y5523D01*
G01X36830Y3392D02*
G01X36830Y2094D01*
G01X18679Y2094D01*
G01X15250Y5523D01*
G01X3937Y40956D02*
G01X8382Y45401D01*
G01X27294Y45401D01*
G01X27294Y41083D01*
G01X30832Y69433D02*
G01X30832Y59654D01*
G01X23811Y59654D01*
G01X23811Y59654D02*
G01X26151Y59654D01*
G01X26151Y53685D01*
G01X16393Y85943D02*
G01X16447Y85889D01*
G01X16447Y84800D01*
G01X16393Y89245D02*
G01X16393Y84800D01*
G01X16447Y84800D01*
G01X16447Y84800D02*
G01X16447Y81117D01*
G01X16477Y81117D01*
G01X16477Y81117D02*
G01X11331Y75971D01*
G01X11331Y75275D01*
G01X30832Y75275D02*
G01X30832Y69433D01*
G01X24446Y84800D02*
G01X30832Y84800D01*
G01X30832Y75275D01*
G01X27294Y89245D02*
G01X27294Y84800D01*
G01X24446Y84800D01*
G54D13*
G01X21844Y89245D02*
G01X20701Y89245D01*
G01X20701Y84038D01*
G01X23622Y81117D01*
G01X25178Y81117D01*
G54D12*
G01X11330Y69433D02*
G01X9525Y67627D01*
G01X9525Y64480D01*
G01X10033Y63972D01*
G01X15841Y63972D01*
G01X15842Y63972D02*
G01X15812Y63941D01*
G01X15812Y59654D01*
G01X15811Y59654D02*
G01X15811Y53685D01*
G01X15250Y53685D01*
G01X36830Y51554D02*
G01X36830Y50256D01*
G01X18679Y50256D01*
G01X15250Y53685D01*
G01X3937Y89118D02*
G01X8382Y93563D01*
G01X27294Y93563D01*
G01X27294Y89245D01*
G54D14*
G01X36830Y93280D03*
G01X36830Y73780D03*
G54D15*
G01X3683Y77942D03*
G01X3937Y89118D03*
G54D16*
G01X27294Y89245D03*
G54D17*
G01X16393Y89245D03*
G54D16*
G01X21844Y89245D03*
G01X26151Y53685D03*
G54D17*
G01X15250Y53685D03*
G54D16*
G01X20701Y53685D03*
G54D18*
G01X15842Y63972D03*
G01X24543Y63972D03*
G01X16477Y81117D03*
G01X25178Y81117D03*
G54D19*
G01X49592Y72354D03*
G01X41593Y72354D03*
G54D20*
G01X24446Y84800D03*
G01X16447Y84800D03*
G01X23811Y59654D03*
G01X15812Y59654D03*
G54D15*
G01X71755Y91277D03*
G01X70993Y73751D03*
G01X71374Y53685D03*
G54D19*
G01X58039Y57495D03*
G01X58039Y88483D03*
G54D14*
G01X30832Y75275D03*
G01X11331Y75275D03*
G01X11331Y69433D03*
G01X30832Y69433D03*
G01X36830Y51555D03*
G01X36830Y71055D03*
G01X36830Y3393D03*
G01X36830Y22893D03*
G01X11331Y21271D03*
G01X30832Y21271D03*
G01X30832Y27113D03*
G01X11331Y27113D03*
G54D19*
G01X58039Y9333D03*
G01X58039Y40321D03*
G54D15*
G01X71374Y5523D03*
G01X70993Y25589D03*
G01X71755Y43115D03*
G54D20*
G01X23811Y11492D03*
G01X15812Y11492D03*
G01X24446Y36638D03*
G01X16447Y36638D03*
G54D19*
G01X49592Y24192D03*
G01X41593Y24192D03*
G54D18*
G01X16477Y32955D03*
G01X25178Y32955D03*
G01X15842Y15810D03*
G01X24543Y15810D03*
G54D16*
G01X26151Y5523D03*
G54D17*
G01X15250Y5523D03*
G54D16*
G01X20701Y5523D03*
G01X27294Y41083D03*
G54D17*
G01X16393Y41083D03*
G54D16*
G01X21844Y41083D03*
G54D15*
G01X3937Y40956D03*
G01X3683Y29780D03*
G54D14*
G01X36830Y45118D03*
G01X36830Y25618D03*
M00*
M02*
