G04 Layer: TopSilkLayer*
G04 EasyEDA v6.3.43, 2020-06-01T19:13:48+08:00*
G04 e22e4845dbe6470894a8ffcda582c5b6,45e1048b23574a55a66a4e5d38cdb7dd,10*
G04 Gerber Generator version 0.2*
G04 Scale: 100 percent, Rotated: No, Reflected: No *
G04 Dimensions in millimeters *
G04 leading zeros omitted , absolute positions ,3 integer and 3 decimal *
%FSLAX33Y33*%
%MOMM*%
G90*
G71D02*

%ADD11C,0.254000*%
%ADD23C,0.199898*%
%ADD24C,0.228600*%
%ADD25C,0.152400*%
%ADD26C,0.203200*%

%LPD*%
G54D11*
G01X39329Y91280D02*
G01X34330Y91280D01*
G01X39329Y91280D02*
G01X39329Y75780D01*
G01X34330Y75780D01*
G01X34330Y91280D02*
G01X34330Y75780D01*
G54D23*
G01X13893Y91945D02*
G01X13893Y86644D01*
G01X29793Y86644D01*
G01X29793Y91945D01*
G01X13893Y91945D01*
G01X13893Y91445D02*
G01X29793Y91445D01*
G01X12750Y56385D02*
G01X12750Y51084D01*
G01X28650Y51084D01*
G01X28650Y56385D01*
G01X12750Y56385D01*
G01X12750Y55885D02*
G01X28650Y55885D01*
G54D11*
G01X21833Y62572D02*
G01X21833Y65372D01*
G01X22792Y62572D02*
G01X22792Y65372D01*
G01X22792Y65372D02*
G01X17593Y65372D01*
G01X17593Y62572D02*
G01X17593Y65372D01*
G01X22792Y62572D02*
G01X17593Y62572D01*
G01X22468Y79717D02*
G01X22468Y82517D01*
G01X23427Y79717D02*
G01X23427Y82517D01*
G01X23427Y82517D02*
G01X18228Y82517D01*
G01X18228Y79717D02*
G01X18228Y82517D01*
G01X23427Y79717D02*
G01X18228Y79717D01*
G01X42291Y78450D02*
G01X42291Y73368D01*
G01X42291Y71340D02*
G01X42291Y66131D01*
G01X48768Y66131D01*
G01X48768Y71441D01*
G01X48768Y73267D02*
G01X48768Y78577D01*
G01X42291Y78577D01*
G01X42291Y78450D02*
G01X48768Y77423D01*
G01X48768Y77423D02*
G01X42291Y76226D01*
G01X42291Y76226D02*
G01X48768Y74883D01*
G01X48768Y74883D02*
G01X42291Y73667D01*
G01X42291Y73667D02*
G01X48362Y72317D01*
G01X42291Y70946D01*
G01X42291Y70946D02*
G01X48768Y69786D01*
G01X48768Y69786D02*
G01X42291Y68465D01*
G01X42291Y68465D02*
G01X48768Y67297D01*
G01X48768Y67297D02*
G01X42291Y66131D01*
G54D24*
G01X19177Y83530D02*
G01X19177Y86070D01*
G54D11*
G01X22547Y83400D02*
G01X18347Y83400D01*
G01X18347Y86200D01*
G01X22547Y86200D01*
G01X22547Y83400D01*
G54D24*
G01X18542Y58384D02*
G01X18542Y60924D01*
G54D11*
G01X21912Y58254D02*
G01X17712Y58254D01*
G01X17712Y61054D01*
G01X21912Y61054D01*
G01X21912Y58254D01*
G01X51943Y55971D02*
G01X51943Y90007D01*
G01X64262Y90007D01*
G01X64262Y55971D01*
G01X51943Y55971D01*
G01X28831Y72775D02*
G01X28831Y77775D01*
G01X28831Y72775D02*
G01X13332Y72775D01*
G01X13332Y77775D01*
G01X28831Y77775D02*
G01X13332Y77775D01*
G01X13332Y71933D02*
G01X13332Y66933D01*
G01X13332Y71933D02*
G01X28831Y71933D01*
G01X28831Y66933D01*
G01X13332Y66933D02*
G01X28831Y66933D01*
G01X34330Y53555D02*
G01X39329Y53555D01*
G01X34330Y53555D02*
G01X34330Y69054D01*
G01X39329Y69054D01*
G01X39329Y53555D02*
G01X39329Y69054D01*
G01X34330Y5393D02*
G01X39329Y5393D01*
G01X34330Y5393D02*
G01X34330Y20893D01*
G01X39329Y20893D01*
G01X39329Y5393D02*
G01X39329Y20893D01*
G01X13332Y23771D02*
G01X13332Y18771D01*
G01X13332Y23771D02*
G01X28831Y23771D01*
G01X28831Y18771D01*
G01X13332Y18771D02*
G01X28831Y18771D01*
G01X28831Y24613D02*
G01X28831Y29613D01*
G01X28831Y24613D02*
G01X13332Y24613D01*
G01X13332Y29613D01*
G01X28831Y29613D02*
G01X13332Y29613D01*
G01X51943Y7809D02*
G01X51943Y41845D01*
G01X64262Y41845D01*
G01X64262Y7809D01*
G01X51943Y7809D01*
G54D24*
G01X18542Y10222D02*
G01X18542Y12762D01*
G54D11*
G01X21912Y10092D02*
G01X17712Y10092D01*
G01X17712Y12892D01*
G01X21912Y12892D01*
G01X21912Y10092D01*
G54D24*
G01X19177Y35368D02*
G01X19177Y37908D01*
G54D11*
G01X22547Y35238D02*
G01X18347Y35238D01*
G01X18347Y38038D01*
G01X22547Y38038D01*
G01X22547Y35238D01*
G01X42291Y30288D02*
G01X42291Y25206D01*
G01X42291Y23178D02*
G01X42291Y17969D01*
G01X48768Y17969D01*
G01X48768Y23279D01*
G01X48768Y25105D02*
G01X48768Y30415D01*
G01X42291Y30415D01*
G01X42291Y30288D02*
G01X48768Y29261D01*
G01X48768Y29261D02*
G01X42291Y28064D01*
G01X42291Y28064D02*
G01X48768Y26721D01*
G01X48768Y26721D02*
G01X42291Y25506D01*
G01X42291Y25506D02*
G01X48362Y24155D01*
G01X42291Y22784D01*
G01X42291Y22784D02*
G01X48768Y21624D01*
G01X48768Y21624D02*
G01X42291Y20303D01*
G01X42291Y20303D02*
G01X48768Y19135D01*
G01X48768Y19135D02*
G01X42291Y17969D01*
G01X22468Y31555D02*
G01X22468Y34355D01*
G01X23427Y31555D02*
G01X23427Y34355D01*
G01X23427Y34355D02*
G01X18228Y34355D01*
G01X18228Y31555D02*
G01X18228Y34355D01*
G01X23427Y31555D02*
G01X18228Y31555D01*
G01X21833Y14410D02*
G01X21833Y17210D01*
G01X22792Y14410D02*
G01X22792Y17210D01*
G01X22792Y17210D02*
G01X17593Y17210D01*
G01X17593Y14410D02*
G01X17593Y17210D01*
G01X22792Y14410D02*
G01X17593Y14410D01*
G54D23*
G01X12750Y8223D02*
G01X12750Y2922D01*
G01X28650Y2922D01*
G01X28650Y8223D01*
G01X12750Y8223D01*
G01X12750Y7723D02*
G01X28650Y7723D01*
G01X13893Y43783D02*
G01X13893Y38482D01*
G01X29793Y38482D01*
G01X29793Y43783D01*
G01X13893Y43783D01*
G01X13893Y43283D02*
G01X29793Y43283D01*
G54D11*
G01X39329Y43118D02*
G01X34330Y43118D01*
G01X39329Y43118D02*
G01X39329Y27618D01*
G01X34330Y27618D01*
G01X34330Y43118D02*
G01X34330Y27618D01*
G54D25*
G01X19304Y69743D02*
G01X19408Y69796D01*
G01X19563Y69951D01*
G01X19563Y68861D01*
G01X20218Y69951D02*
G01X20063Y69900D01*
G01X19959Y69743D01*
G01X19905Y69484D01*
G01X19905Y69329D01*
G01X19959Y69067D01*
G01X20063Y68912D01*
G01X20218Y68861D01*
G01X20322Y68861D01*
G01X20477Y68912D01*
G01X20581Y69067D01*
G01X20634Y69329D01*
G01X20634Y69484D01*
G01X20581Y69743D01*
G01X20477Y69900D01*
G01X20322Y69951D01*
G01X20218Y69951D01*
G01X20977Y69951D02*
G01X20977Y68861D01*
G01X21704Y69951D02*
G01X20977Y69225D01*
G01X21236Y69484D02*
G01X21704Y68861D01*
G01X19177Y75585D02*
G01X19281Y75638D01*
G01X19436Y75793D01*
G01X19436Y74703D01*
G01X20091Y75793D02*
G01X19936Y75742D01*
G01X19832Y75585D01*
G01X19778Y75326D01*
G01X19778Y75171D01*
G01X19832Y74909D01*
G01X19936Y74754D01*
G01X20091Y74703D01*
G01X20195Y74703D01*
G01X20350Y74754D01*
G01X20454Y74909D01*
G01X20507Y75171D01*
G01X20507Y75326D01*
G01X20454Y75585D01*
G01X20350Y75742D01*
G01X20195Y75793D01*
G01X20091Y75793D01*
G01X20850Y75793D02*
G01X20850Y74703D01*
G01X21577Y75793D02*
G01X20850Y75067D01*
G01X21109Y75326D02*
G01X21577Y74703D01*
G01X37856Y60911D02*
G01X37129Y61432D01*
G01X37129Y60652D01*
G01X37856Y60911D02*
G01X36766Y60911D01*
G01X37856Y59583D02*
G01X36766Y60101D01*
G01X37856Y60309D02*
G01X37856Y59583D01*
G01X37856Y58928D02*
G01X37805Y59082D01*
G01X37647Y59187D01*
G01X37388Y59240D01*
G01X37233Y59240D01*
G01X36972Y59187D01*
G01X36817Y59082D01*
G01X36766Y58928D01*
G01X36766Y58823D01*
G01X36817Y58668D01*
G01X36972Y58564D01*
G01X37233Y58511D01*
G01X37388Y58511D01*
G01X37647Y58564D01*
G01X37805Y58668D01*
G01X37856Y58823D01*
G01X37856Y58928D01*
G01X37348Y85295D02*
G01X36621Y85816D01*
G01X36621Y85036D01*
G01X37348Y85295D02*
G01X36258Y85295D01*
G01X37348Y83967D02*
G01X36258Y84485D01*
G01X37348Y84693D02*
G01X37348Y83967D01*
G01X37348Y83312D02*
G01X37297Y83466D01*
G01X37139Y83571D01*
G01X36880Y83624D01*
G01X36725Y83624D01*
G01X36464Y83571D01*
G01X36309Y83466D01*
G01X36258Y83312D01*
G01X36258Y83207D01*
G01X36309Y83052D01*
G01X36464Y82948D01*
G01X36725Y82895D01*
G01X36880Y82895D01*
G01X37139Y82948D01*
G01X37297Y83052D01*
G01X37348Y83207D01*
G01X37348Y83312D01*
G54D26*
G01X43723Y94216D02*
G01X43723Y92737D01*
G01X43629Y92461D01*
G01X43538Y92369D01*
G01X43352Y92278D01*
G01X43167Y92278D01*
G01X42984Y92369D01*
G01X42890Y92461D01*
G01X42799Y92737D01*
G01X42799Y92923D01*
G01X44333Y94216D02*
G01X44333Y92278D01*
G01X44333Y92278D02*
G01X45440Y92278D01*
G01X47434Y93753D02*
G01X47343Y93939D01*
G01X47157Y94124D01*
G01X46974Y94216D01*
G01X46603Y94216D01*
G01X46418Y94124D01*
G01X46235Y93939D01*
G01X46141Y93753D01*
G01X46050Y93477D01*
G01X46050Y93017D01*
G01X46141Y92737D01*
G01X46235Y92555D01*
G01X46418Y92369D01*
G01X46603Y92278D01*
G01X46974Y92278D01*
G01X47157Y92369D01*
G01X47343Y92555D01*
G01X47434Y92737D01*
G01X48968Y94216D02*
G01X48968Y92737D01*
G01X48877Y92461D01*
G01X48783Y92369D01*
G01X48600Y92278D01*
G01X48414Y92278D01*
G01X48229Y92369D01*
G01X48138Y92461D01*
G01X48044Y92737D01*
G01X48044Y92923D01*
G01X49578Y94216D02*
G01X49578Y92278D01*
G01X49578Y92278D02*
G01X50685Y92278D01*
G01X52682Y93753D02*
G01X52590Y93939D01*
G01X52405Y94124D01*
G01X52219Y94216D01*
G01X51851Y94216D01*
G01X51666Y94124D01*
G01X51480Y93939D01*
G01X51389Y93753D01*
G01X51295Y93477D01*
G01X51295Y93017D01*
G01X51389Y92737D01*
G01X51480Y92555D01*
G01X51666Y92369D01*
G01X51851Y92278D01*
G01X52219Y92278D01*
G01X52405Y92369D01*
G01X52590Y92555D01*
G01X52682Y92737D01*
G01X54216Y94216D02*
G01X54216Y92737D01*
G01X54122Y92461D01*
G01X54030Y92369D01*
G01X53845Y92278D01*
G01X53660Y92278D01*
G01X53477Y92369D01*
G01X53383Y92461D01*
G01X53291Y92737D01*
G01X53291Y92923D01*
G01X54825Y94216D02*
G01X54825Y92278D01*
G01X54825Y92278D02*
G01X55933Y92278D01*
G01X57927Y93753D02*
G01X57835Y93939D01*
G01X57650Y94124D01*
G01X57467Y94216D01*
G01X57096Y94216D01*
G01X56911Y94124D01*
G01X56728Y93939D01*
G01X56634Y93753D01*
G01X56542Y93477D01*
G01X56542Y93017D01*
G01X56634Y92737D01*
G01X56728Y92555D01*
G01X56911Y92369D01*
G01X57096Y92278D01*
G01X57467Y92278D01*
G01X57650Y92369D01*
G01X57835Y92555D01*
G01X57927Y92737D01*
G01X59461Y94216D02*
G01X59461Y92737D01*
G01X59369Y92461D01*
G01X59275Y92369D01*
G01X59093Y92278D01*
G01X58907Y92278D01*
G01X58722Y92369D01*
G01X58630Y92461D01*
G01X58536Y92737D01*
G01X58536Y92923D01*
G01X60071Y94216D02*
G01X60071Y92278D01*
G01X60071Y92278D02*
G01X61178Y92278D01*
G01X63174Y93753D02*
G01X63080Y93939D01*
G01X62898Y94124D01*
G01X62712Y94216D01*
G01X62344Y94216D01*
G01X62158Y94124D01*
G01X61973Y93939D01*
G01X61882Y93753D01*
G01X61788Y93477D01*
G01X61788Y93017D01*
G01X61882Y92737D01*
G01X61973Y92555D01*
G01X62158Y92369D01*
G01X62344Y92278D01*
G01X62712Y92278D01*
G01X62898Y92369D01*
G01X63080Y92555D01*
G01X63174Y92737D01*
G54D25*
G01X37856Y12749D02*
G01X37129Y13270D01*
G01X37129Y12490D01*
G01X37856Y12749D02*
G01X36766Y12749D01*
G01X37856Y11421D02*
G01X36766Y11939D01*
G01X37856Y12147D02*
G01X37856Y11421D01*
G01X37856Y10766D02*
G01X37805Y10920D01*
G01X37647Y11025D01*
G01X37388Y11078D01*
G01X37233Y11078D01*
G01X36972Y11025D01*
G01X36817Y10920D01*
G01X36766Y10766D01*
G01X36766Y10661D01*
G01X36817Y10506D01*
G01X36972Y10402D01*
G01X37233Y10349D01*
G01X37388Y10349D01*
G01X37647Y10402D01*
G01X37805Y10506D01*
G01X37856Y10661D01*
G01X37856Y10766D01*
G01X19177Y27423D02*
G01X19281Y27476D01*
G01X19436Y27631D01*
G01X19436Y26541D01*
G01X20091Y27631D02*
G01X19936Y27580D01*
G01X19832Y27423D01*
G01X19778Y27164D01*
G01X19778Y27009D01*
G01X19832Y26747D01*
G01X19936Y26592D01*
G01X20091Y26541D01*
G01X20195Y26541D01*
G01X20350Y26592D01*
G01X20454Y26747D01*
G01X20507Y27009D01*
G01X20507Y27164D01*
G01X20454Y27423D01*
G01X20350Y27580D01*
G01X20195Y27631D01*
G01X20091Y27631D01*
G01X20850Y27631D02*
G01X20850Y26541D01*
G01X21577Y27631D02*
G01X20850Y26905D01*
G01X21109Y27164D02*
G01X21577Y26541D01*
G01X19304Y21581D02*
G01X19408Y21634D01*
G01X19563Y21789D01*
G01X19563Y20699D01*
G01X20218Y21789D02*
G01X20063Y21738D01*
G01X19959Y21581D01*
G01X19905Y21322D01*
G01X19905Y21167D01*
G01X19959Y20905D01*
G01X20063Y20750D01*
G01X20218Y20699D01*
G01X20322Y20699D01*
G01X20477Y20750D01*
G01X20581Y20905D01*
G01X20634Y21167D01*
G01X20634Y21322D01*
G01X20581Y21581D01*
G01X20477Y21738D01*
G01X20322Y21789D01*
G01X20218Y21789D01*
G01X20977Y21789D02*
G01X20977Y20699D01*
G01X21704Y21789D02*
G01X20977Y21063D01*
G01X21236Y21322D02*
G01X21704Y20699D01*
G01X37348Y37133D02*
G01X36621Y37654D01*
G01X36621Y36874D01*
G01X37348Y37133D02*
G01X36258Y37133D01*
G01X37348Y35805D02*
G01X36258Y36323D01*
G01X37348Y36531D02*
G01X37348Y35805D01*
G01X37348Y35150D02*
G01X37297Y35304D01*
G01X37139Y35409D01*
G01X36880Y35462D01*
G01X36725Y35462D01*
G01X36464Y35409D01*
G01X36309Y35304D01*
G01X36258Y35150D01*
G01X36258Y35045D01*
G01X36309Y34890D01*
G01X36464Y34786D01*
G01X36725Y34733D01*
G01X36880Y34733D01*
G01X37139Y34786D01*
G01X37297Y34890D01*
G01X37348Y35045D01*
G01X37348Y35150D01*
G01X3446Y37053D02*
G01X3393Y37157D01*
G01X3289Y37261D01*
G01X3187Y37312D01*
G01X2979Y37312D01*
G01X2875Y37261D01*
G01X2771Y37157D01*
G01X2717Y37053D01*
G01X2667Y36896D01*
G01X2667Y36636D01*
G01X2717Y36482D01*
G01X2771Y36377D01*
G01X2875Y36273D01*
G01X2979Y36222D01*
G01X3187Y36222D01*
G01X3289Y36273D01*
G01X3393Y36377D01*
G01X3446Y36482D01*
G01X3446Y36636D01*
G01X3187Y36636D02*
G01X3446Y36636D01*
G01X3789Y37312D02*
G01X3789Y36222D01*
G01X3789Y37312D02*
G01X4516Y36222D01*
G01X4516Y37312D02*
G01X4516Y36222D01*
G01X4859Y37312D02*
G01X4859Y36222D01*
G01X4859Y37312D02*
G01X5222Y37312D01*
G01X5379Y37261D01*
G01X5483Y37157D01*
G01X5534Y37053D01*
G01X5588Y36896D01*
G01X5588Y36636D01*
G01X5534Y36482D01*
G01X5483Y36377D01*
G01X5379Y36273D01*
G01X5222Y36222D01*
G01X4859Y36222D01*
G01X2286Y25628D02*
G01X2702Y24538D01*
G01X3116Y25628D02*
G01X2702Y24538D01*
G01X4239Y25369D02*
G01X4188Y25473D01*
G01X4084Y25577D01*
G01X3980Y25628D01*
G01X3771Y25628D01*
G01X3667Y25577D01*
G01X3563Y25473D01*
G01X3512Y25369D01*
G01X3459Y25212D01*
G01X3459Y24952D01*
G01X3512Y24798D01*
G01X3563Y24693D01*
G01X3667Y24589D01*
G01X3771Y24538D01*
G01X3980Y24538D01*
G01X4084Y24589D01*
G01X4188Y24693D01*
G01X4239Y24798D01*
G01X5361Y25369D02*
G01X5308Y25473D01*
G01X5207Y25577D01*
G01X5102Y25628D01*
G01X4894Y25628D01*
G01X4790Y25577D01*
G01X4686Y25473D01*
G01X4635Y25369D01*
G01X4582Y25212D01*
G01X4582Y24952D01*
G01X4635Y24798D01*
G01X4686Y24693D01*
G01X4790Y24589D01*
G01X4894Y24538D01*
G01X5102Y24538D01*
G01X5207Y24589D01*
G01X5308Y24693D01*
G01X5361Y24798D01*
G01X3446Y84805D02*
G01X3393Y84909D01*
G01X3289Y85013D01*
G01X3187Y85064D01*
G01X2979Y85064D01*
G01X2875Y85013D01*
G01X2771Y84909D01*
G01X2717Y84805D01*
G01X2667Y84648D01*
G01X2667Y84388D01*
G01X2717Y84234D01*
G01X2771Y84129D01*
G01X2875Y84025D01*
G01X2979Y83974D01*
G01X3187Y83974D01*
G01X3289Y84025D01*
G01X3393Y84129D01*
G01X3446Y84234D01*
G01X3446Y84388D01*
G01X3187Y84388D02*
G01X3446Y84388D01*
G01X3789Y85064D02*
G01X3789Y83974D01*
G01X3789Y85064D02*
G01X4516Y83974D01*
G01X4516Y85064D02*
G01X4516Y83974D01*
G01X4859Y85064D02*
G01X4859Y83974D01*
G01X4859Y85064D02*
G01X5222Y85064D01*
G01X5379Y85013D01*
G01X5483Y84909D01*
G01X5534Y84805D01*
G01X5588Y84648D01*
G01X5588Y84388D01*
G01X5534Y84234D01*
G01X5483Y84129D01*
G01X5379Y84025D01*
G01X5222Y83974D01*
G01X4859Y83974D01*
G01X2032Y73634D02*
G01X2448Y72544D01*
G01X2862Y73634D02*
G01X2448Y72544D01*
G01X3985Y73375D02*
G01X3934Y73479D01*
G01X3830Y73583D01*
G01X3726Y73634D01*
G01X3517Y73634D01*
G01X3413Y73583D01*
G01X3309Y73479D01*
G01X3258Y73375D01*
G01X3205Y73218D01*
G01X3205Y72958D01*
G01X3258Y72804D01*
G01X3309Y72699D01*
G01X3413Y72595D01*
G01X3517Y72544D01*
G01X3726Y72544D01*
G01X3830Y72595D01*
G01X3934Y72699D01*
G01X3985Y72804D01*
G01X5107Y73375D02*
G01X5054Y73479D01*
G01X4953Y73583D01*
G01X4848Y73634D01*
G01X4640Y73634D01*
G01X4536Y73583D01*
G01X4432Y73479D01*
G01X4381Y73375D01*
G01X4328Y73218D01*
G01X4328Y72958D01*
G01X4381Y72804D01*
G01X4432Y72699D01*
G01X4536Y72595D01*
G01X4640Y72544D01*
G01X4848Y72544D01*
G01X4953Y72595D01*
G01X5054Y72699D01*
G01X5107Y72804D01*
G54D11*
G75*
G01X5283Y77942D02*
G03X5283Y77942I-1600J0D01*
G01*
G75*
G01X5537Y89118D02*
G03X5537Y89118I-1600J0D01*
G01*
G75*
G01X73355Y91277D02*
G03X73355Y91277I-1600J0D01*
G01*
G75*
G01X72593Y73751D02*
G03X72593Y73751I-1600J0D01*
G01*
G75*
G01X72974Y53685D02*
G03X72974Y53685I-1600J0D01*
G01*
G75*
G01X72974Y5523D02*
G03X72974Y5523I-1600J0D01*
G01*
G75*
G01X72593Y25589D02*
G03X72593Y25589I-1600J0D01*
G01*
G75*
G01X73355Y43115D02*
G03X73355Y43115I-1600J0D01*
G01*
G75*
G01X5537Y40956D02*
G03X5537Y40956I-1600J0D01*
G01*
G75*
G01X5283Y29780D02*
G03X5283Y29780I-1600J0D01*
G01*
M00*
M02*
