G04 Layer: TopSolderMaskLayer*
G04 EasyEDA v6.3.43, 2020-06-01T19:13:48+08:00*
G04 e22e4845dbe6470894a8ffcda582c5b6,45e1048b23574a55a66a4e5d38cdb7dd,10*
G04 Gerber Generator version 0.2*
G04 Scale: 100 percent, Rotated: No, Reflected: No *
G04 Dimensions in millimeters *
G04 leading zeros omitted , absolute positions ,3 integer and 3 decimal *
%FSLAX33Y33*%
%MOMM*%
G90*
G71D02*

%ADD27C,2.503195*%
%ADD28C,6.203188*%
%ADD29C,3.103194*%
%ADD31C,2.003196*%
%ADD32C,2.203196*%
%ADD33C,1.903197*%

%LPD*%
G54D27*
G01X36830Y93280D03*
G01X36830Y73780D03*
G54D28*
G01X3683Y77942D03*
G01X3937Y89118D03*
G54D29*
G01X27294Y89245D03*
G36*
G01X14841Y87693D02*
G01X14841Y90797D01*
G01X17945Y90797D01*
G01X17945Y87693D01*
G01X14841Y87693D01*
G37*
G01X21844Y89245D03*
G01X26151Y53685D03*
G36*
G01X13698Y52133D02*
G01X13698Y55237D01*
G01X16802Y55237D01*
G01X16802Y52133D01*
G01X13698Y52133D01*
G37*
G01X20701Y53685D03*
G54D31*
G01X15842Y63972D03*
G01X24543Y63972D03*
G01X16477Y81117D03*
G01X25178Y81117D03*
G54D32*
G01X49592Y72354D03*
G01X41593Y72354D03*
G54D33*
G01X24446Y84800D03*
G01X16447Y84800D03*
G01X23811Y59654D03*
G01X15812Y59654D03*
G54D28*
G01X71755Y91277D03*
G01X70993Y73751D03*
G01X71374Y53685D03*
G54D32*
G01X58039Y57495D03*
G01X58039Y88483D03*
G54D27*
G01X30832Y75275D03*
G01X11331Y75275D03*
G01X11331Y69433D03*
G01X30832Y69433D03*
G01X36830Y51555D03*
G01X36830Y71055D03*
G01X36830Y3393D03*
G01X36830Y22893D03*
G01X11331Y21271D03*
G01X30832Y21271D03*
G01X30832Y27113D03*
G01X11331Y27113D03*
G54D32*
G01X58039Y9333D03*
G01X58039Y40321D03*
G54D28*
G01X71374Y5523D03*
G01X70993Y25589D03*
G01X71755Y43115D03*
G54D33*
G01X23811Y11492D03*
G01X15812Y11492D03*
G01X24446Y36638D03*
G01X16447Y36638D03*
G54D32*
G01X49592Y24192D03*
G01X41593Y24192D03*
G54D31*
G01X16477Y32955D03*
G01X25178Y32955D03*
G01X15842Y15810D03*
G01X24543Y15810D03*
G54D29*
G01X26151Y5523D03*
G36*
G01X13698Y3972D02*
G01X13698Y7073D01*
G01X16802Y7073D01*
G01X16802Y3972D01*
G01X13698Y3972D01*
G37*
G01X20701Y5523D03*
G01X27294Y41083D03*
G36*
G01X14841Y39532D02*
G01X14841Y42633D01*
G01X17945Y42633D01*
G01X17945Y39532D01*
G01X14841Y39532D01*
G37*
G01X21844Y41083D03*
G54D28*
G01X3937Y40956D03*
G01X3683Y29780D03*
G54D27*
G01X36830Y45118D03*
G01X36830Y25618D03*
M00*
M02*
